<svg width="29" height="14" viewBox="0 0 29 14" fill="none" xmlns="http://www.w3.org/2000/svg">
<g clip-path="url(#clip0_194_455)">
<path d="M3.85638 3.3963C3.82224 3.32298 3.75823 3.27123 3.65581 3.24967C3.55767 3.2281 3.42111 3.24104 3.27176 3.31436C3.12241 3.38767 2.96025 3.52999 2.85357 3.737C2.74262 3.93969 2.69141 4.19845 2.72128 4.44428C2.72982 4.56934 2.77249 4.7246 2.8493 4.89279C2.92184 5.05668 3.03279 5.22487 3.17788 5.37581C3.3187 5.52676 3.48939 5.66045 3.67288 5.76395C3.85638 5.86746 4.05267 5.94077 4.2447 5.99253C4.43673 6.03996 4.62022 6.06153 4.79091 6.06584C4.87625 6.06584 4.95306 6.06584 5.02988 6.05721C5.10242 6.04859 5.1707 6.04428 5.2347 6.03134C5.29871 6.0184 5.35419 6.00546 5.40113 5.99684C5.44807 5.9839 5.49074 5.97096 5.52488 5.95802C5.59316 5.93215 5.62729 5.91058 5.62729 5.88902C5.62729 5.87177 5.58889 5.85021 5.52488 5.82864C5.45234 5.80277 5.36272 5.77258 5.26031 5.73808C5.20483 5.72083 5.14936 5.69495 5.08962 5.67339C5.02988 5.64751 4.96587 5.62164 4.90186 5.59145C4.77384 5.53107 4.64582 5.45344 4.52634 5.3715C4.40685 5.28525 4.30017 5.18606 4.21056 5.08255C4.12095 4.97905 4.05267 4.87123 4.00573 4.77204C3.95879 4.67285 3.92892 4.58228 3.91612 4.50465C3.91185 4.4874 3.91185 4.47015 3.90758 4.4529C3.90758 4.43565 3.90332 4.4184 3.90332 4.40546C3.90332 4.39252 3.90332 4.37527 3.89905 4.36665C3.89905 4.35371 3.89905 4.34508 3.89905 4.33215C3.89051 4.25021 3.88198 4.1812 3.87771 4.11651C3.87345 4.05182 3.86918 3.97419 3.87771 3.89657C3.89051 3.73268 3.94599 3.55155 3.87771 3.40492L3.85638 3.3963Z" fill="#6A6A6A"/>
<path d="M2.58919 5.94484C3.63893 6.35886 5.08981 6.42786 5.28183 6.43648C5.29463 6.43648 5.30317 6.44511 5.30317 6.45373L5.81951 6.87206C5.88778 6.92813 5.89205 7.03163 5.82804 7.09201L5.34157 7.54484C5.34157 7.54484 5.33304 7.56209 5.32024 7.56209C5.12821 7.58365 3.79682 7.73028 2.67026 8.23487C2.66173 8.23487 0.98896 7.38958 0.639044 7.19983C0.604906 7.18258 0.600638 7.13945 0.639044 7.11789C0.976158 6.90225 2.58492 5.94053 2.59345 5.94484H2.58919Z" fill="#6A6A6A"/>
<path d="M4.11692 10.7495C4.08705 10.8228 4.0273 10.8788 3.92489 10.909C3.82674 10.9392 3.69019 10.9349 3.53657 10.8702C3.38295 10.8098 3.21226 10.6761 3.0885 10.4778C2.96475 10.2837 2.89648 10.0292 2.90501 9.7791C2.90501 9.65403 2.93915 9.49447 2.99889 9.32627C3.0629 9.15808 3.16105 8.98126 3.28907 8.82169C3.42135 8.66212 3.57924 8.51549 3.75847 8.40336C3.93342 8.28692 4.12545 8.20066 4.31321 8.13597C4.50097 8.0756 4.68446 8.04109 4.85089 8.02816C4.93623 8.02384 5.01304 8.01953 5.08559 8.01953C5.15813 8.01953 5.22641 8.02384 5.29042 8.03247C5.35442 8.04109 5.4099 8.04972 5.45684 8.05835C5.50805 8.06697 5.54645 8.07991 5.58059 8.08853C5.64887 8.1101 5.68727 8.13166 5.68727 8.14891C5.68727 8.16616 5.65313 8.18773 5.58912 8.21791C5.51658 8.2481 5.43123 8.28692 5.33309 8.32573C5.28188 8.34729 5.22641 8.37748 5.16666 8.40336C5.10692 8.43355 5.04718 8.46374 4.98744 8.49824C4.86796 8.56724 4.7442 8.65349 4.62899 8.74406C4.51804 8.83894 4.41562 8.94244 4.33455 9.05457C4.25347 9.16239 4.19373 9.27452 4.15105 9.37802C4.10838 9.48153 4.09131 9.57641 4.08278 9.64972C4.07851 9.66697 4.08278 9.68854 4.07851 9.70147C4.07851 9.71872 4.07851 9.73597 4.07851 9.74891C4.07851 9.76185 4.07851 9.7791 4.07851 9.78773C4.07851 9.80067 4.07851 9.80929 4.07851 9.82223C4.07851 9.90417 4.07424 9.97317 4.07424 10.0422C4.07424 10.1112 4.07424 10.1845 4.08705 10.2621C4.10838 10.4217 4.17666 10.6028 4.11692 10.7538V10.7495Z" fill="#6A6A6A"/>
<path d="M5.72565 10.6845C5.67871 10.7234 5.66591 10.801 5.68725 10.9045C5.70858 11.0123 5.75979 11.146 5.8494 11.3099C5.89208 11.3918 5.94755 11.4781 6.01156 11.5686C6.07557 11.6635 6.14811 11.7584 6.23346 11.8619C6.40415 12.0646 6.61325 12.2845 6.88635 12.5045C7.15519 12.7201 7.48803 12.9358 7.88916 13.1083C8.29028 13.2765 8.77248 13.4015 9.29309 13.4058C9.8137 13.4188 10.3556 13.3066 10.8549 13.1083C11.3542 12.9099 11.815 12.6339 12.2332 12.3147C12.6514 11.9999 13.1422 11.5428 13.6457 10.9821C14.1492 10.4215 14.6613 9.76163 15.1905 9.05866C15.7153 8.3557 16.2573 7.6096 16.8334 6.90664C16.9784 6.73413 17.1278 6.56162 17.2772 6.39774C17.354 6.3158 17.4308 6.23386 17.5076 6.15623C17.546 6.11311 17.5844 6.07861 17.6228 6.0441C17.6612 6.0096 17.6953 5.9751 17.7337 5.9406C18.0453 5.67321 18.4037 5.43602 18.7878 5.2592C19.1718 5.07806 19.5772 4.94437 19.9826 4.86243C20.388 4.77618 20.7976 4.73305 21.1902 4.73305C21.9754 4.73305 22.6923 4.89262 23.2556 5.13413C23.5415 5.25057 23.7847 5.38858 23.9938 5.52227C24.2029 5.65596 24.3694 5.79397 24.5102 5.9061C24.6425 6.02685 24.7491 6.11742 24.8174 6.18642C24.89 6.25111 24.9326 6.28561 24.9454 6.27699C24.954 6.26836 24.9369 6.22092 24.89 6.13467C24.8473 6.0441 24.7662 5.92766 24.6595 5.77241C24.5443 5.62577 24.3992 5.44896 24.1987 5.27214C24.0024 5.091 23.7634 4.90125 23.4732 4.72874C22.8971 4.37941 22.1248 4.09478 21.2414 3.98696C20.8019 3.93089 20.3325 3.92658 19.8503 3.97402C19.3681 4.01715 18.8774 4.12065 18.3909 4.28885C17.9044 4.45273 17.4265 4.69424 16.987 5.00906C16.9315 5.04788 16.8803 5.091 16.8248 5.12982C16.7693 5.17294 16.7181 5.21176 16.6712 5.25488C16.5731 5.33683 16.4792 5.41877 16.381 5.50502C16.1933 5.67321 16.014 5.84572 15.8391 6.02254C15.1435 6.72119 14.5333 7.4371 13.9615 8.08831C13.3897 8.74384 12.8605 9.33467 12.3783 9.81338C11.9004 10.2964 11.4737 10.6587 11.1451 10.9088C10.8165 11.1589 10.4879 11.3616 10.1721 11.5083C9.8521 11.6506 9.54913 11.7411 9.25042 11.7713C8.95171 11.8058 8.66153 11.7756 8.37563 11.7153C8.09399 11.6506 7.82088 11.5514 7.56911 11.4436C7.31734 11.3358 7.08691 11.215 6.88635 11.1029C6.78394 11.0468 6.68579 10.9951 6.59618 10.9476C6.51083 10.9045 6.42549 10.857 6.34441 10.8139C6.0329 10.6587 5.81953 10.594 5.72565 10.6759V10.6845Z" fill="#6A6A6A"/>
<path d="M11.1793 6.70835C11.3457 6.72991 11.4994 6.23826 11.8663 5.61293C11.9133 5.5353 11.9602 5.45767 12.02 5.38004C12.0712 5.2981 12.1352 5.2291 12.1992 5.15147C12.3315 5.00484 12.4808 4.86252 12.6558 4.74177C13.0014 4.49594 13.4538 4.34069 13.9786 4.28894C14.2389 4.26306 14.5974 4.25875 15.0199 4.3105C15.4423 4.36225 15.9288 4.47438 16.4366 4.65551C16.9359 4.83233 17.4735 5.10834 18.0325 5.38436C18.5916 5.66037 19.1804 5.95363 19.7992 6.14339C20.4179 6.33746 21.0538 6.42802 21.6341 6.38921C22.2145 6.35471 22.7052 6.22101 23.1149 6.12182C23.3197 6.07007 23.5032 6.03126 23.6696 5.99675C23.8318 5.96657 23.9768 5.945 24.0921 5.92344C24.3268 5.90188 24.4633 5.88031 24.4633 5.86306C24.4633 5.84581 24.331 5.82425 24.0878 5.79837C23.9683 5.79837 23.8147 5.78975 23.644 5.79837C23.4733 5.807 23.277 5.81994 23.0679 5.8415C22.6455 5.88031 22.1505 5.94932 21.6384 5.91913C21.122 5.89325 20.5716 5.75525 20.0382 5.52236C19.5047 5.2981 18.9799 4.97465 18.4507 4.6512C17.9216 4.32775 17.3925 3.99567 16.8206 3.74123C16.2616 3.49109 15.7026 3.3229 15.1948 3.23233C14.687 3.14177 14.2261 3.13314 13.8762 3.16764C13.5263 3.20214 13.1764 3.27977 12.8563 3.40915C12.5363 3.53853 12.2419 3.71966 12.0029 3.93098C11.7639 4.14231 11.5762 4.3795 11.4311 4.6167C11.3628 4.73745 11.2988 4.84958 11.2561 4.96603C11.2049 5.07816 11.1665 5.19028 11.1366 5.2981C11.0129 5.72937 11.0043 6.0787 11.0257 6.31589C11.0556 6.5574 11.1153 6.68678 11.1921 6.69541L11.1793 6.70835Z" fill="#6A6A6A"/>
<path d="M20.9172 2.79649C20.9172 2.84824 20.9599 2.89999 21.0453 2.95175C21.0879 2.97762 21.1391 3.0035 21.1989 3.02506C21.2586 3.05094 21.3226 3.07681 21.3994 3.10269C21.6939 3.20619 22.0865 3.31832 22.5089 3.46495C22.718 3.53827 23.0637 3.65902 23.4349 3.85309C23.8104 4.04285 24.2116 4.32318 24.5615 4.62506C24.6511 4.69838 24.7322 4.78032 24.8175 4.85363C24.8559 4.89245 24.8901 4.92695 24.9285 4.96576C24.9626 5.00458 24.9967 5.04339 25.0309 5.08221C25.1632 5.24177 25.2784 5.39703 25.3808 5.52641C25.4832 5.65579 25.5814 5.75929 25.6496 5.82399C25.7264 5.88868 25.7691 5.91455 25.7777 5.91024C25.7862 5.90161 25.7606 5.85417 25.7179 5.77655C25.6752 5.69461 25.6155 5.57816 25.5472 5.43153C25.4789 5.2849 25.4021 5.10808 25.2955 4.9097C25.2656 4.86226 25.24 4.81051 25.2101 4.76307C25.176 4.71563 25.1418 4.65956 25.1077 4.61212C25.0352 4.52156 24.9669 4.42237 24.8858 4.32749C24.57 3.94797 24.1817 3.57277 23.7848 3.30538C23.3923 3.03369 23.0039 2.85687 22.7607 2.77061C22.27 2.60242 21.7963 2.55929 21.4634 2.58948C21.3781 2.59811 21.3056 2.60673 21.2373 2.61967C21.169 2.63692 21.1135 2.65417 21.0666 2.67142C20.9727 2.71024 20.9215 2.75767 20.9215 2.80943L20.9172 2.79649Z" fill="#6A6A6A"/>
<path d="M5.46103 3.24508C5.55918 3.32271 5.76828 3.24508 6.06698 3.06395C6.14806 3.01651 6.22914 2.96476 6.31022 2.91732C6.39556 2.86126 6.48944 2.80519 6.58759 2.7405C6.78389 2.61543 7.00152 2.48174 7.24475 2.35236C7.48799 2.22729 7.75256 2.10654 8.02993 2.0246C8.3073 1.94697 8.59748 1.89522 8.89618 1.90816C9.19489 1.91678 9.5064 1.98578 9.83498 2.10654C10.1636 2.23161 10.5049 2.41274 10.8463 2.64131C11.192 2.86557 11.6443 3.20196 12.1521 3.65048C12.6642 4.09468 13.236 4.65102 13.8505 5.26341C14.4692 5.87581 15.1264 6.54859 15.8689 7.1998C16.0567 7.36369 16.2444 7.52325 16.445 7.67851C16.5474 7.75614 16.6455 7.83377 16.7522 7.90708C16.8034 7.9459 16.8589 7.9804 16.9144 8.01921C16.9699 8.05803 17.0253 8.09684 17.0851 8.13134C17.5459 8.41166 18.0409 8.62299 18.5359 8.75237C19.0309 8.89037 19.5345 8.95937 20.0167 8.968C20.4989 8.98094 20.9683 8.94644 21.4035 8.86018C22.2783 8.6963 23.0294 8.3556 23.5799 7.96746C23.8572 7.77339 24.0877 7.57069 24.2669 7.37231C24.4504 7.17824 24.5869 6.9928 24.6893 6.83754C24.7875 6.67797 24.8558 6.5529 24.8942 6.45803C24.9326 6.36746 24.9454 6.31571 24.9326 6.31139C24.9198 6.30708 24.8814 6.34158 24.8174 6.41059C24.7534 6.4839 24.6552 6.58741 24.5357 6.71247C24.4077 6.83754 24.2498 6.98848 24.0493 7.13511C23.853 7.28606 23.614 7.44131 23.3409 7.57501C22.7947 7.85102 22.0906 8.06665 21.3054 8.1184C20.9128 8.14859 20.5032 8.13134 20.0892 8.07528C19.6753 8.01921 19.2614 7.91571 18.8645 7.76045C18.4677 7.60951 18.0964 7.39819 17.7636 7.15237C17.7209 7.12218 17.6825 7.08768 17.6441 7.05317C17.6057 7.02298 17.563 6.98848 17.5246 6.94967C17.4435 6.87635 17.3582 6.80304 17.2771 6.72541C17.1149 6.57015 16.9571 6.41059 16.7992 6.2467C16.1719 5.58686 15.583 4.87527 15.0069 4.21112C14.4351 3.54697 13.8718 2.92163 13.3341 2.3998C12.7965 1.87365 12.2759 1.45533 11.8321 1.16638C11.3925 0.877427 10.9146 0.631605 10.4025 0.467723C9.89046 0.308154 9.33998 0.230526 8.82364 0.277965C8.30303 0.31678 7.83363 0.476348 7.44105 0.670419C7.05272 0.868802 6.73695 1.11031 6.48518 1.3432C6.22914 1.57608 6.03285 1.81328 5.87923 2.02891C5.80241 2.13673 5.73414 2.23592 5.67866 2.33511C5.61892 2.42999 5.57198 2.52056 5.53358 2.60681C5.45677 2.775 5.41409 2.91301 5.40129 3.02083C5.38849 3.12864 5.40556 3.20196 5.45677 3.24077L5.46103 3.24508Z" fill="#6A6A6A"/>
<path d="M11.1837 6.83334C11.1069 6.84628 11.0557 6.97997 11.0429 7.2258C11.0386 7.46731 11.0685 7.81663 11.2264 8.23496C11.2648 8.33847 11.3117 8.4506 11.3714 8.55841C11.4226 8.67054 11.4995 8.78267 11.572 8.8948C11.7299 9.11906 11.9347 9.34332 12.1908 9.53739C12.4468 9.73146 12.7498 9.89103 13.0783 9.99884C13.4069 10.1067 13.7611 10.1627 14.111 10.1714C14.4652 10.18 14.9218 10.1412 15.4211 10.0161C15.9203 9.89103 16.4666 9.68833 17.0085 9.39938C17.559 9.11043 18.0668 8.73954 18.5703 8.38159C19.0739 8.02364 19.5731 7.67 20.0937 7.40693C20.6101 7.13954 21.1478 6.96704 21.6598 6.90666C22.1719 6.84197 22.6669 6.87647 23.0894 6.8851C23.3027 6.89372 23.499 6.88941 23.6697 6.8851C23.8404 6.87647 23.9898 6.86353 24.1135 6.85059C24.3567 6.80747 24.4848 6.77297 24.4848 6.75572C24.4848 6.73846 24.3439 6.72984 24.1092 6.72553C23.9898 6.71259 23.8447 6.70396 23.6825 6.6824C23.5161 6.65652 23.3283 6.63065 23.1235 6.59615C22.7096 6.52714 22.2103 6.42795 21.63 6.43226C21.0539 6.43226 20.4223 6.56596 19.8206 6.80315C19.2147 7.03604 18.6471 7.3638 18.1095 7.67863C17.5718 7.99345 17.0554 8.30396 16.569 8.51529C16.0782 8.73523 15.6003 8.87324 15.1821 8.95518C14.7639 9.03712 14.4097 9.05437 14.1452 9.04574C13.616 9.03281 13.1552 8.90774 12.7924 8.68779C12.6089 8.57998 12.4511 8.44628 12.3102 8.30828C12.242 8.23496 12.1737 8.16596 12.1182 8.09264C12.0542 8.01933 12.003 7.94601 11.9518 7.8727C11.5421 7.27755 11.3586 6.79453 11.1922 6.82903L11.1837 6.83334Z" fill="#6A6A6A"/>
<path d="M8.32438 5.73799C8.96021 5.71642 9.49361 6.20807 9.51922 6.83341C9.54055 7.45874 9.04555 7.98489 8.40546 8.00645C7.76964 8.02802 7.23623 7.53637 7.21063 6.91103C7.18929 6.2857 7.68429 5.75955 8.32438 5.73799Z" fill="#6A6A6A"/>
<path d="M27.0618 5.15164C27.6336 5.13008 28.1115 5.56997 28.1329 6.13493C28.1542 6.69558 27.7061 7.16997 27.1343 7.18722C26.5625 7.20878 26.0846 6.76889 26.0632 6.20393C26.0419 5.63897 26.49 5.16889 27.0618 5.15164Z" fill="#6A6A6A"/>
<path d="M21.1731 9.99026C21.1774 10.042 21.2328 10.0851 21.331 10.1153C21.3779 10.1326 21.4377 10.1455 21.5059 10.1541C21.5742 10.1628 21.651 10.1671 21.7321 10.1714C22.0692 10.1757 22.5344 10.1024 23.0123 9.89969C23.247 9.79619 23.6225 9.5978 23.998 9.29592C24.3735 8.99834 24.7405 8.60157 25.0264 8.2005C25.099 8.1013 25.163 7.9978 25.227 7.89861C25.2569 7.84686 25.2867 7.79079 25.3166 7.73904C25.3465 7.68729 25.3678 7.63554 25.3934 7.58378C25.483 7.38109 25.547 7.19996 25.6068 7.04901C25.6623 6.89807 25.7135 6.77731 25.7519 6.69106C25.7903 6.60912 25.8116 6.55737 25.8031 6.54874C25.7945 6.54443 25.7519 6.57462 25.6836 6.64362C25.6153 6.71262 25.53 6.82044 25.4361 6.95845C25.3422 7.09645 25.2398 7.26033 25.1203 7.42853C25.0904 7.46734 25.0606 7.51047 25.0264 7.5536C24.9923 7.59241 24.9582 7.63122 24.924 7.67004C24.8472 7.74767 24.7704 7.83392 24.6851 7.91586C24.3522 8.23931 23.9724 8.54551 23.614 8.76114C23.2555 8.98109 22.9184 9.1191 22.7136 9.20966C22.3039 9.38217 21.9199 9.52449 21.634 9.64524C21.5614 9.67543 21.4974 9.70562 21.4419 9.73581C21.3865 9.76168 21.3353 9.79187 21.2968 9.81775C21.2158 9.87381 21.1731 9.92988 21.1816 9.98163L21.1731 9.99026Z" fill="#6A6A6A"/>
</g>
<defs>
<clipPath id="clip0_194_455">
<rect width="27.5239" height="13.1364" fill="white" transform="translate(0.609131 0.269531)"/>
</clipPath>
</defs>
</svg>
