<svg width="44" height="21" viewBox="0 0 44 21" fill="none" xmlns="http://www.w3.org/2000/svg">
<g clip-path="url(#clip0_194_171)">
<path d="M38.8087 4.99826C38.8633 4.88106 38.9656 4.79833 39.1293 4.76386C39.2862 4.72938 39.5045 4.75007 39.7433 4.86727C39.9821 4.98447 40.2413 5.21199 40.4118 5.54291C40.5892 5.86694 40.6711 6.2806 40.6233 6.67357C40.6097 6.87351 40.5414 7.1217 40.4187 7.39058C40.3027 7.65256 40.1253 7.92144 39.8934 8.16274C39.6683 8.40404 39.3954 8.61776 39.1021 8.78323C38.8087 8.94869 38.4949 9.06589 38.188 9.14862C37.881 9.22446 37.5876 9.25893 37.3148 9.26583C37.1783 9.26583 37.0556 9.26583 36.9328 9.25204C36.8168 9.23825 36.7076 9.23135 36.6053 9.21067C36.503 9.18999 36.4143 9.16931 36.3393 9.15552C36.2642 9.13483 36.196 9.11415 36.1414 9.09347C36.0323 9.0521 35.9777 9.01763 35.9777 8.98316C35.9777 8.95558 36.0391 8.92111 36.1414 8.88664C36.2574 8.84527 36.4007 8.79701 36.5644 8.74186C36.6531 8.71428 36.7418 8.67292 36.8373 8.63845C36.9328 8.59708 37.0351 8.55571 37.1374 8.50745C37.3421 8.41093 37.5467 8.28684 37.7377 8.15585C37.9287 8.01796 38.0993 7.85939 38.2425 7.69393C38.3858 7.52847 38.4949 7.35611 38.57 7.19754C38.645 7.03897 38.6928 6.89419 38.7132 6.77009C38.72 6.74252 38.72 6.71494 38.7269 6.68736C38.7269 6.65979 38.7337 6.63221 38.7337 6.61153C38.7337 6.59084 38.7337 6.56327 38.7405 6.54948C38.7405 6.52879 38.7405 6.51501 38.7405 6.49432C38.7542 6.36333 38.7678 6.25302 38.7746 6.14961C38.7814 6.04619 38.7883 5.9221 38.7746 5.798C38.7542 5.53602 38.6655 5.24646 38.7746 5.01205L38.8087 4.99826Z" fill="white"/>
<path d="M40.835 9.07278C39.1569 9.73463 36.8375 9.84494 36.5306 9.85873C36.5101 9.85873 36.4964 9.87251 36.4964 9.8863L35.671 10.555C35.5619 10.6447 35.555 10.8101 35.6574 10.9067L36.435 11.6306C36.435 11.6306 36.4487 11.6581 36.4692 11.6581C36.7761 11.6926 38.9045 11.927 40.7054 12.7336C40.7191 12.7336 43.3932 11.3824 43.9526 11.079C44.0071 11.0514 44.014 10.9825 43.9526 10.948C43.4137 10.6033 40.8419 9.06588 40.8282 9.07278H40.835Z" fill="white"/>
<path d="M38.3925 16.753C38.4403 16.8702 38.5358 16.9598 38.6995 17.0081C38.8564 17.0563 39.0747 17.0495 39.3203 16.946C39.5659 16.8495 39.8387 16.6358 40.0366 16.3187C40.2344 16.0084 40.3436 15.6017 40.3299 15.2018C40.3299 15.0019 40.2753 14.7468 40.1798 14.4779C40.0775 14.209 39.9206 13.9263 39.716 13.6713C39.5045 13.4162 39.2521 13.1818 38.9656 13.0025C38.6859 12.8164 38.3789 12.6785 38.0787 12.5751C37.7786 12.4785 37.4853 12.4234 37.2192 12.4027C37.0828 12.3958 36.96 12.3889 36.844 12.3889C36.7281 12.3889 36.6189 12.3958 36.5166 12.4096C36.4143 12.4234 36.3256 12.4372 36.2505 12.451C36.1687 12.4648 36.1073 12.4854 36.0527 12.4992C35.9436 12.5337 35.8822 12.5682 35.8822 12.5957C35.8822 12.6233 35.9367 12.6578 36.0391 12.7061C36.155 12.7543 36.2915 12.8164 36.4484 12.8784C36.5302 12.9129 36.6189 12.9611 36.7144 13.0025C36.8099 13.0508 36.9054 13.099 37.0009 13.1542C37.1919 13.2645 37.3898 13.4024 37.5739 13.5472C37.7513 13.6988 37.915 13.8643 38.0446 14.0435C38.1743 14.2159 38.2698 14.3952 38.338 14.5606C38.4062 14.7261 38.4335 14.8778 38.4471 14.995C38.4539 15.0225 38.4471 15.057 38.4539 15.0777C38.4539 15.1053 38.4539 15.1328 38.4539 15.1535C38.4539 15.1742 38.4539 15.2018 38.4539 15.2156C38.4539 15.2363 38.4539 15.25 38.4539 15.2707C38.4539 15.4017 38.4608 15.512 38.4608 15.6223C38.4608 15.7326 38.4608 15.8498 38.4403 15.9739C38.4062 16.229 38.297 16.5186 38.3925 16.7599V16.753Z" fill="white"/>
<path d="M35.8211 16.6498C35.8961 16.7118 35.9166 16.8359 35.8824 17.0014C35.8483 17.1737 35.7665 17.3875 35.6232 17.6494C35.555 17.7804 35.4663 17.9183 35.364 18.0631C35.2617 18.2148 35.1457 18.3664 35.0093 18.5319C34.7364 18.8559 34.4021 19.2075 33.9655 19.5592C33.5358 19.9039 33.0037 20.2486 32.3624 20.5244C31.7212 20.7932 30.9504 20.9932 30.1181 21.0001C29.2859 21.0207 28.4195 20.8415 27.6214 20.5244C26.8232 20.2072 26.0865 19.766 25.418 19.2558C24.7494 18.7525 23.9649 18.0217 23.16 17.1255C22.355 16.2292 21.5364 15.1744 20.6905 14.0506C19.8514 12.9269 18.9851 11.7341 18.0642 10.6104C17.8322 10.3346 17.5935 10.0588 17.3547 9.79685C17.2319 9.66585 17.1091 9.53486 16.9863 9.41076C16.9249 9.34182 16.8635 9.28667 16.8021 9.23151C16.7407 9.17636 16.6862 9.1212 16.6248 9.06605C16.1268 8.6386 15.5538 8.25942 14.9398 7.97675C14.3259 7.68719 13.6778 7.47347 13.0297 7.34248C12.3817 7.20459 11.7268 7.13565 11.0992 7.13565C9.844 7.13565 8.69795 7.39074 7.79749 7.77682C7.34043 7.96296 6.9516 8.18358 6.61733 8.3973C6.28307 8.61103 6.01702 8.83164 5.79191 9.0109C5.58043 9.20394 5.40989 9.34872 5.30074 9.45903C5.18477 9.56244 5.11656 9.61759 5.09609 9.60381C5.08245 9.59002 5.10973 9.51418 5.18477 9.37629C5.25299 9.23151 5.3826 9.04537 5.55315 8.79717C5.73733 8.56277 5.96927 8.2801 6.28989 7.99744C6.60369 7.70788 6.9857 7.40453 7.44958 7.12876C8.37051 6.57032 9.60524 6.1153 11.0173 5.94294C11.72 5.85331 12.4704 5.84642 13.2412 5.92226C14.0121 5.9912 14.7966 6.15666 15.5742 6.42554C16.3519 6.68752 17.1159 7.0736 17.8186 7.57688C17.9073 7.63893 17.9891 7.70788 18.0778 7.76992C18.1665 7.83887 18.2483 7.90092 18.3234 7.96986C18.4803 8.10085 18.6304 8.23184 18.7873 8.36973C19.0874 8.6386 19.3739 8.91438 19.6536 9.19704C20.7655 10.3139 21.7411 11.4584 22.6552 12.4994C23.5693 13.5473 24.4152 14.4919 25.186 15.2571C25.95 16.0293 26.6322 16.6084 27.1575 17.0083C27.6828 17.4081 28.208 17.7322 28.7128 17.9666C29.2245 18.1941 29.7088 18.3389 30.1863 18.3871C30.6638 18.4423 31.1277 18.394 31.5848 18.2975C32.035 18.1941 32.4716 18.0355 32.8741 17.8632C33.2766 17.6908 33.6449 17.4978 33.9655 17.3185C34.1293 17.2289 34.2862 17.1462 34.4294 17.0703C34.5659 17.0014 34.7023 16.9255 34.8319 16.8566C35.3299 16.6084 35.671 16.505 35.8211 16.636V16.6498Z" fill="white"/>
<path d="M27.1022 10.2932C26.8362 10.3276 26.5906 9.54168 26.0039 8.54201C25.9289 8.41791 25.8538 8.29381 25.7583 8.16972C25.6765 8.03873 25.5741 7.92842 25.4718 7.80432C25.2603 7.56991 25.0216 7.3424 24.7419 7.14936C24.1893 6.75639 23.4662 6.50819 22.6272 6.42546C22.211 6.3841 21.638 6.3772 20.9627 6.45993C20.2873 6.54266 19.5096 6.72192 18.6979 7.01148C17.8997 7.29414 17.0402 7.73538 16.1465 8.17661C15.2529 8.61785 14.3115 9.08666 13.3224 9.39001C12.3332 9.70025 11.3168 9.84503 10.389 9.78298C9.46127 9.72783 8.67677 9.5141 8.02189 9.35553C7.69445 9.2728 7.40111 9.21075 7.13507 9.1556C6.87584 9.10734 6.64391 9.07287 6.45972 9.0384C6.08453 9.00393 5.86623 8.96945 5.86623 8.94188C5.86623 8.9143 6.0777 8.87983 6.46654 8.83846C6.65755 8.83846 6.90313 8.82467 7.176 8.83846C7.44887 8.85225 7.76266 8.87293 8.09693 8.90741C8.77228 8.96945 9.5636 9.07976 10.3822 9.0315C11.2076 8.99014 12.0876 8.76952 12.9403 8.39723C13.7931 8.03873 14.6321 7.52165 15.478 7.00458C16.3239 6.48751 17.1698 5.95665 18.0839 5.54989C18.9775 5.15002 19.8712 4.88114 20.683 4.73636C21.4948 4.59158 22.2315 4.57779 22.7909 4.63295C23.3503 4.6881 23.9096 4.8122 24.4213 5.01903C24.9329 5.22586 25.4036 5.51542 25.7856 5.85324C26.1676 6.19106 26.4678 6.57024 26.6997 6.94943C26.8089 7.14247 26.9112 7.32172 26.9794 7.50787C27.0613 7.68712 27.1227 7.86637 27.1704 8.03873C27.3682 8.72815 27.3819 9.28659 27.3478 9.66578C27.3 10.0519 27.2045 10.2587 27.0817 10.2725L27.1022 10.2932Z" fill="white"/>
<path d="M11.5352 4.04C11.5352 4.12273 11.4669 4.20546 11.3305 4.28819C11.2623 4.32956 11.1804 4.37093 11.0849 4.4054C10.9894 4.44676 10.8871 4.48813 10.7643 4.5295C10.2936 4.69496 9.66601 4.87421 8.99066 5.10862C8.6564 5.22582 8.10384 5.41886 7.51035 5.7291C6.91004 6.03245 6.2688 6.48058 5.70942 6.96318C5.56616 7.08038 5.43655 7.21137 5.30012 7.32858C5.23872 7.39062 5.18415 7.44578 5.12275 7.50783C5.06818 7.56988 5.01361 7.63192 4.95903 7.69397C4.74756 7.94906 4.56337 8.19726 4.39965 8.40408C4.23593 8.61091 4.07903 8.77638 3.96988 8.87979C3.84709 8.98321 3.77888 9.02457 3.76523 9.01768C3.75159 9.00389 3.79252 8.92805 3.86074 8.80395C3.92895 8.67296 4.02446 8.48682 4.13361 8.25241C4.24275 8.01801 4.36554 7.73534 4.53609 7.4182C4.58384 7.34236 4.62477 7.25963 4.67252 7.1838C4.72709 7.10796 4.78167 7.01833 4.83624 6.9425C4.95221 6.79772 5.06136 6.63915 5.19097 6.48747C5.69578 5.88078 6.31655 5.28097 6.95097 4.85353C7.57857 4.41919 8.19934 4.13652 8.58818 3.99864C9.37268 3.72976 10.1299 3.66081 10.662 3.70907C10.7984 3.72286 10.9144 3.73665 11.0235 3.75733C11.1327 3.78491 11.2214 3.81249 11.2964 3.84007C11.4465 3.90212 11.5283 3.97795 11.5283 4.06068L11.5352 4.04Z" fill="white"/>
<path d="M36.2437 4.75704C36.0868 4.88114 35.7525 4.75704 35.275 4.46748C35.1454 4.39164 35.0158 4.30891 34.8862 4.23307C34.7497 4.14345 34.5997 4.05382 34.4428 3.95041C34.129 3.75047 33.7811 3.53675 33.3922 3.32992C33.0034 3.12999 32.5804 2.93695 32.137 2.80596C31.6936 2.68186 31.2297 2.59913 30.7522 2.61981C30.2747 2.6336 29.7767 2.74391 29.2514 2.93695C28.7262 3.13688 28.1804 3.42644 27.6347 3.79184C27.0821 4.15034 26.359 4.6881 25.5473 5.4051C24.7286 6.11521 23.8145 7.00458 22.8322 7.98357C21.8431 8.96255 20.7925 10.0381 19.6055 11.0791C19.3054 11.3411 19.0052 11.5962 18.6846 11.8444C18.5209 11.9685 18.364 12.0926 18.1935 12.2098C18.1116 12.2718 18.0229 12.327 17.9342 12.389C17.8455 12.4511 17.7569 12.5131 17.6614 12.5683C16.9246 13.0164 16.1333 13.3542 15.342 13.561C14.5507 13.7817 13.7457 13.892 12.9748 13.9058C12.204 13.9264 11.4536 13.8713 10.7578 13.7334C9.35934 13.4714 8.15872 12.9268 7.27872 12.3063C6.83531 11.996 6.46694 11.672 6.18043 11.3549C5.8871 11.0446 5.6688 10.7482 5.50508 10.5C5.34818 10.2449 5.23903 10.045 5.17764 9.89328C5.11624 9.7485 5.09578 9.66577 5.11624 9.65888C5.13671 9.65198 5.1981 9.70714 5.30043 9.81745C5.40275 9.93465 5.55965 10.1001 5.75066 10.3C5.95531 10.5 6.20772 10.7413 6.52834 10.9757C6.84213 11.217 7.22415 11.4652 7.66074 11.6789C8.53392 12.1201 9.6595 12.4649 10.9147 12.5476C11.5423 12.5958 12.1972 12.5683 12.8589 12.4786C13.5206 12.389 14.1823 12.2236 14.8167 11.9754C15.4511 11.7341 16.0446 11.3962 16.5767 11.0033C16.6449 10.955 16.7063 10.8998 16.7677 10.8447C16.8291 10.7964 16.8973 10.7413 16.9587 10.6792C17.0883 10.562 17.2248 10.4448 17.3544 10.3207C17.6136 10.0725 17.866 9.81745 18.1184 9.55546C19.1212 8.50064 20.0626 7.36308 20.9835 6.30136C21.8976 5.23964 22.7981 4.23997 23.6576 3.40576C24.5172 2.56465 25.3494 1.89591 26.0589 1.43399C26.7615 0.972074 27.5255 0.5791 28.3442 0.317117C29.1628 0.0620286 30.0428 -0.0620686 30.8682 0.0137686C31.7004 0.0758172 32.4508 0.330906 33.0784 0.641149C33.6992 0.958286 34.204 1.34437 34.6065 1.71666C35.0158 2.08895 35.3296 2.46813 35.5752 2.81285C35.6979 2.98521 35.8071 3.14378 35.8958 3.30234C35.9913 3.45402 36.0663 3.5988 36.1277 3.73668C36.2505 4.00556 36.3187 4.22618 36.3392 4.39854C36.3597 4.57089 36.3324 4.6881 36.2505 4.75014L36.2437 4.75704Z" fill="white"/>
<path d="M27.0956 10.4932C27.2184 10.5139 27.3002 10.7276 27.3207 11.1206C27.3275 11.5067 27.2798 12.0651 27.0273 12.7338C26.966 12.8993 26.8909 13.0786 26.7954 13.2509C26.7136 13.4302 26.5908 13.6094 26.4748 13.7887C26.2224 14.1472 25.8949 14.5057 25.4856 14.8159C25.0763 15.1262 24.592 15.3812 24.0667 15.5536C23.5415 15.726 22.9753 15.8156 22.4159 15.8294C21.8497 15.8432 21.1198 15.7811 20.3216 15.5812C19.5235 15.3812 18.6503 15.0572 17.7839 14.5953C16.9039 14.1334 16.0922 13.5405 15.2872 12.9682C14.4822 12.396 13.6841 11.8307 12.8518 11.4101C12.0264 10.9827 11.1669 10.7069 10.3483 10.6104C9.52967 10.507 8.73836 10.5621 8.06301 10.5759C7.72192 10.5897 7.40812 10.5828 7.13526 10.5759C6.86239 10.5621 6.62363 10.5415 6.4258 10.5208C6.03696 10.4518 5.83231 10.3967 5.83231 10.3691C5.83231 10.3415 6.05743 10.3277 6.43262 10.3208C6.62363 10.3002 6.85557 10.2864 7.11479 10.2519C7.38084 10.2105 7.68099 10.1692 8.00844 10.114C8.67014 10.0037 9.46828 9.84513 10.396 9.85202C11.317 9.85202 12.3266 10.0657 13.2884 10.4449C14.2571 10.8172 15.1644 11.3412 16.0239 11.8445C16.8835 12.3478 17.7089 12.8441 18.4866 13.182C19.2711 13.5336 20.0351 13.7542 20.7036 13.8852C21.3722 14.0162 21.9384 14.0438 22.3613 14.03C23.2072 14.0093 23.9439 13.8093 24.5238 13.4577C24.8171 13.2854 25.0695 13.0717 25.2946 12.851C25.4038 12.7338 25.5129 12.6235 25.6016 12.5063C25.7039 12.3891 25.7858 12.2719 25.8677 12.1547C26.5225 11.2033 26.8159 10.4311 27.0819 10.4863L27.0956 10.4932Z" fill="white"/>
<path d="M31.6667 8.74206C30.6503 8.70759 29.7976 9.49354 29.7566 10.4932C29.7225 11.4929 30.5138 12.334 31.5371 12.3685C32.5535 12.4029 33.4062 11.617 33.4472 10.6173C33.4813 9.61763 32.69 8.77653 31.6667 8.74206V8.74206Z" fill="white"/>
<path d="M1.71212 7.80444C0.798013 7.76997 0.0339832 8.47318 -0.000125308 9.37634C-0.0342338 10.2726 0.682045 11.031 1.59615 11.0585C2.51026 11.093 3.27429 10.3898 3.3084 9.48664C3.34251 8.58349 2.62623 7.83201 1.71212 7.80444V7.80444Z" fill="white"/>
<path d="M11.126 15.5396C11.1192 15.6224 11.0305 15.6913 10.8736 15.7396C10.7985 15.7672 10.703 15.7878 10.5939 15.8016C10.4847 15.8154 10.3619 15.8223 10.2323 15.8292C9.69342 15.8361 8.94985 15.7189 8.18582 15.3949C7.81063 15.2294 7.21032 14.9123 6.61001 14.4297C6.0097 13.954 5.42303 13.3197 4.96597 12.6785C4.85001 12.5199 4.74768 12.3545 4.64536 12.1959C4.5976 12.1132 4.54985 12.0236 4.5021 11.9408C4.45435 11.8581 4.42024 11.7754 4.37931 11.6926C4.23605 11.3686 4.13373 11.079 4.03822 10.8377C3.94954 10.5964 3.86768 10.4034 3.80629 10.2655C3.74489 10.1345 3.71078 10.0518 3.72442 10.038C3.73807 10.0311 3.80629 10.0794 3.91543 10.1897C4.02458 10.3 4.16101 10.4723 4.31109 10.693C4.46117 10.9136 4.62489 11.1756 4.8159 11.4444C4.86365 11.5065 4.9114 11.5754 4.96597 11.6444C5.02055 11.7064 5.07512 11.7685 5.1297 11.8305C5.25249 11.9546 5.37528 12.0925 5.51171 12.2235C6.04381 12.7406 6.65094 13.2301 7.22396 13.5748C7.79698 13.9264 8.3359 14.147 8.66334 14.2918C9.31822 14.5675 9.93218 14.7951 10.3892 14.9881C10.5052 15.0364 10.6075 15.0846 10.6962 15.1329C10.7849 15.1742 10.8668 15.2225 10.9281 15.2639C11.0578 15.3535 11.126 15.4431 11.1123 15.5259L11.126 15.5396Z" fill="white"/>
</g>
<defs>
<clipPath id="clip0_194_171">
<rect width="44" height="21" fill="white" transform="matrix(-1 0 0 1 44 0)"/>
</clipPath>
</defs>
</svg>
