<svg width="44" height="21" viewBox="0 0 44 21" fill="none" xmlns="http://www.w3.org/2000/svg">
<g clip-path="url(#clip0_194_159)">
<path d="M5.19127 4.99826C5.1367 4.88106 5.03437 4.79833 4.87065 4.76386C4.71375 4.72938 4.49546 4.75007 4.2567 4.86727C4.01794 4.98447 3.75871 5.21199 3.58817 5.54291C3.41081 5.86694 3.32895 6.2806 3.3767 6.67357C3.39034 6.87351 3.45856 7.1217 3.58135 7.39058C3.69732 7.65256 3.87468 7.92144 4.10662 8.16274C4.33174 8.40404 4.6046 8.61776 4.89794 8.78323C5.19127 8.94869 5.50507 9.06589 5.81205 9.14862C6.11902 9.22446 6.41236 9.25893 6.68522 9.26583C6.82166 9.26583 6.94445 9.26583 7.06724 9.25204C7.18321 9.23825 7.29236 9.23135 7.39468 9.21067C7.49701 9.18999 7.58569 9.16931 7.66073 9.15552C7.73577 9.13483 7.80398 9.11415 7.85856 9.09347C7.96771 9.0521 8.02228 9.01763 8.02228 8.98316C8.02228 8.95558 7.96088 8.92111 7.85856 8.88664C7.74259 8.84527 7.59933 8.79701 7.43561 8.74186C7.34693 8.71428 7.25825 8.67292 7.16274 8.63845C7.06724 8.59708 6.96491 8.55571 6.86259 8.50745C6.65794 8.41093 6.45329 8.28684 6.26228 8.15585C6.07127 8.01796 5.90073 7.85939 5.75747 7.69393C5.61422 7.52847 5.50507 7.35611 5.43003 7.19754C5.35499 7.03897 5.30724 6.89419 5.28677 6.77009C5.27995 6.74252 5.27995 6.71494 5.27313 6.68736C5.27313 6.65979 5.26631 6.63221 5.26631 6.61153C5.26631 6.59084 5.26631 6.56327 5.25949 6.54948C5.25949 6.52879 5.25949 6.51501 5.25949 6.49432C5.24584 6.36333 5.2322 6.25302 5.22538 6.14961C5.21856 6.04619 5.21174 5.9221 5.22538 5.798C5.24584 5.53602 5.33453 5.24646 5.22538 5.01205L5.19127 4.99826Z" fill="white"/>
<path d="M3.16495 9.07278C4.84309 9.73463 7.16247 9.84494 7.46945 9.85873C7.48991 9.85873 7.50356 9.87251 7.50356 9.8863L8.32898 10.555C8.43813 10.6447 8.44495 10.8101 8.34263 10.9067L7.56495 11.6306C7.56495 11.6306 7.55131 11.6581 7.53084 11.6581C7.22387 11.6926 5.09549 11.927 3.29456 12.7336C3.28092 12.7336 0.606812 11.3824 0.0474322 11.079C-0.00714147 11.0514 -0.0139632 10.9825 0.0474322 10.948C0.586347 10.6033 3.15813 9.06588 3.17177 9.07278H3.16495Z" fill="white"/>
<path d="M5.60745 16.753C5.5597 16.8702 5.4642 16.9598 5.30048 17.0081C5.14358 17.0563 4.92528 17.0495 4.6797 16.946C4.43412 16.8495 4.16125 16.6358 3.96342 16.3187C3.76559 16.0084 3.65644 15.6017 3.67009 15.2018C3.67009 15.0019 3.72466 14.7468 3.82017 14.4779C3.92249 14.209 4.07939 13.9263 4.28404 13.6713C4.49551 13.4162 4.74792 13.1818 5.03443 13.0025C5.31412 12.8164 5.6211 12.6785 5.92125 12.5751C6.22141 12.4785 6.51474 12.4234 6.78079 12.4027C6.91722 12.3958 7.04001 12.3889 7.15598 12.3889C7.27195 12.3889 7.3811 12.3958 7.48342 12.4096C7.58575 12.4234 7.67443 12.4372 7.74947 12.451C7.83133 12.4648 7.89272 12.4854 7.9473 12.4992C8.05644 12.5337 8.11784 12.5682 8.11784 12.5957C8.11784 12.6233 8.06327 12.6578 7.96094 12.7061C7.84497 12.7543 7.70854 12.8164 7.55164 12.8784C7.46978 12.9129 7.3811 12.9611 7.28559 13.0025C7.19009 13.0508 7.09458 13.099 6.99908 13.1542C6.80807 13.2645 6.61024 13.4024 6.42606 13.5472C6.24869 13.6988 6.08497 13.8643 5.95536 14.0435C5.82575 14.2159 5.73024 14.3952 5.66203 14.5606C5.59381 14.7261 5.56652 14.8778 5.55288 14.995C5.54606 15.0225 5.55288 15.057 5.54606 15.0777C5.54606 15.1053 5.54606 15.1328 5.54606 15.1535C5.54606 15.1742 5.54606 15.2018 5.54606 15.2156C5.54606 15.2363 5.54606 15.25 5.54606 15.2707C5.54606 15.4017 5.53924 15.512 5.53924 15.6223C5.53924 15.7326 5.53924 15.8498 5.5597 15.9739C5.59381 16.229 5.70296 16.5186 5.60745 16.7599V16.753Z" fill="white"/>
<path d="M8.17895 16.6498C8.10391 16.7118 8.08344 16.8359 8.11755 17.0014C8.15166 17.1737 8.23352 17.3875 8.37678 17.6494C8.44499 17.7804 8.53368 17.9183 8.636 18.0631C8.73833 18.2148 8.8543 18.3664 8.99073 18.5319C9.2636 18.8559 9.59786 19.2075 10.0345 19.5592C10.4642 19.9039 10.9963 20.2486 11.6376 20.5244C12.2788 20.7932 13.0496 20.9932 13.8819 21.0001C14.7141 21.0207 15.5805 20.8415 16.3786 20.5244C17.1768 20.2072 17.9135 19.766 18.582 19.2558C19.2506 18.7525 20.0351 18.0217 20.84 17.1255C21.645 16.2292 22.4636 15.1744 23.3095 14.0506C24.1486 12.9269 25.0149 11.7341 25.9358 10.6104C26.1678 10.3346 26.4065 10.0588 26.6453 9.79685C26.7681 9.66585 26.8909 9.53486 27.0137 9.41076C27.0751 9.34182 27.1365 9.28667 27.1979 9.23151C27.2593 9.17636 27.3138 9.1212 27.3752 9.06605C27.8732 8.6386 28.4462 8.25942 29.0602 7.97675C29.6741 7.68719 30.3222 7.47347 30.9703 7.34248C31.6183 7.20459 32.2732 7.13565 32.9008 7.13565C34.156 7.13565 35.302 7.39074 36.2025 7.77682C36.6596 7.96296 37.0484 8.18358 37.3827 8.3973C37.7169 8.61103 37.983 8.83164 38.2081 9.0109C38.4196 9.20394 38.5901 9.34872 38.6993 9.45903C38.8152 9.56244 38.8834 9.61759 38.9039 9.60381C38.9176 9.59002 38.8903 9.51418 38.8152 9.37629C38.747 9.23151 38.6174 9.04537 38.4469 8.79717C38.2627 8.56277 38.0307 8.2801 37.7101 7.99744C37.3963 7.70788 37.0143 7.40453 36.5504 7.12876C35.6295 6.57032 34.3948 6.1153 32.9827 5.94294C32.28 5.85331 31.5296 5.84642 30.7588 5.92226C29.9879 5.9912 29.2034 6.15666 28.4258 6.42554C27.6481 6.68752 26.8841 7.0736 26.1814 7.57688C26.0927 7.63893 26.0109 7.70788 25.9222 7.76992C25.8335 7.83887 25.7517 7.90092 25.6766 7.96986C25.5197 8.10085 25.3696 8.23184 25.2127 8.36973C24.9126 8.6386 24.6261 8.91438 24.3464 9.19704C23.2345 10.3139 22.2589 11.4584 21.3448 12.4994C20.4307 13.5473 19.5848 14.4919 18.814 15.2571C18.05 16.0293 17.3678 16.6084 16.8425 17.0083C16.3172 17.4081 15.792 17.7322 15.2872 17.9666C14.7755 18.1941 14.2912 18.3389 13.8137 18.3871C13.3362 18.4423 12.8723 18.394 12.4152 18.2975C11.965 18.1941 11.5284 18.0355 11.1259 17.8632C10.7234 17.6908 10.3551 17.4978 10.0345 17.3185C9.87073 17.2289 9.71383 17.1462 9.57057 17.0703C9.43414 17.0014 9.29771 16.9255 9.16809 16.8566C8.67011 16.6084 8.32902 16.505 8.17895 16.636V16.6498Z" fill="white"/>
<path d="M16.8978 10.2932C17.1638 10.3276 17.4094 9.54168 17.9961 8.54201C18.0711 8.41791 18.1462 8.29381 18.2417 8.16972C18.3235 8.03873 18.4259 7.92842 18.5282 7.80432C18.7397 7.56991 18.9784 7.3424 19.2581 7.14936C19.8107 6.75639 20.5338 6.50819 21.3728 6.42546C21.789 6.3841 22.362 6.3772 23.0373 6.45993C23.7127 6.54266 24.4904 6.72192 25.3021 7.01148C26.1003 7.29414 26.9598 7.73538 27.8535 8.17661C28.7471 8.61785 29.6885 9.08666 30.6776 9.39001C31.6668 9.70025 32.6832 9.84503 33.611 9.78298C34.5387 9.72783 35.3232 9.5141 35.9781 9.35553C36.3056 9.2728 36.5989 9.21075 36.8649 9.1556C37.1242 9.10734 37.3561 9.07287 37.5403 9.0384C37.9155 9.00393 38.1338 8.96945 38.1338 8.94188C38.1338 8.9143 37.9223 8.87983 37.5335 8.83846C37.3425 8.83846 37.0969 8.82467 36.824 8.83846C36.5511 8.85225 36.2373 8.87293 35.9031 8.90741C35.2277 8.96945 34.4364 9.07976 33.6178 9.0315C32.7924 8.99014 31.9124 8.76952 31.0597 8.39723C30.2069 8.03873 29.3679 7.52165 28.522 7.00458C27.6761 6.48751 26.8302 5.95665 25.9161 5.54989C25.0225 5.15002 24.1288 4.88114 23.317 4.73636C22.5052 4.59158 21.7685 4.57779 21.2091 4.63295C20.6497 4.6881 20.0904 4.8122 19.5787 5.01903C19.0671 5.22586 18.5964 5.51542 18.2144 5.85324C17.8324 6.19106 17.5322 6.57024 17.3003 6.94943C17.1911 7.14247 17.0888 7.32172 17.0206 7.50787C16.9387 7.68712 16.8773 7.86637 16.8296 8.03873C16.6318 8.72815 16.6181 9.28659 16.6522 9.66578C16.7 10.0519 16.7955 10.2587 16.9183 10.2725L16.8978 10.2932Z" fill="white"/>
<path d="M32.4648 4.04C32.4648 4.12273 32.5331 4.20546 32.6695 4.28819C32.7377 4.32956 32.8196 4.37093 32.9151 4.4054C33.0106 4.44676 33.1129 4.48813 33.2357 4.5295C33.7064 4.69496 34.334 4.87421 35.0093 5.10862C35.3436 5.22582 35.8962 5.41886 36.4897 5.7291C37.09 6.03245 37.7312 6.48058 38.2906 6.96318C38.4338 7.08038 38.5634 7.21137 38.6999 7.32858C38.7613 7.39062 38.8159 7.44578 38.8772 7.50783C38.9318 7.56988 38.9864 7.63192 39.041 7.69397C39.2524 7.94906 39.4366 8.19726 39.6003 8.40408C39.7641 8.61091 39.921 8.77638 40.0301 8.87979C40.1529 8.98321 40.2211 9.02457 40.2348 9.01768C40.2484 9.00389 40.2075 8.92805 40.1393 8.80395C40.071 8.67296 39.9755 8.48682 39.8664 8.25241C39.7572 8.01801 39.6345 7.73534 39.4639 7.4182C39.4162 7.34236 39.3752 7.25963 39.3275 7.1838C39.2729 7.10796 39.2183 7.01833 39.1638 6.9425C39.0478 6.79772 38.9386 6.63915 38.809 6.48747C38.3042 5.88078 37.6834 5.28097 37.049 4.85353C36.4214 4.41919 35.8007 4.13652 35.4118 3.99864C34.6273 3.72976 33.8701 3.66081 33.338 3.70907C33.2016 3.72286 33.0856 3.73665 32.9765 3.75733C32.8673 3.78491 32.7786 3.81249 32.7036 3.84007C32.5535 3.90212 32.4717 3.97795 32.4717 4.06068L32.4648 4.04Z" fill="white"/>
<path d="M7.75631 4.75704C7.91321 4.88114 8.24748 4.75704 8.725 4.46748C8.85461 4.39164 8.98422 4.30891 9.11383 4.23307C9.25027 4.14345 9.40034 4.05382 9.55724 3.95041C9.87104 3.75047 10.2189 3.53675 10.6078 3.32992C10.9966 3.12999 11.4196 2.93695 11.863 2.80596C12.3064 2.68186 12.7703 2.59913 13.2478 2.61981C13.7253 2.6336 14.2233 2.74391 14.7486 2.93695C15.2738 3.13688 15.8196 3.42644 16.3653 3.79184C16.9179 4.15034 17.641 4.6881 18.4527 5.4051C19.2714 6.11521 20.1855 7.00458 21.1678 7.98357C22.1569 8.96255 23.2075 10.0381 24.3945 11.0791C24.6946 11.3411 24.9948 11.5962 25.3154 11.8444C25.4791 11.9685 25.636 12.0926 25.8065 12.2098C25.8884 12.2718 25.9771 12.327 26.0658 12.389C26.1545 12.4511 26.2431 12.5131 26.3386 12.5683C27.0754 13.0164 27.8667 13.3542 28.658 13.561C29.4493 13.7817 30.2543 13.892 31.0252 13.9058C31.796 13.9264 32.5464 13.8713 33.2422 13.7334C34.6407 13.4714 35.8413 12.9268 36.7213 12.3063C37.1647 11.996 37.5331 11.672 37.8196 11.3549C38.1129 11.0446 38.3312 10.7482 38.4949 10.5C38.6518 10.2449 38.761 10.045 38.8224 9.89328C38.8838 9.7485 38.9042 9.66577 38.8838 9.65888C38.8633 9.65198 38.8019 9.70714 38.6996 9.81745C38.5972 9.93465 38.4403 10.1001 38.2493 10.3C38.0447 10.5 37.7923 10.7413 37.4717 10.9757C37.1579 11.217 36.7759 11.4652 36.3393 11.6789C35.4661 12.1201 34.3405 12.4649 33.0853 12.5476C32.4577 12.5958 31.8028 12.5683 31.1411 12.4786C30.4794 12.389 29.8177 12.2236 29.1833 11.9754C28.5489 11.7341 27.9554 11.3962 27.4233 11.0033C27.3551 10.955 27.2937 10.8998 27.2323 10.8447C27.1709 10.7964 27.1027 10.7413 27.0413 10.6792C26.9117 10.562 26.7752 10.4448 26.6456 10.3207C26.3864 10.0725 26.134 9.81745 25.8816 9.55546C24.8788 8.50064 23.9374 7.36308 23.0165 6.30136C22.1024 5.23964 21.2019 4.23997 20.3424 3.40576C19.4828 2.56465 18.6506 1.89591 17.9411 1.43399C17.2385 0.972074 16.4745 0.5791 15.6558 0.317117C14.8372 0.0620286 13.9572 -0.0620686 13.1318 0.0137686C12.2996 0.0758172 11.5492 0.330906 10.9216 0.641149C10.3008 0.958286 9.796 1.34437 9.39352 1.71666C8.98422 2.08895 8.67042 2.46813 8.42484 2.81285C8.30205 2.98521 8.1929 3.14378 8.10422 3.30234C8.00872 3.45402 7.93368 3.5988 7.87228 3.73668C7.74949 4.00556 7.68127 4.22618 7.66081 4.39854C7.64034 4.57089 7.66763 4.6881 7.74949 4.75014L7.75631 4.75704Z" fill="white"/>
<path d="M16.9044 10.4932C16.7816 10.5139 16.6998 10.7276 16.6793 11.1206C16.6725 11.5067 16.7202 12.0651 16.9727 12.7338C17.034 12.8993 17.1091 13.0786 17.2046 13.2509C17.2864 13.4302 17.4092 13.6094 17.5252 13.7887C17.7776 14.1472 18.1051 14.5057 18.5144 14.8159C18.9237 15.1262 19.408 15.3812 19.9333 15.5536C20.4585 15.726 21.0247 15.8156 21.5841 15.8294C22.1503 15.8432 22.8802 15.7811 23.6784 15.5812C24.4765 15.3812 25.3497 15.0572 26.2161 14.5953C27.0961 14.1334 27.9078 13.5405 28.7128 12.9682C29.5178 12.396 30.3159 11.8307 31.1482 11.4101C31.9736 10.9827 32.8331 10.7069 33.6517 10.6104C34.4703 10.507 35.2616 10.5621 35.937 10.5759C36.2781 10.5897 36.5919 10.5828 36.8647 10.5759C37.1376 10.5621 37.3764 10.5415 37.5742 10.5208C37.963 10.4518 38.1677 10.3967 38.1677 10.3691C38.1677 10.3415 37.9426 10.3277 37.5674 10.3208C37.3764 10.3002 37.1444 10.2864 36.8852 10.2519C36.6192 10.2105 36.319 10.1692 35.9916 10.114C35.3299 10.0037 34.5317 9.84513 33.604 9.85202C32.683 9.85202 31.6734 10.0657 30.7116 10.4449C29.7429 10.8172 28.8356 11.3412 27.9761 11.8445C27.1165 12.3478 26.2911 12.8441 25.5134 13.182C24.7289 13.5336 23.9649 13.7542 23.2964 13.8852C22.6278 14.0162 22.0616 14.0438 21.6387 14.03C20.7928 14.0093 20.0561 13.8093 19.4762 13.4577C19.1829 13.2854 18.9305 13.0717 18.7054 12.851C18.5962 12.7338 18.4871 12.6235 18.3984 12.5063C18.2961 12.3891 18.2142 12.2719 18.1323 12.1547C17.4775 11.2033 17.1841 10.4311 16.9181 10.4863L16.9044 10.4932Z" fill="white"/>
<path d="M12.3333 8.74206C13.3497 8.70759 14.2024 9.49354 14.2434 10.4932C14.2775 11.4929 13.4862 12.334 12.4629 12.3685C11.4465 12.4029 10.5938 11.617 10.5528 10.6173C10.5187 9.61763 11.31 8.77653 12.3333 8.74206V8.74206Z" fill="white"/>
<path d="M42.2879 7.80444C43.202 7.76997 43.966 8.47318 44.0001 9.37634C44.0342 10.2726 43.318 11.031 42.4038 11.0585C41.4897 11.093 40.7257 10.3898 40.6916 9.48664C40.6575 8.58349 41.3738 7.83201 42.2879 7.80444V7.80444Z" fill="white"/>
<path d="M32.874 15.5396C32.8808 15.6224 32.9695 15.6913 33.1264 15.7396C33.2015 15.7672 33.297 15.7878 33.4061 15.8016C33.5153 15.8154 33.6381 15.8223 33.7677 15.8292C34.3066 15.8361 35.0501 15.7189 35.8142 15.3949C36.1894 15.2294 36.7897 14.9123 37.39 14.4297C37.9903 13.954 38.577 13.3197 39.034 12.6785C39.15 12.5199 39.2523 12.3545 39.3546 12.1959C39.4024 12.1132 39.4501 12.0236 39.4979 11.9408C39.5457 11.8581 39.5798 11.7754 39.6207 11.6926C39.7639 11.3686 39.8663 11.079 39.9618 10.8377C40.0505 10.5964 40.1323 10.4034 40.1937 10.2655C40.2551 10.1345 40.2892 10.0518 40.2756 10.038C40.2619 10.0311 40.1937 10.0794 40.0846 10.1897C39.9754 10.3 39.839 10.4723 39.6889 10.693C39.5388 10.9136 39.3751 11.1756 39.1841 11.4444C39.1363 11.5065 39.0886 11.5754 39.034 11.6444C38.9795 11.7064 38.9249 11.7685 38.8703 11.8305C38.7475 11.9546 38.6247 12.0925 38.4883 12.2235C37.9562 12.7406 37.3491 13.2301 36.776 13.5748C36.203 13.9264 35.6641 14.147 35.3367 14.2918C34.6818 14.5675 34.0678 14.7951 33.6108 14.9881C33.4948 15.0364 33.3925 15.0846 33.3038 15.1329C33.2151 15.1742 33.1332 15.2225 33.0719 15.2639C32.9422 15.3535 32.874 15.4431 32.8877 15.5259L32.874 15.5396Z" fill="white"/>
</g>
<defs>
<clipPath id="clip0_194_159">
<rect width="44" height="21" fill="white"/>
</clipPath>
</defs>
</svg>
