<svg width="45" height="22" viewBox="0 0 45 22" fill="none" xmlns="http://www.w3.org/2000/svg">
<g clip-path="url(#clip0_13_407)">
<path d="M6.04479 5.69406C5.99021 5.57686 5.88789 5.49413 5.72417 5.45966C5.56727 5.42519 5.34897 5.44587 5.11021 5.56307C4.87145 5.68027 4.61223 5.90779 4.44169 6.23871C4.26432 6.56274 4.18246 6.9764 4.23021 7.36937C4.24386 7.56931 4.31207 7.8175 4.43486 8.08638C4.55083 8.34836 4.7282 8.61724 4.96014 8.85854C5.18525 9.09984 5.45812 9.31356 5.75145 9.47903C6.04479 9.64449 6.35859 9.76169 6.66556 9.84442C6.97254 9.92026 7.26587 9.95473 7.53874 9.96163C7.67517 9.96163 7.79796 9.96163 7.92076 9.94784C8.03672 9.93405 8.14587 9.92716 8.2482 9.90647C8.35052 9.88579 8.4392 9.86511 8.51424 9.85132C8.58928 9.83064 8.6575 9.80995 8.71207 9.78927C8.82122 9.7479 8.87579 9.71343 8.87579 9.67896C8.87579 9.65138 8.8144 9.61691 8.71207 9.58244C8.5961 9.54108 8.45285 9.49282 8.28913 9.43766C8.20045 9.41008 8.11176 9.36872 8.01626 9.33425C7.92076 9.29288 7.81843 9.25152 7.7161 9.20326C7.51145 9.10674 7.3068 8.98264 7.11579 8.85165C6.92479 8.71376 6.75424 8.55519 6.61099 8.38973C6.46773 8.22427 6.35859 8.05191 6.28355 7.89334C6.20851 7.73477 6.16076 7.58999 6.14029 7.46589C6.13347 7.43832 6.13347 7.41074 6.12665 7.38316C6.12665 7.35559 6.11983 7.32801 6.11983 7.30733C6.11983 7.28664 6.11983 7.25907 6.113 7.24528C6.113 7.22459 6.113 7.21081 6.113 7.19012C6.09936 7.05913 6.08572 6.94882 6.0789 6.84541C6.07207 6.74199 6.06525 6.6179 6.0789 6.4938C6.09936 6.23182 6.18804 5.94226 6.0789 5.70785L6.04479 5.69406Z" fill="white"/>
<path d="M4.01847 9.76858C5.69661 10.4304 8.01599 10.5407 8.32296 10.5545C8.34343 10.5545 8.35707 10.5683 8.35707 10.5821L9.1825 11.2509C9.29165 11.3405 9.29847 11.5059 9.19614 11.6025L8.41847 12.3264C8.41847 12.3264 8.40482 12.3539 8.38436 12.3539C8.07738 12.3884 5.94901 12.6228 4.14808 13.4294C4.13444 13.4294 1.46033 12.0782 0.900948 11.7748C0.846374 11.7472 0.839552 11.6783 0.900948 11.6438C1.43986 11.2991 4.01165 9.76168 4.02529 9.76858H4.01847Z" fill="white"/>
<path d="M6.46097 17.4488C6.41322 17.566 6.31771 17.6556 6.15399 17.7039C5.99709 17.7522 5.7788 17.7453 5.53322 17.6418C5.28763 17.5453 5.01477 17.3316 4.81694 17.0145C4.61911 16.7042 4.50996 16.2975 4.5236 15.8976C4.5236 15.6977 4.57818 15.4426 4.67368 15.1737C4.77601 14.9048 4.93291 14.6221 5.13756 14.3671C5.34903 14.112 5.60143 13.8776 5.88794 13.6983C6.16763 13.5122 6.47461 13.3743 6.77477 13.2709C7.07492 13.1743 7.36825 13.1192 7.6343 13.0985C7.77073 13.0916 7.89353 13.0847 8.00949 13.0847C8.12546 13.0847 8.23461 13.0916 8.33694 13.1054C8.43926 13.1192 8.52794 13.133 8.60298 13.1468C8.68484 13.1606 8.74624 13.1812 8.80081 13.195C8.90996 13.2295 8.97136 13.264 8.97136 13.2915C8.97136 13.3191 8.91678 13.3536 8.81446 13.4019C8.69849 13.4501 8.56205 13.5122 8.40515 13.5742C8.32329 13.6087 8.23461 13.6569 8.13911 13.6983C8.0436 13.7466 7.9481 13.7948 7.8526 13.85C7.66159 13.9603 7.46376 14.0982 7.27957 14.243C7.10221 14.3946 6.93849 14.5601 6.80887 14.7393C6.67926 14.9117 6.58376 15.091 6.51554 15.2564C6.44732 15.4219 6.42004 15.5736 6.40639 15.6908C6.39957 15.7183 6.40639 15.7528 6.39957 15.7735C6.39957 15.8011 6.39957 15.8286 6.39957 15.8493C6.39957 15.87 6.39957 15.8976 6.39957 15.9114C6.39957 15.9321 6.39957 15.9458 6.39957 15.9665C6.39957 16.0975 6.39275 16.2078 6.39275 16.3181C6.39275 16.4284 6.39275 16.5456 6.41322 16.6697C6.44732 16.9248 6.55647 17.2144 6.46097 17.4557V17.4488Z" fill="white"/>
<path d="M9.03246 17.3456C8.95742 17.4076 8.93696 17.5317 8.97107 17.6972C9.00518 17.8695 9.08704 18.0833 9.23029 18.3452C9.29851 18.4762 9.38719 18.6141 9.48952 18.7589C9.59184 18.9106 9.70781 19.0622 9.84425 19.2277C10.1171 19.5517 10.4514 19.9033 10.888 20.255C11.3177 20.5997 11.8498 20.9444 12.4911 21.2202C13.1323 21.489 13.9032 21.689 14.7354 21.6959C15.5677 21.7165 16.434 21.5373 17.2322 21.2202C18.0303 20.903 18.767 20.4618 19.4356 19.9516C20.1041 19.4483 20.8886 18.7175 21.6935 17.8213C22.4985 16.925 23.3171 15.8702 24.163 14.7464C25.0021 13.6227 25.8684 12.4299 26.7894 11.3062C27.0213 11.0304 27.2601 10.7546 27.4988 10.4926C27.6216 10.3617 27.7444 10.2307 27.8672 10.1066C27.9286 10.0376 27.99 9.98247 28.0514 9.92731C28.1128 9.87216 28.1673 9.81701 28.2287 9.76185C28.7267 9.33441 29.2997 8.95522 29.9137 8.67255C30.5277 8.38299 31.1757 8.16927 31.8238 8.03828C32.4718 7.90039 33.1267 7.83145 33.7543 7.83145C35.0095 7.83145 36.1556 8.08654 37.056 8.47262C37.5131 8.65877 37.9019 8.87938 38.2362 9.09311C38.5704 9.30683 38.8365 9.52745 39.0616 9.7067C39.2731 9.89974 39.4436 10.0445 39.5528 10.1548C39.6687 10.2582 39.737 10.3134 39.7574 10.2996C39.7711 10.2858 39.7438 10.21 39.6687 10.0721C39.6005 9.92731 39.4709 9.74117 39.3004 9.49297C39.1162 9.25857 38.8842 8.9759 38.5636 8.69324C38.2498 8.40368 37.8678 8.10033 37.4039 7.82456C36.483 7.26612 35.2483 6.8111 33.8362 6.63874C33.1335 6.54911 32.3832 6.54222 31.6123 6.61806C30.8415 6.687 30.057 6.85246 29.2793 7.12134C28.5016 7.38332 27.7376 7.7694 27.0349 8.27269C26.9463 8.33473 26.8644 8.40368 26.7757 8.46573C26.687 8.53467 26.6052 8.59672 26.5301 8.66566C26.3732 8.79665 26.2232 8.92764 26.0663 9.06553C25.7661 9.33441 25.4796 9.61018 25.1999 9.89284C24.088 11.0097 23.1125 12.1542 22.1984 13.1952C21.2842 14.2431 20.4384 15.1877 19.6675 15.9529C18.9035 16.7251 18.2213 17.3042 17.696 17.7041C17.1708 18.1039 16.6455 18.428 16.1407 18.6624C15.6291 18.8899 15.1447 19.0347 14.6672 19.0829C14.1897 19.1381 13.7258 19.0898 13.2687 18.9933C12.8185 18.8899 12.3819 18.7313 11.9794 18.559C11.577 18.3866 11.2086 18.1936 10.888 18.0143C10.7242 17.9247 10.5673 17.842 10.4241 17.7661C10.2877 17.6972 10.1512 17.6213 10.0216 17.5524C9.52362 17.3042 9.18254 17.2008 9.03246 17.3318V17.3456Z" fill="white"/>
<path d="M17.7513 10.989C18.0174 11.0234 18.2629 10.2375 18.8496 9.23781C18.9246 9.11371 18.9997 8.98961 19.0952 8.86552C19.1771 8.73453 19.2794 8.62422 19.3817 8.50012C19.5932 8.26571 19.8319 8.0382 20.1116 7.84516C20.6642 7.45219 21.3873 7.20399 22.2264 7.12126C22.6425 7.0799 23.2155 7.073 23.8909 7.15573C24.5662 7.23847 25.3439 7.41772 26.1557 7.70728C26.9538 7.98994 27.8133 8.43118 28.707 8.87241C29.6006 9.31365 30.542 9.78246 31.5312 10.0858C32.5203 10.396 33.5367 10.5408 34.4645 10.4788C35.3922 10.4236 36.1767 10.2099 36.8316 10.0513C37.1591 9.9686 37.4524 9.90655 37.7184 9.8514C37.9777 9.80314 38.2096 9.76867 38.3938 9.7342C38.769 9.69973 38.9873 9.66526 38.9873 9.63768C38.9873 9.6101 38.7758 9.57563 38.387 9.53426C38.196 9.53426 37.9504 9.52047 37.6775 9.53426C37.4046 9.54805 37.0909 9.56873 36.7566 9.60321C36.0812 9.66525 35.2899 9.77556 34.4713 9.7273C33.6459 9.68594 32.7659 9.46532 31.9132 9.09303C31.0605 8.73453 30.2214 8.21745 29.3755 7.70038C28.5296 7.18331 27.6837 6.65245 26.7696 6.24569C25.876 5.84582 24.9823 5.57694 24.1705 5.43216C23.3588 5.28738 22.622 5.27359 22.0626 5.32875C21.5033 5.3839 20.9439 5.508 20.4322 5.71483C19.9206 5.92166 19.4499 6.21122 19.0679 6.54904C18.6859 6.88686 18.3857 7.26604 18.1538 7.64523C18.0446 7.83827 17.9423 8.01752 17.8741 8.20367C17.7922 8.38292 17.7308 8.56217 17.6831 8.73453C17.4853 9.42395 17.4716 9.98239 17.5057 10.3616C17.5535 10.7477 17.649 10.9545 17.7718 10.9683L17.7513 10.989Z" fill="white"/>
<path d="M33.3184 4.7358C33.3184 4.81853 33.3866 4.90126 33.523 4.984C33.5912 5.02536 33.6731 5.06673 33.7686 5.1012C33.8641 5.14256 33.9664 5.18393 34.0892 5.2253C34.5599 5.39076 35.1875 5.57001 35.8629 5.80442C36.1971 5.92162 36.7497 6.11466 37.3432 6.4249C37.9435 6.72825 38.5847 7.17638 39.1441 7.65898C39.2874 7.77618 39.417 7.90717 39.5534 8.02438C39.6148 8.08643 39.6694 8.14158 39.7308 8.20363C39.7853 8.26568 39.8399 8.32773 39.8945 8.38977C40.106 8.64486 40.2901 8.89306 40.4539 9.09989C40.6176 9.30671 40.7745 9.47218 40.8836 9.57559C41.0064 9.67901 41.0746 9.72037 41.0883 9.71348C41.1019 9.69969 41.061 9.62385 40.9928 9.49975C40.9246 9.36876 40.8291 9.18262 40.7199 8.94821C40.6108 8.71381 40.488 8.43114 40.3174 8.114C40.2697 8.03817 40.2287 7.95543 40.181 7.8796C40.1264 7.80376 40.0718 7.71413 40.0173 7.6383C39.9013 7.49352 39.7922 7.33495 39.6625 7.18327C39.1577 6.57658 38.537 5.97677 37.9025 5.54933C37.2749 5.11499 36.6542 4.83232 36.2653 4.69444C35.4808 4.42556 34.7236 4.35662 34.1915 4.40488C34.0551 4.41866 33.9391 4.43245 33.83 4.45314C33.7208 4.48071 33.6322 4.50829 33.5571 4.53587C33.407 4.59792 33.3252 4.67375 33.3252 4.75648L33.3184 4.7358Z" fill="white"/>
<path d="M8.60983 5.45284C8.76673 5.57694 9.10099 5.45284 9.57851 5.16328C9.70812 5.08744 9.83774 5.00471 9.96735 4.92887C10.1038 4.83925 10.2539 4.74962 10.4108 4.64621C10.7246 4.44627 11.0725 4.23255 11.4613 4.02572C11.8501 3.82579 12.2731 3.63275 12.7165 3.50176C13.1599 3.37766 13.6238 3.29493 14.1013 3.31561C14.5788 3.3294 15.0768 3.43971 15.6021 3.63275C16.1273 3.83268 16.6731 4.12224 17.2188 4.48764C17.7714 4.84614 18.4945 5.3839 19.3063 6.1009C20.1249 6.81101 21.039 7.70038 22.0213 8.67937C23.0105 9.65835 24.061 10.7339 25.248 11.7749C25.5481 12.0369 25.8483 12.292 26.1689 12.5402C26.3326 12.6643 26.4895 12.7884 26.6601 12.9056C26.7419 12.9676 26.8306 13.0228 26.9193 13.0848C27.008 13.1469 27.0967 13.2089 27.1922 13.2641C27.9289 13.7122 28.7202 14.05 29.5115 14.2568C30.3029 14.4775 31.1078 14.5878 31.8787 14.6016C32.6495 14.6222 33.3999 14.5671 34.0957 14.4292C35.4942 14.1672 36.6948 13.6226 37.5748 13.0021C38.0182 12.6918 38.3866 12.3678 38.6731 12.0507C38.9664 11.7404 39.1847 11.444 39.3484 11.1958C39.5053 10.9407 39.6145 10.7408 39.6759 10.5891C39.7373 10.4443 39.7577 10.3616 39.7373 10.3547C39.7168 10.3478 39.6554 10.4029 39.5531 10.5132C39.4508 10.6304 39.2939 10.7959 39.1029 10.9958C38.8982 11.1958 38.6458 11.4371 38.3252 11.6715C38.0114 11.9128 37.6294 12.161 37.1928 12.3747C36.3196 12.8159 35.194 13.1607 33.9388 13.2434C33.3112 13.2916 32.6563 13.2641 31.9946 13.1744C31.3329 13.0848 30.6712 12.9194 30.0368 12.6712C29.4024 12.4299 28.8089 12.092 28.2768 11.6991C28.2086 11.6508 28.1472 11.5956 28.0858 11.5405C28.0244 11.4922 27.9562 11.4371 27.8948 11.375C27.7652 11.2578 27.6287 11.1406 27.4991 11.0165C27.2399 10.7683 26.9875 10.5132 26.7351 10.2513C25.7323 9.19644 24.7909 8.05888 23.87 6.99716C22.9559 5.93544 22.0554 4.93577 21.1959 4.10156C20.3363 3.26046 19.5041 2.59171 18.7946 2.12979C18.092 1.66788 17.328 1.2749 16.5094 1.01292C15.6908 0.757829 14.8108 0.633732 13.9853 0.709569C13.1531 0.771618 12.4027 1.02671 11.7751 1.33695C11.1543 1.65409 10.6495 2.04017 10.247 2.41246C9.83774 2.78475 9.52394 3.16394 9.27836 3.50865C9.15557 3.68101 9.04642 3.83958 8.95774 3.99814C8.86223 4.14982 8.78719 4.2946 8.7258 4.43248C8.60301 4.70136 8.53479 4.92198 8.51432 5.09434C8.49386 5.26669 8.52115 5.3839 8.60301 5.44594L8.60983 5.45284Z" fill="white"/>
<path d="M17.7579 11.189C17.6352 11.2097 17.5533 11.4234 17.5328 11.8164C17.526 12.2025 17.5738 12.7609 17.8262 13.4296C17.8876 13.5951 17.9626 13.7744 18.0581 13.9467C18.14 14.126 18.2628 14.3052 18.3787 14.4845C18.6311 14.843 18.9586 15.2015 19.3679 15.5117C19.7772 15.822 20.2615 16.077 20.7868 16.2494C21.3121 16.4218 21.8783 16.5114 22.4376 16.5252C23.0038 16.539 23.7338 16.4769 24.5319 16.277C25.33 16.077 26.2032 15.753 27.0696 15.2911C27.9496 14.8292 28.7614 14.2363 29.5663 13.664C30.3713 13.0918 31.1694 12.5265 32.0017 12.1059C32.8271 11.6785 33.6866 11.4027 34.5052 11.3062C35.3238 11.2028 36.1152 11.2579 36.7905 11.2717C37.1316 11.2855 37.4454 11.2786 37.7183 11.2717C37.9911 11.2579 38.2299 11.2373 38.4277 11.2166C38.8166 11.1476 39.0212 11.0925 39.0212 11.0649C39.0212 11.0373 38.7961 11.0235 38.4209 11.0166C38.2299 10.996 37.9979 10.9822 37.7387 10.9477C37.4727 10.9063 37.1725 10.865 36.8451 10.8098C36.1834 10.6995 35.3852 10.5409 34.4575 10.5478C33.5366 10.5478 32.5269 10.7615 31.5651 11.1407C30.5964 11.513 29.6891 12.037 28.8296 12.5403C27.97 13.0436 27.1446 13.5399 26.3669 13.8778C25.5824 14.2294 24.8184 14.45 24.1499 14.581C23.4814 14.712 22.9152 14.7396 22.4922 14.7258C21.6463 14.7051 20.9096 14.5051 20.3297 14.1535C20.0364 13.9812 19.784 13.7675 19.5589 13.5468C19.4497 13.4296 19.3406 13.3193 19.2519 13.2021C19.1496 13.0849 19.0677 12.9677 18.9859 12.8505C18.331 11.8991 18.0376 11.1269 17.7716 11.1821L17.7579 11.189Z" fill="white"/>
<path d="M13.1868 9.43786C14.2032 9.40339 15.0559 10.1893 15.0969 11.189C15.131 12.1887 14.3397 13.0298 13.3164 13.0643C12.3 13.0987 11.4473 12.3128 11.4063 11.3131C11.3722 10.3134 12.1635 9.47233 13.1868 9.43786V9.43786Z" fill="white"/>
<path d="M43.1414 8.50024C44.0555 8.46577 44.8195 9.16898 44.8536 10.0721C44.8877 10.9684 44.1715 11.7268 43.2574 11.7543C42.3433 11.7888 41.5792 11.0856 41.5451 10.1824C41.511 9.27929 42.2273 8.52782 43.1414 8.50024V8.50024Z" fill="white"/>
<path d="M33.7275 16.2354C33.7344 16.3182 33.823 16.3871 33.9799 16.4354C34.055 16.463 34.1505 16.4836 34.2596 16.4974C34.3688 16.5112 34.4916 16.5181 34.6212 16.525C35.1601 16.5319 35.9037 16.4147 36.6677 16.0907C37.0429 15.9252 37.6432 15.6081 38.2435 15.1255C38.8438 14.6498 39.4305 14.0155 39.8875 13.3743C40.0035 13.2157 40.1058 13.0503 40.2082 12.8917C40.2559 12.809 40.3037 12.7194 40.3514 12.6366C40.3992 12.5539 40.4333 12.4712 40.4742 12.3884C40.6175 12.0644 40.7198 11.7748 40.8153 11.5335C40.904 11.2922 40.9858 11.0992 41.0472 10.9613C41.1086 10.8303 41.1427 10.7476 41.1291 10.7338C41.1154 10.7269 41.0472 10.7752 40.9381 10.8855C40.8289 10.9958 40.6925 11.1681 40.5424 11.3888C40.3923 11.6094 40.2286 11.8714 40.0376 12.1402C39.9899 12.2023 39.9421 12.2712 39.8875 12.3402C39.833 12.4022 39.7784 12.4643 39.7238 12.5263C39.601 12.6504 39.4782 12.7883 39.3418 12.9193C38.8097 13.4364 38.2026 13.9259 37.6296 14.2706C37.0565 14.6222 36.5176 14.8428 36.1902 14.9876C35.5353 15.2633 34.9213 15.4909 34.4643 15.6839C34.3483 15.7322 34.246 15.7804 34.1573 15.8287C34.0686 15.87 33.9868 15.9183 33.9254 15.9597C33.7958 16.0493 33.7275 16.1389 33.7412 16.2217L33.7275 16.2354Z" fill="white"/>
</g>
<defs>
<clipPath id="clip0_13_407">
<rect width="44" height="21" fill="white" transform="translate(0.853516 0.695801)"/>
</clipPath>
</defs>
</svg>
