<svg width="125" height="20" viewBox="0 0 125 20" fill="none" xmlns="http://www.w3.org/2000/svg">
<line x1="125" y1="8.46799" x2="39" y2="8.46799" stroke="url(#paint0_linear_71_2249)" stroke-width="0.935988"/>
<g clip-path="url(#clip0_71_2249)">
<path d="M4.85941 4.67834C4.80833 4.56864 4.71256 4.4912 4.55932 4.45894C4.41246 4.42667 4.20814 4.44603 3.98466 4.55573C3.76119 4.66543 3.51856 4.87838 3.35893 5.18812C3.19292 5.49141 3.1163 5.87859 3.16099 6.24641C3.17376 6.43354 3.23762 6.66585 3.35255 6.91752C3.46109 7.16273 3.6271 7.4144 3.84419 7.64025C4.0549 7.8661 4.3103 8.06614 4.58486 8.22102C4.85941 8.37589 5.15312 8.48559 5.44045 8.56302C5.72778 8.63401 6.00233 8.66627 6.25773 8.67272C6.38544 8.67272 6.50037 8.67272 6.6153 8.65982C6.72384 8.64691 6.826 8.64046 6.92178 8.6211C7.01755 8.60174 7.10056 8.58238 7.17079 8.56948C7.24103 8.55012 7.30488 8.53076 7.35596 8.5114C7.45812 8.47268 7.5092 8.44042 7.5092 8.40815C7.5092 8.38234 7.45174 8.35008 7.35596 8.31781C7.24741 8.27909 7.11333 8.23392 6.96009 8.1823C6.87708 8.15649 6.79408 8.11777 6.70469 8.0855C6.6153 8.04679 6.51952 8.00807 6.42375 7.9629C6.23219 7.87256 6.04064 7.7564 5.86186 7.6338C5.68308 7.50474 5.52346 7.35632 5.38937 7.20145C5.25528 7.04658 5.15312 6.88525 5.08289 6.73683C5.01265 6.58841 4.96796 6.4529 4.9488 6.33675C4.94242 6.31094 4.94242 6.28513 4.93603 6.25931C4.93603 6.2335 4.92965 6.20769 4.92965 6.18833C4.92965 6.16897 4.92965 6.14316 4.92326 6.13025C4.92326 6.1109 4.92326 6.09799 4.92326 6.07863C4.91049 5.95602 4.89772 5.85278 4.89134 5.75598C4.88495 5.65919 4.87857 5.54303 4.89134 5.42688C4.91049 5.18167 4.9935 4.91064 4.89134 4.69124L4.85941 4.67834Z" fill="white"/>
<path d="M2.9626 8.49196C4.53332 9.11145 6.70423 9.2147 6.99156 9.2276C7.01071 9.2276 7.02348 9.24051 7.02348 9.25342L7.79607 9.87935C7.89823 9.96324 7.90462 10.1181 7.80884 10.2085L7.08095 10.886C7.08095 10.886 7.06818 10.9118 7.04902 10.9118C6.7617 10.9441 4.76957 11.1635 3.08392 11.9185C3.07115 11.9185 0.568218 10.6537 0.044646 10.3698C-0.00643427 10.344 -0.0128193 10.2794 0.044646 10.2472C0.549063 9.92452 2.95622 8.48551 2.96899 8.49196H2.9626Z" fill="white"/>
<path d="M5.24899 15.6804C5.20429 15.7901 5.1149 15.874 4.96166 15.9192C4.81481 15.9644 4.61049 15.9579 4.38062 15.8611C4.15076 15.7708 3.89536 15.5707 3.7102 15.2739C3.52503 14.9835 3.42287 14.6028 3.43564 14.2285C3.43564 14.0414 3.48672 13.8026 3.57611 13.551C3.67189 13.2993 3.81874 13.0347 4.01029 12.796C4.20823 12.5572 4.44447 12.3378 4.71265 12.17C4.97443 11.9958 5.26176 11.8667 5.5427 11.7699C5.82364 11.6796 6.0982 11.628 6.34721 11.6086C6.47491 11.6022 6.58984 11.5957 6.69839 11.5957C6.80694 11.5957 6.9091 11.6022 7.00487 11.6151C7.10065 11.628 7.18365 11.6409 7.25389 11.6538C7.33051 11.6667 7.38797 11.686 7.43905 11.699C7.54121 11.7312 7.59868 11.7635 7.59868 11.7893C7.59868 11.8151 7.5476 11.8474 7.45182 11.8925C7.34328 11.9377 7.21558 11.9958 7.06872 12.0539C6.9921 12.0861 6.9091 12.1313 6.81971 12.17C6.73032 12.2152 6.64093 12.2604 6.55153 12.312C6.37275 12.4152 6.18759 12.5443 6.01519 12.6798C5.84918 12.8218 5.69594 12.9766 5.57463 13.1444C5.45331 13.3057 5.36392 13.4735 5.30007 13.6284C5.23622 13.7833 5.21068 13.9252 5.19791 14.0349C5.19152 14.0607 5.19791 14.093 5.19152 14.1124C5.19152 14.1382 5.19152 14.164 5.19152 14.1833C5.19152 14.2027 5.19152 14.2285 5.19152 14.2414C5.19152 14.2608 5.19152 14.2737 5.19152 14.293C5.19152 14.4157 5.18514 14.5189 5.18514 14.6221C5.18514 14.7254 5.18514 14.8351 5.20429 14.9512C5.23622 15.19 5.33838 15.461 5.24899 15.6869V15.6804Z" fill="white"/>
<path d="M7.65544 15.584C7.5852 15.6421 7.56605 15.7582 7.59797 15.9131C7.6299 16.0744 7.70652 16.2745 7.8406 16.5197C7.90445 16.6423 7.98746 16.7713 8.08324 16.9069C8.17901 17.0488 8.28756 17.1908 8.41526 17.3457C8.67066 17.649 8.98352 17.9781 9.39217 18.3072C9.79442 18.6298 10.2925 18.9525 10.8926 19.2106C11.4928 19.4622 12.2144 19.6494 12.9933 19.6558C13.7723 19.6752 14.5832 19.5074 15.3302 19.2106C16.0773 18.9137 16.7669 18.5007 17.3926 18.0232C18.0183 17.5522 18.7526 16.8681 19.5061 16.0293C20.2595 15.1904 21.0257 14.2031 21.8174 13.1512C22.6028 12.0994 23.4137 10.983 24.2757 9.9312C24.4928 9.67308 24.7162 9.41497 24.9397 9.16975C25.0546 9.04715 25.1696 8.92454 25.2845 8.80839C25.342 8.74386 25.3994 8.69223 25.4569 8.64061C25.5144 8.58899 25.5655 8.53736 25.6229 8.48574C26.089 8.08565 26.6254 7.73074 27.2 7.46617C27.7747 7.19514 28.3813 6.9951 28.9878 6.8725C29.5944 6.74344 30.2074 6.67891 30.7948 6.67891C31.9696 6.67891 33.0423 6.91767 33.8851 7.27903C34.3129 7.45326 34.6769 7.65976 34.9898 7.8598C35.3026 8.05984 35.5516 8.26634 35.7623 8.43411C35.9603 8.6148 36.1199 8.75031 36.2221 8.85356C36.3306 8.95035 36.3945 9.00198 36.4136 8.98907C36.4264 8.97616 36.4008 8.90518 36.3306 8.77612C36.2668 8.64061 36.1454 8.46638 35.9858 8.23407C35.8134 8.01467 35.5963 7.7501 35.2962 7.48553C35.0025 7.2145 34.645 6.93057 34.2108 6.67245C33.3488 6.14976 32.1931 5.72387 30.8714 5.56254C30.2138 5.47866 29.5114 5.4722 28.7899 5.54319C28.0684 5.60772 27.3341 5.76259 26.6062 6.01425C25.8783 6.25946 25.1632 6.62083 24.5055 7.0919C24.4225 7.14997 24.3459 7.2145 24.2629 7.27258C24.1799 7.33711 24.1033 7.39519 24.033 7.45972C23.8862 7.58232 23.7457 7.70493 23.5989 7.83399C23.3179 8.08565 23.0497 8.34377 22.788 8.60834C21.7472 9.65373 20.8341 10.7249 19.9785 11.6993C19.123 12.6802 18.3312 13.5642 17.6097 14.2805C16.8946 15.0032 16.2561 15.5453 15.7644 15.9196C15.2728 16.2938 14.7811 16.5971 14.3086 16.8165C13.8298 17.0295 13.3764 17.165 12.9295 17.2101C12.4825 17.2618 12.0483 17.2166 11.6205 17.1263C11.1991 17.0295 10.7905 16.881 10.4138 16.7197C10.0371 16.5584 9.69226 16.3777 9.39217 16.2099C9.23893 16.1261 9.09207 16.0486 8.95798 15.9776C8.83028 15.9131 8.70258 15.8421 8.58127 15.7776C8.11516 15.5453 7.79591 15.4485 7.65544 15.5711V15.584Z" fill="white"/>
<path d="M15.8157 9.63424C16.0647 9.66651 16.2946 8.93087 16.8437 7.99519C16.9139 7.87903 16.9842 7.76288 17.0736 7.64673C17.1502 7.52412 17.246 7.42087 17.3417 7.30472C17.5397 7.08532 17.7632 6.87237 18.0249 6.69169C18.5421 6.32387 19.2189 6.09156 20.0043 6.01413C20.3938 5.97541 20.9301 5.96895 21.5622 6.04639C22.1944 6.12383 22.9223 6.2916 23.6821 6.56263C24.4291 6.8272 25.2336 7.24019 26.0701 7.65318C26.9065 8.06617 27.7877 8.50497 28.7135 8.7889C29.6393 9.07929 30.5907 9.2148 31.459 9.15672C32.3274 9.1051 33.0617 8.90505 33.6747 8.75664C33.9811 8.6792 34.2557 8.62112 34.5047 8.5695C34.7473 8.52433 34.9644 8.49206 35.1368 8.4598C35.488 8.42754 35.6923 8.39527 35.6923 8.36946C35.6923 8.34365 35.4944 8.31138 35.1304 8.27266C34.9517 8.27266 34.7218 8.25976 34.4664 8.27266C34.211 8.28557 33.9173 8.30493 33.6044 8.33719C32.9723 8.39527 32.2316 8.49852 31.4654 8.45335C30.6928 8.41463 29.8692 8.20813 29.071 7.85967C28.2729 7.52412 27.4876 7.04015 26.6958 6.55617C25.9041 6.0722 25.1123 5.57532 24.2567 5.1946C23.4203 4.82033 22.5839 4.56866 21.824 4.43315C21.0642 4.29764 20.3746 4.28473 19.8511 4.33635C19.3275 4.38798 18.8039 4.50413 18.325 4.69772C17.8462 4.89131 17.4056 5.16233 17.048 5.47853C16.6905 5.79472 16.4095 6.14964 16.1924 6.50455C16.0903 6.68523 15.9945 6.85301 15.9307 7.02724C15.854 7.19502 15.7966 7.3628 15.7519 7.52412C15.5667 8.16942 15.5539 8.69211 15.5859 9.04702C15.6306 9.40839 15.7199 9.60198 15.8349 9.61488L15.8157 9.63424Z" fill="white"/>
<path d="M30.3867 3.78133C30.3867 3.85877 30.4506 3.9362 30.5783 4.01364C30.6421 4.05236 30.7187 4.09108 30.8081 4.12334C30.8975 4.16206 30.9933 4.20078 31.1082 4.23949C31.5488 4.39436 32.1362 4.56214 32.7683 4.78154C33.0812 4.89124 33.5984 5.07193 34.1539 5.36231C34.7158 5.64624 35.316 6.06568 35.8395 6.51739C35.9736 6.62709 36.0949 6.7497 36.2226 6.8594C36.2801 6.91748 36.3312 6.9691 36.3886 7.02718C36.4397 7.08525 36.4908 7.14333 36.5419 7.20141C36.7398 7.44017 36.9122 7.67247 37.0655 7.86606C37.2187 8.05965 37.3656 8.21452 37.4677 8.31132C37.5826 8.40811 37.6465 8.44683 37.6593 8.44038C37.672 8.42747 37.6337 8.35649 37.5699 8.24033C37.506 8.11773 37.4166 7.9435 37.3145 7.7241C37.2123 7.5047 37.0974 7.24012 36.9378 6.94329C36.8931 6.8723 36.8548 6.79487 36.8101 6.72389C36.759 6.6529 36.7079 6.56901 36.6568 6.49803C36.5483 6.36252 36.4461 6.2141 36.3248 6.07214C35.8523 5.50428 35.2713 4.94287 34.6775 4.54278C34.09 4.13625 33.509 3.87167 33.1451 3.74262C32.4108 3.49095 31.702 3.42642 31.204 3.47159C31.0763 3.4845 30.9678 3.4974 30.8656 3.51676C30.7634 3.54257 30.6804 3.56839 30.6102 3.5942C30.4697 3.65227 30.3931 3.72326 30.3931 3.80069L30.3867 3.78133Z" fill="white"/>
<path d="M7.25955 4.45249C7.4064 4.56864 7.71927 4.45249 8.16622 4.18146C8.28754 4.11048 8.40885 4.03304 8.53017 3.96206C8.65787 3.87817 8.79834 3.79428 8.9452 3.69749C9.23891 3.51035 9.56455 3.31031 9.92849 3.11672C10.2924 2.92959 10.6883 2.7489 11.1033 2.6263C11.5184 2.51014 11.9525 2.43271 12.3995 2.45207C12.8465 2.46497 13.3126 2.56822 13.8042 2.7489C14.2959 2.93604 14.8067 3.20706 15.3175 3.54907C15.8346 3.88462 16.5115 4.38796 17.2713 5.05906C18.0375 5.72372 18.8931 6.55615 19.8125 7.47247C20.7383 8.3888 21.7216 9.39546 22.8326 10.3699C23.1136 10.6151 23.3945 10.8538 23.6946 11.0861C23.8479 11.2023 23.9947 11.3184 24.1543 11.4281C24.231 11.4862 24.314 11.5378 24.397 11.5959C24.48 11.654 24.563 11.7121 24.6524 11.7637C25.342 12.1831 26.0826 12.4993 26.8233 12.6929C27.5639 12.8994 28.3174 13.0027 29.0389 13.0156C29.7604 13.0349 30.4628 12.9833 31.114 12.8542C32.423 12.609 33.5467 12.0993 34.3704 11.5185C34.7854 11.2281 35.1302 10.9248 35.3984 10.628C35.6729 10.3376 35.8773 10.0601 36.0305 9.82781C36.1774 9.58905 36.2795 9.40191 36.337 9.25995C36.3944 9.12443 36.4136 9.047 36.3944 9.04055C36.3753 9.03409 36.3178 9.08572 36.2221 9.18896C36.1263 9.29866 35.9794 9.45354 35.8006 9.64067C35.6091 9.82781 35.3728 10.0537 35.0727 10.2731C34.779 10.4989 34.4215 10.7312 34.0128 10.9313C33.1955 11.3443 32.142 11.6669 30.9672 11.7443C30.3797 11.7895 29.7668 11.7637 29.1474 11.6798C28.5281 11.5959 27.9087 11.441 27.3149 11.2087C26.7211 10.9829 26.1656 10.6667 25.6676 10.2989C25.6037 10.2537 25.5463 10.2021 25.4888 10.1505C25.4313 10.1053 25.3675 10.0537 25.31 9.99558C25.1887 9.88588 25.061 9.77618 24.9397 9.66003C24.6971 9.42772 24.4608 9.18896 24.2246 8.94375C23.286 7.95645 22.4048 6.89171 21.5429 5.89795C20.6873 4.90419 19.8444 3.96851 19.0399 3.1877C18.2354 2.40044 17.4564 1.7745 16.7924 1.34216C16.1347 0.909806 15.4196 0.541987 14.6534 0.296775C13.8872 0.0580149 13.0635 -0.0581385 12.291 0.0128442C11.512 0.0709209 10.8096 0.309681 10.2222 0.600064C9.64117 0.896901 9.16867 1.25827 8.79196 1.60673C8.40885 1.95519 8.11514 2.3101 7.88528 2.63275C7.77035 2.79407 7.66819 2.94249 7.58519 3.09091C7.4958 3.23287 7.42556 3.36839 7.36809 3.49745C7.25316 3.74911 7.18931 3.95561 7.17016 4.11693C7.151 4.27826 7.17654 4.38796 7.25316 4.44603L7.25955 4.45249Z" fill="white"/>
<path d="M15.8216 9.82152C15.7067 9.84088 15.6301 10.0409 15.6109 10.4087C15.6045 10.7701 15.6492 11.2928 15.8855 11.9187C15.9429 12.0736 16.0132 12.2414 16.1026 12.4027C16.1792 12.5705 16.2941 12.7383 16.4027 12.906C16.6389 13.2416 16.9454 13.5771 17.3285 13.8675C17.7116 14.1579 18.1649 14.3967 18.6566 14.558C19.1482 14.7193 19.6782 14.8032 20.2018 14.8161C20.7317 14.829 21.4149 14.7709 22.162 14.5838C22.909 14.3967 23.7263 14.0934 24.5372 13.661C25.3609 13.2287 26.1207 12.6737 26.8741 12.1381C27.6275 11.6025 28.3746 11.0734 29.1536 10.6798C29.9262 10.2797 30.7307 10.0216 31.4969 9.93122C32.2631 9.83443 33.0037 9.88605 33.6359 9.89896C33.9551 9.91186 34.2488 9.90541 34.5042 9.89896C34.7596 9.88605 34.9831 9.86669 35.1683 9.84733C35.5322 9.7828 35.7238 9.73118 35.7238 9.70537C35.7238 9.67956 35.5131 9.66665 35.1619 9.6602C34.9831 9.64084 34.766 9.62793 34.5234 9.59567C34.2744 9.55695 33.9934 9.51823 33.6869 9.46661C33.0676 9.36336 32.3205 9.21494 31.4522 9.22139C30.5902 9.22139 29.6452 9.42144 28.7449 9.77635C27.8383 10.1248 26.989 10.6152 26.1845 11.0863C25.38 11.5574 24.6074 12.022 23.8795 12.3382C23.1453 12.6673 22.4301 12.8738 21.8044 12.9964C21.1787 13.119 20.6487 13.1448 20.2528 13.1319C19.4611 13.1125 18.7715 12.9254 18.2288 12.5963C17.9542 12.435 17.718 12.2349 17.5073 12.0284C17.4051 11.9187 17.303 11.8155 17.2199 11.7058C17.1242 11.5961 17.0476 11.4864 16.9709 11.3767C16.358 10.4862 16.0834 9.76344 15.8344 9.81507L15.8216 9.82152Z" fill="white"/>
<path d="M11.5444 8.18242C12.4958 8.15015 13.2939 8.88579 13.3322 9.82147C13.3642 10.7572 12.6235 11.5444 11.6658 11.5767C10.7144 11.6089 9.91626 10.8733 9.87795 9.93763C9.84602 9.00194 10.5867 8.21468 11.5444 8.18242Z" fill="white"/>
<path d="M39.5811 7.30485C40.4367 7.27258 41.1518 7.93079 41.1838 8.77613C41.2157 9.61501 40.5453 10.3248 39.6897 10.3506C38.8341 10.3829 38.119 9.72471 38.087 8.87937C38.0551 8.03403 38.7255 7.33066 39.5811 7.30485Z" fill="white"/>
<path d="M30.7695 14.5448C30.7759 14.6223 30.8589 14.6868 31.0058 14.732C31.076 14.7578 31.1654 14.7772 31.2676 14.7901C31.3697 14.803 31.4847 14.8094 31.606 14.8159C32.1104 14.8223 32.8064 14.7126 33.5215 14.4093C33.8727 14.2545 34.4345 13.9576 34.9964 13.5059C35.5583 13.0607 36.1074 12.467 36.5352 11.8669C36.6438 11.7184 36.7395 11.5636 36.8353 11.4152C36.88 11.3377 36.9247 11.2538 36.9694 11.1764C37.0141 11.099 37.046 11.0215 37.0843 10.9441C37.2184 10.6408 37.3142 10.3698 37.4036 10.1439C37.4866 9.91807 37.5632 9.73739 37.6207 9.60833C37.6781 9.48572 37.7101 9.40828 37.6973 9.39538C37.6845 9.38893 37.6207 9.4341 37.5185 9.53734C37.4163 9.64059 37.2886 9.80192 37.1482 10.0084C37.0077 10.2149 36.8545 10.4601 36.6757 10.7118C36.631 10.7699 36.5863 10.8344 36.5352 10.8989C36.4841 10.957 36.4331 11.0151 36.382 11.0732C36.267 11.1893 36.1521 11.3184 36.0244 11.441C35.5264 11.9249 34.9581 12.3831 34.4218 12.7058C33.8854 13.0349 33.381 13.2413 33.0745 13.3769C32.4616 13.635 31.8869 13.8479 31.4591 14.0286C31.3506 14.0738 31.2548 14.119 31.1718 14.1641C31.0888 14.2028 31.0122 14.248 30.9547 14.2867C30.8334 14.3706 30.7695 14.4545 30.7823 14.5319L30.7695 14.5448Z" fill="white"/>
</g>
<defs>
<linearGradient id="paint0_linear_71_2249" x1="39" y1="8" x2="125" y2="8" gradientUnits="userSpaceOnUse">
<stop stop-color="white"/>
<stop offset="1" stop-color="white" stop-opacity="0"/>
</linearGradient>
<clipPath id="clip0_71_2249">
<rect width="41.1834" height="19.6557" fill="white"/>
</clipPath>
</defs>
</svg>
