<svg width="126" height="20" viewBox="0 0 126 20" fill="none" xmlns="http://www.w3.org/2000/svg">
<line x1="4.09133e-08" y1="7.53201" x2="86" y2="7.53201" stroke="url(#paint0_linear_71_2235)" stroke-width="0.935988"/>
<g clip-path="url(#clip0_71_2235)">
<path d="M120.241 4.67834C120.292 4.56864 120.388 4.4912 120.541 4.45894C120.688 4.42667 120.892 4.44603 121.116 4.55573C121.339 4.66543 121.582 4.87838 121.742 5.18812C121.908 5.49141 121.984 5.87859 121.94 6.24641C121.927 6.43354 121.863 6.66585 121.748 6.91752C121.639 7.16273 121.473 7.4144 121.256 7.64025C121.046 7.8661 120.79 8.06614 120.516 8.22102C120.241 8.37589 119.947 8.48559 119.66 8.56302C119.373 8.63401 119.098 8.66627 118.843 8.67272C118.715 8.67272 118.6 8.67272 118.485 8.65982C118.377 8.64691 118.275 8.64046 118.179 8.6211C118.083 8.60174 118 8.58238 117.93 8.56948C117.86 8.55012 117.796 8.53076 117.745 8.5114C117.642 8.47268 117.591 8.44042 117.591 8.40815C117.591 8.38234 117.649 8.35008 117.745 8.31781C117.853 8.27909 117.987 8.23392 118.14 8.1823C118.224 8.15649 118.307 8.11777 118.396 8.0855C118.485 8.04679 118.581 8.00807 118.677 7.9629C118.868 7.87256 119.06 7.7564 119.239 7.6338C119.418 7.50474 119.577 7.35632 119.711 7.20145C119.845 7.04658 119.947 6.88525 120.018 6.73683C120.088 6.58841 120.133 6.4529 120.152 6.33675C120.158 6.31094 120.158 6.28513 120.165 6.25931C120.165 6.2335 120.171 6.20769 120.171 6.18833C120.171 6.16897 120.171 6.14316 120.177 6.13025C120.177 6.1109 120.177 6.09799 120.177 6.07863C120.19 5.95602 120.203 5.85278 120.209 5.75598C120.216 5.65919 120.222 5.54303 120.209 5.42688C120.19 5.18167 120.107 4.91064 120.209 4.69124L120.241 4.67834Z" fill="white"/>
<path d="M122.138 8.49196C120.567 9.11145 118.396 9.2147 118.109 9.2276C118.09 9.2276 118.077 9.24051 118.077 9.25342L117.305 9.87935C117.202 9.96324 117.196 10.1181 117.292 10.2085L118.02 10.886C118.02 10.886 118.032 10.9118 118.052 10.9118C118.339 10.9441 120.331 11.1635 122.017 11.9185C122.029 11.9185 124.532 10.6537 125.056 10.3698C125.107 10.344 125.113 10.2794 125.056 10.2472C124.552 9.92452 122.144 8.48551 122.132 8.49196H122.138Z" fill="white"/>
<path d="M119.852 15.6804C119.896 15.7901 119.986 15.874 120.139 15.9192C120.286 15.9644 120.49 15.9579 120.72 15.8611C120.95 15.7708 121.205 15.5707 121.39 15.2739C121.576 14.9835 121.678 14.6028 121.665 14.2285C121.665 14.0414 121.614 13.8026 121.524 13.551C121.429 13.2993 121.282 13.0347 121.09 12.796C120.892 12.5572 120.656 12.3378 120.388 12.17C120.126 11.9958 119.839 11.8667 119.558 11.7699C119.277 11.6796 119.002 11.628 118.753 11.6086C118.626 11.6022 118.511 11.5957 118.402 11.5957C118.294 11.5957 118.191 11.6022 118.096 11.6151C118 11.628 117.917 11.6409 117.847 11.6538C117.77 11.6667 117.713 11.686 117.662 11.699C117.559 11.7312 117.502 11.7635 117.502 11.7893C117.502 11.8151 117.553 11.8474 117.649 11.8925C117.757 11.9377 117.885 11.9958 118.032 12.0539C118.108 12.0861 118.191 12.1313 118.281 12.17C118.37 12.2152 118.46 12.2604 118.549 12.312C118.728 12.4152 118.913 12.5443 119.085 12.6798C119.251 12.8218 119.405 12.9766 119.526 13.1444C119.647 13.3057 119.737 13.4735 119.801 13.6284C119.864 13.7833 119.89 13.9252 119.903 14.0349C119.909 14.0607 119.903 14.093 119.909 14.1124C119.909 14.1382 119.909 14.164 119.909 14.1833C119.909 14.2027 119.909 14.2285 119.909 14.2414C119.909 14.2608 119.909 14.2737 119.909 14.293C119.909 14.4157 119.915 14.5189 119.915 14.6221C119.915 14.7254 119.915 14.8351 119.896 14.9512C119.864 15.19 119.762 15.461 119.852 15.6869V15.6804Z" fill="white"/>
<path d="M117.445 15.584C117.515 15.6421 117.535 15.7582 117.503 15.9131C117.471 16.0744 117.394 16.2745 117.26 16.5197C117.196 16.6423 117.113 16.7713 117.017 16.9069C116.922 17.0488 116.813 17.1908 116.685 17.3457C116.43 17.649 116.117 17.9781 115.708 18.3072C115.306 18.6298 114.808 18.9525 114.208 19.2106C113.608 19.4622 112.886 19.6494 112.107 19.6558C111.328 19.6752 110.517 19.5074 109.77 19.2106C109.023 18.9137 108.334 18.5007 107.708 18.0232C107.082 17.5522 106.348 16.8681 105.595 16.0293C104.841 15.1904 104.075 14.2031 103.283 13.1512C102.498 12.0994 101.687 10.983 100.825 9.9312C100.608 9.67308 100.384 9.41497 100.161 9.16975C100.046 9.04715 99.931 8.92454 99.8161 8.80839C99.7586 8.74386 99.7011 8.69223 99.6437 8.64061C99.5862 8.58899 99.5351 8.53736 99.4777 8.48574C99.0116 8.08565 98.4752 7.73074 97.9006 7.46617C97.3259 7.19514 96.7193 6.9951 96.1128 6.8725C95.5062 6.74344 94.8932 6.67891 94.3058 6.67891C93.1309 6.67891 92.0583 6.91767 91.2154 7.27903C90.7876 7.45326 90.4237 7.65976 90.1108 7.8598C89.798 8.05984 89.5489 8.26634 89.3382 8.43411C89.1403 8.6148 88.9807 8.75031 88.8785 8.85356C88.77 8.95035 88.7061 9.00198 88.687 8.98907C88.6742 8.97616 88.6997 8.90518 88.77 8.77612C88.8338 8.64061 88.9551 8.46638 89.1148 8.23407C89.2872 8.01467 89.5043 7.7501 89.8043 7.48553C90.0981 7.2145 90.4556 6.93057 90.8898 6.67245C91.7518 6.14976 92.9075 5.72387 94.2292 5.56254C94.8868 5.47866 95.5892 5.4722 96.3107 5.54319C97.0322 5.60772 97.7665 5.76259 98.4944 6.01425C99.2223 6.25946 99.9374 6.62083 100.595 7.0919C100.678 7.14997 100.755 7.2145 100.838 7.27258C100.921 7.33711 100.997 7.39519 101.068 7.45972C101.214 7.58232 101.355 7.70493 101.502 7.83399C101.783 8.08565 102.051 8.34377 102.313 8.60834C103.353 9.65373 104.266 10.7249 105.122 11.6993C105.978 12.6802 106.769 13.5642 107.491 14.2805C108.206 15.0032 108.845 15.5453 109.336 15.9196C109.828 16.2938 110.319 16.5971 110.792 16.8165C111.271 17.0295 111.724 17.165 112.171 17.2101C112.618 17.2618 113.052 17.2166 113.48 17.1263C113.901 17.0295 114.31 16.881 114.687 16.7197C115.064 16.5584 115.408 16.3777 115.708 16.2099C115.862 16.1261 116.009 16.0486 116.143 15.9776C116.27 15.9131 116.398 15.8421 116.519 15.7776C116.985 15.5453 117.305 15.4485 117.445 15.5711V15.584Z" fill="white"/>
<path d="M109.285 9.63424C109.036 9.66651 108.806 8.93087 108.257 7.99519C108.187 7.87903 108.116 7.76288 108.027 7.64673C107.95 7.52412 107.855 7.42087 107.759 7.30472C107.561 7.08532 107.337 6.87237 107.076 6.69169C106.558 6.32387 105.882 6.09156 105.096 6.01413C104.707 5.97541 104.17 5.96895 103.538 6.04639C102.906 6.12383 102.178 6.2916 101.419 6.56263C100.671 6.8272 99.8669 7.24019 99.0305 7.65318C98.1941 8.06617 97.3129 8.50497 96.3871 8.7889C95.4613 9.07929 94.5099 9.2148 93.6415 9.15672C92.7732 9.1051 92.0389 8.90505 91.4259 8.75664C91.1195 8.6792 90.8449 8.62112 90.5959 8.5695C90.3532 8.52433 90.1362 8.49206 89.9638 8.4598C89.6126 8.42754 89.4083 8.39527 89.4083 8.36946C89.4083 8.34365 89.6062 8.31138 89.9701 8.27266C90.1489 8.27266 90.3788 8.25976 90.6342 8.27266C90.8896 8.28557 91.1833 8.30493 91.4962 8.33719C92.1283 8.39527 92.869 8.49852 93.6352 8.45335C94.4077 8.41463 95.2314 8.20813 96.0295 7.85967C96.8277 7.52412 97.613 7.04015 98.4048 6.55617C99.1965 6.0722 99.9883 5.57532 100.844 5.1946C101.68 4.82033 102.517 4.56866 103.277 4.43315C104.036 4.29764 104.726 4.28473 105.25 4.33635C105.773 4.38798 106.297 4.50413 106.776 4.69772C107.254 4.89131 107.695 5.16233 108.053 5.47853C108.41 5.79472 108.691 6.14964 108.908 6.50455C109.01 6.68523 109.106 6.85301 109.17 7.02724C109.247 7.19502 109.304 7.3628 109.349 7.52412C109.534 8.16942 109.547 8.69211 109.515 9.04702C109.47 9.40839 109.381 9.60198 109.266 9.61488L109.285 9.63424Z" fill="white"/>
<path d="M94.7148 3.78133C94.7148 3.85877 94.651 3.9362 94.5233 4.01364C94.4594 4.05236 94.3828 4.09108 94.2934 4.12334C94.204 4.16206 94.1083 4.20078 93.9933 4.23949C93.5528 4.39436 92.9653 4.56214 92.3332 4.78154C92.0204 4.89124 91.5032 5.07193 90.9477 5.36231C90.3858 5.64624 89.7856 6.06568 89.262 6.51739C89.1279 6.62709 89.0066 6.7497 88.8789 6.8594C88.8215 6.91748 88.7704 6.9691 88.7129 7.02718C88.6618 7.08525 88.6108 7.14333 88.5597 7.20141C88.3617 7.44017 88.1893 7.67247 88.0361 7.86606C87.8829 8.05965 87.736 8.21452 87.6338 8.31132C87.5189 8.40811 87.4551 8.44683 87.4423 8.44038C87.4295 8.42747 87.4678 8.35649 87.5317 8.24033C87.5955 8.11773 87.6849 7.9435 87.7871 7.7241C87.8892 7.5047 88.0042 7.24012 88.1638 6.94329C88.2085 6.8723 88.2468 6.79487 88.2915 6.72389C88.3426 6.6529 88.3937 6.56901 88.4447 6.49803C88.5533 6.36252 88.6554 6.2141 88.7768 6.07214C89.2493 5.50428 89.8303 4.94287 90.4241 4.54278C91.0115 4.13625 91.5926 3.87167 91.9565 3.74262C92.6908 3.49095 93.3995 3.42642 93.8976 3.47159C94.0253 3.4845 94.1338 3.4974 94.236 3.51676C94.3381 3.54257 94.4211 3.56839 94.4914 3.5942C94.6318 3.65227 94.7085 3.72326 94.7085 3.80069L94.7148 3.78133Z" fill="white"/>
<path d="M117.841 4.45249C117.694 4.56864 117.381 4.45249 116.934 4.18146C116.813 4.11048 116.692 4.03304 116.57 3.96206C116.443 3.87817 116.302 3.79428 116.155 3.69749C115.862 3.51035 115.536 3.31031 115.172 3.11672C114.808 2.92959 114.412 2.7489 113.997 2.6263C113.582 2.51014 113.148 2.43271 112.701 2.45207C112.254 2.46497 111.788 2.56822 111.296 2.7489C110.805 2.93604 110.294 3.20706 109.783 3.54907C109.266 3.88462 108.589 4.38796 107.829 5.05906C107.063 5.72372 106.208 6.55615 105.288 7.47247C104.362 8.3888 103.379 9.39546 102.268 10.3699C101.987 10.6151 101.706 10.8538 101.406 11.0861C101.253 11.2023 101.106 11.3184 100.946 11.4281C100.87 11.4862 100.787 11.5378 100.704 11.5959C100.621 11.654 100.538 11.7121 100.448 11.7637C99.7586 12.1831 99.018 12.4993 98.2773 12.6929C97.5366 12.8994 96.7832 13.0027 96.0617 13.0156C95.3402 13.0349 94.6378 12.9833 93.9866 12.8542C92.6776 12.609 91.5539 12.0993 90.7302 11.5185C90.3152 11.2281 89.9704 10.9248 89.7022 10.628C89.4276 10.3376 89.2233 10.0601 89.0701 9.82781C88.9232 9.58905 88.8211 9.40191 88.7636 9.25995C88.7061 9.12443 88.687 9.047 88.7061 9.04055C88.7253 9.03409 88.7828 9.08572 88.8785 9.18896C88.9743 9.29866 89.1212 9.45354 89.2999 9.64067C89.4915 9.82781 89.7277 10.0537 90.0278 10.2731C90.3216 10.4989 90.6791 10.7312 91.0878 10.9313C91.905 11.3443 92.9586 11.6669 94.1334 11.7443C94.7208 11.7895 95.3338 11.7637 95.9531 11.6798C96.5725 11.5959 97.1918 11.441 97.7857 11.2087C98.3795 10.9829 98.935 10.6667 99.433 10.2989C99.4968 10.2537 99.5543 10.2021 99.6118 10.1505C99.6692 10.1053 99.7331 10.0537 99.7906 9.99558C99.9119 9.88588 100.04 9.77618 100.161 9.66003C100.404 9.42772 100.64 9.18896 100.876 8.94375C101.815 7.95645 102.696 6.89171 103.558 5.89795C104.413 4.90419 105.256 3.96851 106.061 3.1877C106.865 2.40044 107.644 1.7745 108.308 1.34216C108.966 0.909806 109.681 0.541987 110.447 0.296775C111.213 0.0580149 112.037 -0.0581385 112.81 0.0128442C113.589 0.0709209 114.291 0.309681 114.878 0.600064C115.459 0.896901 115.932 1.25827 116.309 1.60673C116.692 1.95519 116.985 2.3101 117.215 2.63275C117.33 2.79407 117.432 2.94249 117.515 3.09091C117.605 3.23287 117.675 3.36839 117.732 3.49745C117.847 3.74911 117.911 3.95561 117.93 4.11693C117.95 4.27826 117.924 4.38796 117.847 4.44603L117.841 4.45249Z" fill="white"/>
<path d="M109.279 9.82152C109.394 9.84088 109.471 10.0409 109.49 10.4087C109.496 10.7701 109.451 11.2928 109.215 11.9187C109.158 12.0736 109.087 12.2414 108.998 12.4027C108.921 12.5705 108.806 12.7383 108.698 12.906C108.462 13.2416 108.155 13.5771 107.772 13.8675C107.389 14.1579 106.936 14.3967 106.444 14.558C105.952 14.7193 105.422 14.8032 104.899 14.8161C104.369 14.829 103.686 14.7709 102.939 14.5838C102.192 14.3967 101.374 14.0934 100.563 13.661C99.7397 13.2287 98.9799 12.6737 98.2265 12.1381C97.473 11.6025 96.726 11.0734 95.947 10.6798C95.1744 10.2797 94.3699 10.0216 93.6037 9.93122C92.8375 9.83443 92.0968 9.88605 91.4647 9.89896C91.1455 9.91186 90.8518 9.90541 90.5964 9.89896C90.341 9.88605 90.1175 9.86669 89.9323 9.84733C89.5684 9.7828 89.3768 9.73118 89.3768 9.70537C89.3768 9.67956 89.5875 9.66665 89.9387 9.6602C90.1175 9.64084 90.3346 9.62793 90.5772 9.59567C90.8262 9.55695 91.1072 9.51823 91.4136 9.46661C92.033 9.36336 92.78 9.21494 93.6484 9.22139C94.5104 9.22139 95.4554 9.42144 96.3557 9.77635C97.2623 10.1248 98.1115 10.6152 98.9161 11.0863C99.7206 11.5574 100.493 12.022 101.221 12.3382C101.955 12.6673 102.67 12.8738 103.296 12.9964C103.922 13.119 104.452 13.1448 104.848 13.1319C105.639 13.1125 106.329 12.9254 106.872 12.5963C107.146 12.435 107.383 12.2349 107.593 12.0284C107.695 11.9187 107.798 11.8155 107.881 11.7058C107.976 11.5961 108.053 11.4864 108.13 11.3767C108.743 10.4862 109.017 9.76344 109.266 9.81507L109.279 9.82152Z" fill="white"/>
<path d="M113.556 8.18242C112.605 8.15015 111.807 8.88579 111.768 9.82147C111.736 10.7572 112.477 11.5444 113.435 11.5767C114.386 11.6089 115.184 10.8733 115.223 9.93763C115.255 9.00194 114.514 8.21468 113.556 8.18242Z" fill="white"/>
<path d="M85.5195 7.30485C84.6639 7.27258 83.9487 7.93079 83.9168 8.77613C83.8849 9.61501 84.5553 10.3248 85.4109 10.3506C86.2665 10.3829 86.9816 9.72471 87.0136 8.87937C87.0455 8.03403 86.3751 7.33066 85.5195 7.30485Z" fill="white"/>
<path d="M94.3311 14.5448C94.3247 14.6223 94.2417 14.6868 94.0948 14.732C94.0246 14.7578 93.9352 14.7772 93.833 14.7901C93.7309 14.803 93.6159 14.8094 93.4946 14.8159C92.9902 14.8223 92.2942 14.7126 91.5791 14.4093C91.2279 14.2545 90.666 13.9576 90.1042 13.5059C89.5423 13.0607 88.9932 12.467 88.5654 11.8669C88.4568 11.7184 88.3611 11.5636 88.2653 11.4152C88.2206 11.3377 88.1759 11.2538 88.1312 11.1764C88.0865 11.099 88.0546 11.0215 88.0163 10.9441C87.8822 10.6408 87.7864 10.3698 87.697 10.1439C87.614 9.91807 87.5374 9.73739 87.4799 9.60833C87.4225 9.48572 87.3905 9.40828 87.4033 9.39538C87.4161 9.38893 87.4799 9.4341 87.5821 9.53734C87.6842 9.64059 87.8119 9.80192 87.9524 10.0084C88.0929 10.2149 88.2461 10.4601 88.4249 10.7118C88.4696 10.7699 88.5143 10.8344 88.5654 10.8989C88.6164 10.957 88.6675 11.0151 88.7186 11.0732C88.8335 11.1893 88.9485 11.3184 89.0762 11.441C89.5742 11.9249 90.1425 12.3831 90.6788 12.7058C91.2152 13.0349 91.7196 13.2413 92.0261 13.3769C92.639 13.635 93.2137 13.8479 93.6415 14.0286C93.75 14.0738 93.8458 14.119 93.9288 14.1641C94.0118 14.2028 94.0884 14.248 94.1459 14.2867C94.2672 14.3706 94.3311 14.4545 94.3183 14.5319L94.3311 14.5448Z" fill="white"/>
</g>
<defs>
<linearGradient id="paint0_linear_71_2235" x1="86" y1="8.00001" x2="0" y2="8" gradientUnits="userSpaceOnUse">
<stop stop-color="white"/>
<stop offset="1" stop-color="white" stop-opacity="0"/>
</linearGradient>
<clipPath id="clip0_71_2235">
<rect width="41.1834" height="19.6557" fill="white" transform="matrix(-1 0 0 1 125.101 0)"/>
</clipPath>
</defs>
</svg>
