<svg width="248" height="21" viewBox="0 0 248 21" fill="none" xmlns="http://www.w3.org/2000/svg">
<line y1="-0.467994" x2="207.789" y2="-0.467994" transform="matrix(1 0 0 -1 0.899414 9.33081)" stroke="url(#paint0_linear_70_1507)" stroke-width="0.935988"/>
<g clip-path="url(#clip0_70_1507)">
<path d="M243.141 5.58532C243.192 5.47562 243.287 5.39818 243.441 5.36592C243.588 5.33365 243.792 5.35301 244.015 5.46271C244.239 5.57241 244.481 5.78536 244.641 6.0951C244.807 6.39839 244.884 6.78557 244.839 7.15339C244.826 7.34053 244.762 7.57283 244.647 7.8245C244.539 8.06971 244.373 8.32138 244.156 8.54723C243.945 8.77309 243.69 8.97313 243.415 9.128C243.141 9.28287 242.847 9.39257 242.56 9.47001C242.272 9.54099 241.998 9.57325 241.742 9.57971C241.615 9.57971 241.5 9.57971 241.385 9.5668C241.276 9.55389 241.174 9.54744 241.078 9.52808C240.982 9.50872 240.899 9.48936 240.829 9.47646C240.759 9.4571 240.695 9.43774 240.644 9.41838C240.542 9.37966 240.491 9.3474 240.491 9.31513C240.491 9.28932 240.548 9.25706 240.644 9.22479C240.753 9.18608 240.887 9.1409 241.04 9.08928C241.123 9.06347 241.206 9.02475 241.295 8.99249C241.385 8.95377 241.48 8.91505 241.576 8.86988C241.768 8.77954 241.959 8.66338 242.138 8.54078C242.317 8.41172 242.477 8.2633 242.611 8.10843C242.745 7.95356 242.847 7.79223 242.917 7.64382C242.987 7.4954 243.032 7.35989 243.051 7.24373C243.058 7.21792 243.058 7.19211 243.064 7.1663C243.064 7.14048 243.07 7.11467 243.07 7.09531C243.07 7.07595 243.07 7.05014 243.077 7.03724C243.077 7.01788 243.077 7.00497 243.077 6.98561C243.09 6.86301 243.102 6.75976 243.109 6.66296C243.115 6.56617 243.121 6.45002 243.109 6.33386C243.09 6.08865 243.007 5.81763 243.109 5.59823L243.141 5.58532Z" fill="white"/>
<path d="M245.037 9.39895C243.467 10.0184 241.296 10.1217 241.008 10.1346C240.989 10.1346 240.977 10.1475 240.977 10.1604L240.204 10.7863C240.102 10.8702 240.095 11.0251 240.191 11.1154L240.919 11.793C240.919 11.793 240.932 11.8188 240.951 11.8188C241.238 11.8511 243.23 12.0705 244.916 12.8255C244.929 12.8255 247.432 11.5607 247.955 11.2768C248.006 11.2509 248.013 11.1864 247.955 11.1542C247.451 10.8315 245.044 9.39249 245.031 9.39895H245.037Z" fill="white"/>
<path d="M242.751 16.5874C242.796 16.6971 242.885 16.781 243.038 16.8262C243.185 16.8713 243.39 16.8649 243.619 16.7681C243.849 16.6778 244.105 16.4777 244.29 16.1809C244.475 15.8905 244.577 15.5098 244.564 15.1355C244.564 14.9484 244.513 14.7096 244.424 14.4579C244.328 14.2063 244.181 13.9417 243.99 13.7029C243.792 13.4642 243.556 13.2448 243.287 13.077C243.026 12.9028 242.738 12.7737 242.457 12.6769C242.176 12.5866 241.902 12.535 241.653 12.5156C241.525 12.5091 241.41 12.5027 241.302 12.5027C241.193 12.5027 241.091 12.5091 240.995 12.522C240.899 12.535 240.816 12.5479 240.746 12.5608C240.669 12.5737 240.612 12.593 240.561 12.6059C240.459 12.6382 240.401 12.6705 240.401 12.6963C240.401 12.7221 240.452 12.7544 240.548 12.7995C240.657 12.8447 240.784 12.9028 240.931 12.9608C241.008 12.9931 241.091 13.0383 241.18 13.077C241.27 13.1222 241.359 13.1673 241.448 13.219C241.627 13.3222 241.812 13.4513 241.985 13.5868C242.151 13.7287 242.304 13.8836 242.425 14.0514C242.547 14.2127 242.636 14.3805 242.7 14.5354C242.764 14.6902 242.789 14.8322 242.802 14.9419C242.808 14.9677 242.802 15 242.808 15.0193C242.808 15.0452 242.808 15.071 242.808 15.0903C242.808 15.1097 242.808 15.1355 242.808 15.1484C242.808 15.1678 242.808 15.1807 242.808 15.2C242.808 15.3226 242.815 15.4259 242.815 15.5291C242.815 15.6324 242.815 15.7421 242.796 15.8582C242.764 16.097 242.662 16.368 242.751 16.5939V16.5874Z" fill="white"/>
<path d="M240.345 16.491C240.415 16.5491 240.434 16.6652 240.402 16.8201C240.37 16.9814 240.293 17.1815 240.159 17.4267C240.096 17.5493 240.013 17.6783 239.917 17.8138C239.821 17.9558 239.712 18.0978 239.585 18.2526C239.329 18.5559 239.016 18.885 238.608 19.2141C238.206 19.5368 237.708 19.8594 237.107 20.1176C236.507 20.3692 235.786 20.5564 235.007 20.5628C234.228 20.5822 233.417 20.4144 232.67 20.1176C231.923 19.8207 231.233 19.4077 230.607 18.9302C229.982 18.4591 229.247 17.7751 228.494 16.9362C227.741 16.0974 226.974 15.1101 226.183 14.0582C225.397 13.0064 224.586 11.89 223.724 10.8382C223.507 10.5801 223.284 10.3219 223.06 10.0767C222.945 9.95413 222.83 9.83152 222.715 9.71537C222.658 9.65084 222.601 9.59922 222.543 9.54759C222.486 9.49597 222.435 9.44434 222.377 9.39272C221.911 8.99264 221.375 8.63772 220.8 8.37315C220.225 8.10213 219.619 7.90209 219.012 7.77948C218.406 7.65042 217.793 7.58589 217.205 7.58589C216.03 7.58589 214.958 7.82465 214.115 8.18602C213.687 8.36025 213.323 8.56674 213.01 8.76678C212.697 8.96683 212.448 9.17332 212.238 9.3411C212.04 9.52178 211.88 9.65729 211.778 9.76054C211.669 9.85733 211.606 9.90896 211.586 9.89605C211.574 9.88315 211.599 9.81216 211.669 9.6831C211.733 9.54759 211.855 9.37336 212.014 9.14106C212.187 8.92165 212.404 8.65708 212.704 8.39251C212.997 8.12149 213.355 7.83756 213.789 7.57944C214.651 7.05675 215.807 6.63085 217.129 6.46953C217.786 6.38564 218.489 6.37919 219.21 6.45017C219.932 6.5147 220.666 6.66957 221.394 6.92123C222.122 7.16645 222.837 7.52781 223.494 7.99888C223.577 8.05696 223.654 8.12149 223.737 8.17956C223.82 8.24409 223.897 8.30217 223.967 8.3667C224.114 8.48931 224.254 8.61191 224.401 8.74097C224.682 8.99264 224.95 9.25076 225.212 9.51533C226.253 10.5607 227.166 11.6319 228.021 12.6063C228.877 13.5871 229.669 14.4712 230.39 15.1875C231.105 15.9102 231.744 16.4523 232.236 16.8265C232.727 17.2008 233.219 17.5041 233.691 17.7235C234.17 17.9364 234.624 18.072 235.071 18.1171C235.517 18.1688 235.952 18.1236 236.379 18.0332C236.801 17.9365 237.21 17.788 237.586 17.6267C237.963 17.4654 238.308 17.2847 238.608 17.1169C238.761 17.033 238.908 16.9556 239.042 16.8846C239.17 16.8201 239.297 16.7491 239.419 16.6846C239.885 16.4523 240.204 16.3555 240.345 16.4781V16.491Z" fill="white"/>
<path d="M232.184 10.5412C231.935 10.5735 231.705 9.83785 231.156 8.90217C231.086 8.78602 231.016 8.66986 230.926 8.55371C230.85 8.4311 230.754 8.32785 230.658 8.2117C230.46 7.9923 230.237 7.77935 229.975 7.59867C229.458 7.23085 228.781 6.99854 227.996 6.92111C227.606 6.88239 227.07 6.87594 226.438 6.95337C225.806 7.03081 225.078 7.19859 224.318 7.46961C223.571 7.73418 222.766 8.14717 221.93 8.56016C221.093 8.97315 220.212 9.41195 219.287 9.69588C218.361 9.98627 217.409 10.1218 216.541 10.0637C215.673 10.0121 214.938 9.81204 214.325 9.66362C214.019 9.58618 213.744 9.52811 213.495 9.47648C213.253 9.43131 213.036 9.39905 212.863 9.36678C212.512 9.33452 212.308 9.30225 212.308 9.27644C212.308 9.25063 212.506 9.21836 212.87 9.17965C213.048 9.17965 213.278 9.16674 213.534 9.17965C213.789 9.19255 214.083 9.21191 214.396 9.24418C215.028 9.30225 215.768 9.4055 216.535 9.36033C217.307 9.32161 218.131 9.11512 218.929 8.76666C219.727 8.4311 220.512 7.94713 221.304 7.46316C222.096 6.97918 222.888 6.48231 223.743 6.10158C224.58 5.72731 225.416 5.47564 226.176 5.34013C226.936 5.20462 227.625 5.19171 228.149 5.24334C228.673 5.29496 229.196 5.41111 229.675 5.6047C230.154 5.79829 230.594 6.06932 230.952 6.38551C231.31 6.70171 231.59 7.05662 231.808 7.41153C231.91 7.59222 232.005 7.75999 232.069 7.93422C232.146 8.102 232.203 8.26978 232.248 8.4311C232.433 9.0764 232.446 9.59909 232.414 9.954C232.369 10.3154 232.28 10.509 232.165 10.5219L232.184 10.5412Z" fill="white"/>
<path d="M217.613 4.68832C217.613 4.76575 217.549 4.84319 217.422 4.92062C217.358 4.95934 217.281 4.99806 217.192 5.03032C217.102 5.06904 217.007 5.10776 216.892 5.14648C216.451 5.30135 215.864 5.46912 215.232 5.68853C214.919 5.79823 214.402 5.97891 213.846 6.26929C213.284 6.55322 212.684 6.97267 212.16 7.42437C212.026 7.53407 211.905 7.65668 211.777 7.76638C211.72 7.82446 211.669 7.87608 211.611 7.93416C211.56 7.99223 211.509 8.05031 211.458 8.10839C211.26 8.34715 211.088 8.57945 210.935 8.77304C210.781 8.96663 210.634 9.1215 210.532 9.2183C210.417 9.31509 210.354 9.35381 210.341 9.34736C210.328 9.33445 210.366 9.26347 210.43 9.14732C210.494 9.02471 210.583 8.85048 210.686 8.63108C210.788 8.41168 210.903 8.14711 211.062 7.85027C211.107 7.77929 211.145 7.70185 211.19 7.63087C211.241 7.55989 211.292 7.476 211.343 7.40501C211.452 7.2695 211.554 7.12108 211.675 6.97912C212.148 6.41126 212.729 5.84985 213.323 5.44977C213.91 5.04323 214.491 4.77866 214.855 4.6496C215.589 4.39793 216.298 4.3334 216.796 4.37857C216.924 4.39148 217.032 4.40438 217.134 4.42374C217.237 4.44956 217.32 4.47537 217.39 4.50118C217.53 4.55926 217.607 4.63024 217.607 4.70767L217.613 4.68832Z" fill="white"/>
<path d="M240.74 5.35947C240.594 5.47562 240.281 5.35947 239.834 5.08844C239.712 5.01746 239.591 4.94002 239.47 4.86904C239.342 4.78515 239.202 4.70127 239.055 4.60447C238.761 4.41733 238.435 4.21729 238.072 4.0237C237.708 3.83657 237.312 3.65588 236.897 3.53328C236.482 3.41712 236.047 3.33969 235.601 3.35905C235.154 3.37195 234.687 3.4752 234.196 3.65588C233.704 3.84302 233.193 4.11405 232.683 4.45605C232.165 4.79161 231.489 5.29494 230.729 5.96605C229.963 6.6307 229.107 7.46314 228.187 8.37946C227.262 9.29578 226.278 10.3024 225.167 11.2768C224.886 11.5221 224.605 11.7608 224.305 11.9931C224.152 12.1093 224.005 12.2254 223.846 12.3351C223.769 12.3932 223.686 12.4448 223.603 12.5029C223.52 12.561 223.437 12.6191 223.348 12.6707C222.658 13.0901 221.917 13.4063 221.177 13.5999C220.436 13.8064 219.683 13.9096 218.961 13.9226C218.24 13.9419 217.537 13.8903 216.886 13.7612C215.577 13.516 214.453 13.0062 213.63 12.4255C213.215 12.1351 212.87 11.8318 212.602 11.535C212.327 11.2446 212.123 10.9671 211.969 10.7348C211.823 10.496 211.72 10.3089 211.663 10.1669C211.606 10.0314 211.586 9.95398 211.606 9.94753C211.625 9.94107 211.682 9.9927 211.778 10.0959C211.874 10.2056 212.021 10.3605 212.199 10.5477C212.391 10.7348 212.627 10.9606 212.927 11.18C213.221 11.4059 213.579 11.6382 213.987 11.8382C214.804 12.2512 215.858 12.5739 217.033 12.6513C217.62 12.6965 218.233 12.6707 218.853 12.5868C219.472 12.5029 220.091 12.348 220.685 12.1157C221.279 11.8899 221.834 11.5737 222.332 11.2059C222.396 11.1607 222.454 11.1091 222.511 11.0574C222.569 11.0123 222.633 10.9606 222.69 10.9026C222.811 10.7929 222.939 10.6832 223.06 10.567C223.303 10.3347 223.539 10.0959 223.775 9.85073C224.714 8.86343 225.595 7.79869 226.457 6.80493C227.313 5.81118 228.156 4.8755 228.96 4.09469C229.765 3.30742 230.544 2.68149 231.208 2.24914C231.865 1.81679 232.58 1.44897 233.347 1.20376C234.113 0.964997 234.936 0.848844 235.709 0.919827C236.488 0.977903 237.19 1.21666 237.778 1.50705C238.359 1.80388 238.831 2.16525 239.208 2.51371C239.591 2.86217 239.885 3.21708 240.115 3.53973C240.23 3.70106 240.332 3.84947 240.415 3.99789C240.504 4.13986 240.574 4.27537 240.632 4.40443C240.747 4.65609 240.811 4.86259 240.83 5.02391C240.849 5.18524 240.823 5.29494 240.747 5.35301L240.74 5.35947Z" fill="white"/>
<path d="M232.178 10.7285C232.293 10.7479 232.37 10.9479 232.389 11.3157C232.395 11.6771 232.351 12.1998 232.115 12.8257C232.057 12.9806 231.987 13.1484 231.897 13.3097C231.821 13.4775 231.706 13.6452 231.597 13.813C231.361 14.1486 231.055 14.4841 230.672 14.7745C230.288 15.0649 229.835 15.3037 229.343 15.465C228.852 15.6263 228.322 15.7102 227.798 15.7231C227.268 15.736 226.585 15.6779 225.838 15.4908C225.091 15.3037 224.274 15.0004 223.463 14.568C222.639 14.1357 221.879 13.5807 221.126 13.0451C220.372 12.5095 219.625 11.9804 218.846 11.5867C218.074 11.1867 217.269 10.9285 216.503 10.8382C215.737 10.7414 214.996 10.793 214.364 10.8059C214.045 10.8188 213.751 10.8124 213.496 10.8059C213.24 10.793 213.017 10.7737 212.832 10.7543C212.468 10.6898 212.276 10.6382 212.276 10.6123C212.276 10.5865 212.487 10.5736 212.838 10.5672C213.017 10.5478 213.234 10.5349 213.477 10.5026C213.726 10.4639 214.007 10.4252 214.313 10.3736C214.932 10.2703 215.679 10.1219 216.548 10.1284C217.41 10.1284 218.355 10.3284 219.255 10.6833C220.162 11.0318 221.011 11.5222 221.815 11.9933C222.62 12.4644 223.393 12.929 224.12 13.2452C224.855 13.5743 225.57 13.7808 226.196 13.9034C226.821 14.026 227.351 14.0518 227.747 14.0389C228.539 14.0195 229.228 13.8324 229.771 13.5033C230.046 13.342 230.282 13.1419 230.493 12.9354C230.595 12.8257 230.697 12.7225 230.78 12.6128C230.876 12.5031 230.952 12.3934 231.029 12.2837C231.642 11.3932 231.917 10.6704 232.166 10.7221L232.178 10.7285Z" fill="white"/>
<path d="M236.456 9.0894C235.504 9.05714 234.706 9.79277 234.668 10.7285C234.636 11.6641 235.376 12.4514 236.334 12.4837C237.286 12.5159 238.084 11.7803 238.122 10.8446C238.154 9.90893 237.413 9.12167 236.456 9.0894Z" fill="white"/>
<path d="M208.419 8.21183C207.563 8.17957 206.848 8.83777 206.816 9.68311C206.784 10.522 207.455 11.2318 208.31 11.2576C209.166 11.2899 209.881 10.6317 209.913 9.78636C209.945 8.94102 209.274 8.23764 208.419 8.21183Z" fill="white"/>
<path d="M217.23 15.4518C217.224 15.5293 217.141 15.5938 216.994 15.639C216.924 15.6648 216.835 15.6841 216.732 15.697C216.63 15.7099 216.515 15.7164 216.394 15.7229C215.89 15.7293 215.194 15.6196 214.479 15.3163C214.127 15.1614 213.565 14.8646 213.004 14.4129C212.442 13.9676 211.893 13.374 211.465 12.7738C211.356 12.6254 211.26 12.4706 211.165 12.3221C211.12 12.2447 211.075 12.1608 211.031 12.0834C210.986 12.0059 210.954 11.9285 210.916 11.8511C210.782 11.5478 210.686 11.2768 210.596 11.0509C210.513 10.8251 210.437 10.6444 210.379 10.5153C210.322 10.3927 210.29 10.3153 210.303 10.3024C210.315 10.2959 210.379 10.3411 210.481 10.4443C210.584 10.5476 210.711 10.7089 210.852 10.9154C210.992 11.1219 211.146 11.3671 211.324 11.6188C211.369 11.6768 211.414 11.7414 211.465 11.8059C211.516 11.864 211.567 11.9221 211.618 11.9801C211.733 12.0963 211.848 12.2253 211.976 12.348C212.474 12.8319 213.042 13.2901 213.578 13.6127C214.115 13.9418 214.619 14.1483 214.925 14.2838C215.538 14.542 216.113 14.7549 216.541 14.9356C216.649 14.9808 216.745 15.0259 216.828 15.0711C216.911 15.1098 216.988 15.155 217.045 15.1937C217.167 15.2776 217.23 15.3615 217.218 15.4389L217.23 15.4518Z" fill="white"/>
</g>
<defs>
<linearGradient id="paint0_linear_70_1507" x1="207.789" y1="0" x2="0" y2="-1.40331e-08" gradientUnits="userSpaceOnUse">
<stop stop-color="white"/>
<stop offset="1" stop-color="white" stop-opacity="0"/>
</linearGradient>
<clipPath id="clip0_70_1507">
<rect width="41.1834" height="19.6557" fill="white" transform="matrix(-1 0 0 1 248 0.906982)"/>
</clipPath>
</defs>
</svg>
