<svg width="265" height="22" viewBox="0 0 265 22" fill="none" xmlns="http://www.w3.org/2000/svg">
<line x1="264.25" y1="9.72583" x2="42.25" y2="9.72583" stroke="url(#paint0_linear_36_453)"/>
<g clip-path="url(#clip0_36_453)">
<path d="M5.44127 5.22409C5.3867 5.10689 5.28437 5.02416 5.12065 4.98969C4.96375 4.95521 4.74546 4.9759 4.5067 5.0931C4.26794 5.2103 4.00871 5.43782 3.83817 5.76874C3.66081 6.09277 3.57895 6.50643 3.6267 6.8994C3.64034 7.09934 3.70856 7.34753 3.83135 7.61641C3.94732 7.87839 4.12468 8.14727 4.35662 8.38857C4.58174 8.62987 4.8546 8.84359 5.14794 9.00906C5.44127 9.17452 5.75507 9.29172 6.06205 9.37445C6.36902 9.45029 6.66236 9.48476 6.93522 9.49166C7.07166 9.49166 7.19445 9.49166 7.31724 9.47787C7.43321 9.46408 7.54236 9.45718 7.64468 9.4365C7.74701 9.41582 7.83569 9.39514 7.91073 9.38135C7.98577 9.36066 8.05398 9.33998 8.10856 9.3193C8.21771 9.27793 8.27228 9.24346 8.27228 9.20899C8.27228 9.18141 8.21088 9.14694 8.10856 9.11247C7.99259 9.07111 7.84933 9.02284 7.68561 8.96769C7.59693 8.94011 7.50825 8.89875 7.41274 8.86428C7.31724 8.82291 7.21491 8.78154 7.11259 8.73328C6.90794 8.63676 6.70329 8.51267 6.51228 8.38168C6.32127 8.24379 6.15073 8.08522 6.00747 7.91976C5.86422 7.7543 5.75507 7.58194 5.68003 7.42337C5.60499 7.2648 5.55724 7.12002 5.53677 6.99592C5.52995 6.96835 5.52995 6.94077 5.52313 6.91319C5.52313 6.88562 5.51631 6.85804 5.51631 6.83736C5.51631 6.81667 5.51631 6.7891 5.50949 6.77531C5.50949 6.75462 5.50949 6.74084 5.50949 6.72015C5.49584 6.58916 5.4822 6.47885 5.47538 6.37544C5.46856 6.27202 5.46174 6.14793 5.47538 6.02383C5.49584 5.76185 5.58453 5.47229 5.47538 5.23788L5.44127 5.22409Z" fill="white"/>
<path d="M3.41495 9.29861C5.09309 9.96046 7.41247 10.0708 7.71945 10.0846C7.73991 10.0846 7.75356 10.0983 7.75356 10.1121L8.57898 10.7809C8.68813 10.8705 8.69495 11.036 8.59263 11.1325L7.81495 11.8564C7.81495 11.8564 7.80131 11.884 7.78084 11.884C7.47387 11.9184 5.34549 12.1528 3.54456 12.9595C3.53092 12.9595 0.856812 11.6082 0.297432 11.3048C0.242859 11.2773 0.236037 11.2083 0.297432 11.1739C0.836347 10.8291 3.40813 9.29171 3.42177 9.29861H3.41495Z" fill="white"/>
<path d="M5.85745 16.9788C5.8097 17.096 5.7142 17.1857 5.55048 17.2339C5.39358 17.2822 5.17528 17.2753 4.9297 17.1719C4.68412 17.0754 4.41125 16.8616 4.21342 16.5445C4.01559 16.2342 3.90644 15.8275 3.92009 15.4276C3.92009 15.2277 3.97466 14.9726 4.07017 14.7037C4.17249 14.4348 4.32939 14.1522 4.53404 13.8971C4.74551 13.642 4.99792 13.4076 5.28443 13.2283C5.56412 13.0422 5.8711 12.9043 6.17125 12.8009C6.47141 12.7044 6.76474 12.6492 7.03079 12.6285C7.16722 12.6216 7.29001 12.6147 7.40598 12.6147C7.52195 12.6147 7.6311 12.6216 7.73342 12.6354C7.83575 12.6492 7.92443 12.663 7.99947 12.6768C8.08133 12.6906 8.14272 12.7113 8.1973 12.7251C8.30644 12.7595 8.36784 12.794 8.36784 12.8216C8.36784 12.8492 8.31327 12.8836 8.21094 12.9319C8.09497 12.9801 7.95854 13.0422 7.80164 13.1042C7.71978 13.1387 7.6311 13.187 7.53559 13.2283C7.44009 13.2766 7.34458 13.3249 7.24908 13.38C7.05807 13.4903 6.86024 13.6282 6.67606 13.773C6.49869 13.9247 6.33497 14.0901 6.20536 14.2694C6.07575 14.4417 5.98024 14.621 5.91203 14.7864C5.84381 14.9519 5.81652 15.1036 5.80288 15.2208C5.79606 15.2484 5.80288 15.2828 5.79606 15.3035C5.79606 15.3311 5.79606 15.3587 5.79606 15.3794C5.79606 15.4 5.79606 15.4276 5.79606 15.4414C5.79606 15.4621 5.79606 15.4759 5.79606 15.4966C5.79606 15.6276 5.78924 15.7379 5.78924 15.8482C5.78924 15.9585 5.78924 16.0757 5.8097 16.1998C5.84381 16.4549 5.95296 16.7444 5.85745 16.9857V16.9788Z" fill="white"/>
<path d="M8.42895 16.8756C8.35391 16.9376 8.33344 17.0617 8.36755 17.2272C8.40166 17.3996 8.48352 17.6133 8.62678 17.8753C8.69499 18.0063 8.78368 18.1441 8.886 18.2889C8.98833 18.4406 9.1043 18.5923 9.24073 18.7577C9.5136 19.0818 9.84786 19.4334 10.2845 19.785C10.7142 20.1297 11.2463 20.4744 11.8876 20.7502C12.5288 21.0191 13.2996 21.219 14.1319 21.2259C14.9641 21.2466 15.8305 21.0673 16.6286 20.7502C17.4268 20.4331 18.1635 19.9918 18.832 19.4816C19.5006 18.9784 20.2851 18.2476 21.09 17.3513C21.895 16.455 22.7136 15.4002 23.5595 14.2765C24.3986 13.1527 25.2649 11.96 26.1858 10.8362C26.4178 10.5604 26.6565 10.2847 26.8953 10.0227C27.0181 9.89168 27.1409 9.76069 27.2637 9.63659C27.3251 9.56765 27.3865 9.5125 27.4479 9.45734C27.5093 9.40219 27.5638 9.34703 27.6252 9.29188C28.1232 8.86443 28.6962 8.48525 29.3102 8.20258C29.9241 7.91302 30.5722 7.6993 31.2203 7.56831C31.8683 7.43042 32.5232 7.36148 33.1508 7.36148C34.406 7.36148 35.552 7.61657 36.4525 8.00265C36.9096 8.18879 37.2984 8.40941 37.6327 8.62313C37.9669 8.83686 38.233 9.05747 38.4581 9.23673C38.6696 9.42977 38.8401 9.57455 38.9493 9.68486C39.0652 9.78827 39.1334 9.84342 39.1539 9.82964C39.1676 9.81585 39.1403 9.74001 39.0652 9.60212C38.997 9.45734 38.8674 9.2712 38.6969 9.023C38.5127 8.7886 38.2807 8.50593 37.9601 8.22327C37.6463 7.93371 37.2643 7.63036 36.8004 7.35459C35.8795 6.79615 34.6448 6.34113 33.2327 6.16877C32.53 6.07914 31.7796 6.07225 31.0088 6.14809C30.2379 6.21703 29.4534 6.38249 28.6758 6.65137C27.8981 6.91335 27.1341 7.29943 26.4314 7.80271C26.3427 7.86476 26.2609 7.93371 26.1722 7.99575C26.0835 8.0647 26.0017 8.12675 25.9266 8.19569C25.7697 8.32668 25.6196 8.45767 25.4627 8.59556C25.1626 8.86443 24.8761 9.14021 24.5964 9.42287C23.4845 10.5397 22.5089 11.6842 21.5948 12.7252C20.6807 13.7732 19.8348 14.7177 19.064 15.483C18.3 16.2551 17.6178 16.8342 17.0925 17.2341C16.5672 17.634 16.042 17.958 15.5372 18.1924C15.0255 18.4199 14.5412 18.5647 14.0637 18.613C13.5862 18.6681 13.1223 18.6199 12.6652 18.5233C12.215 18.4199 11.7784 18.2613 11.3759 18.089C10.9734 17.9166 10.6051 17.7236 10.2845 17.5443C10.1207 17.4547 9.96383 17.372 9.82057 17.2961C9.68414 17.2272 9.54771 17.1514 9.41809 17.0824C8.92011 16.8342 8.57902 16.7308 8.42895 16.8618V16.8756Z" fill="white"/>
<path d="M17.1478 10.519C17.4138 10.5535 17.6594 9.76751 18.2461 8.76784C18.3211 8.64374 18.3962 8.51964 18.4917 8.39555C18.5735 8.26456 18.6759 8.15425 18.7782 8.03015C18.9897 7.79574 19.2284 7.56823 19.5081 7.37519C20.0607 6.98222 20.7838 6.73402 21.6228 6.65129C22.039 6.60993 22.612 6.60303 23.2873 6.68576C23.9627 6.76849 24.7404 6.94775 25.5521 7.23731C26.3503 7.51997 27.2098 7.96121 28.1035 8.40244C28.9971 8.84368 29.9385 9.31249 30.9276 9.61584C31.9168 9.92608 32.9332 10.0709 33.861 10.0088C34.7887 9.95366 35.5732 9.73993 36.2281 9.58136C36.5556 9.49863 36.8489 9.43658 37.1149 9.38143C37.3742 9.33317 37.6061 9.2987 37.7903 9.26423C38.1655 9.22976 38.3838 9.19528 38.3838 9.16771C38.3838 9.14013 38.1723 9.10566 37.7835 9.06429C37.5925 9.06429 37.3469 9.0505 37.074 9.06429C36.8011 9.07808 36.4873 9.09876 36.1531 9.13324C35.4777 9.19528 34.6864 9.30559 33.8678 9.25733C33.0424 9.21597 32.1624 8.99535 31.3097 8.62306C30.4569 8.26456 29.6179 7.74748 28.772 7.23041C27.9261 6.71334 27.0802 6.18248 26.1661 5.77572C25.2725 5.37585 24.3788 5.10697 23.567 4.96219C22.7552 4.81741 22.0185 4.80362 21.4591 4.85878C20.8997 4.91393 20.3404 5.03803 19.8287 5.24486C19.3171 5.45169 18.8464 5.74125 18.4644 6.07907C18.0824 6.41689 17.7822 6.79607 17.5503 7.17526C17.4411 7.3683 17.3388 7.54755 17.2706 7.7337C17.1887 7.91295 17.1273 8.0922 17.0796 8.26456C16.8818 8.95398 16.8681 9.51242 16.9022 9.89161C16.95 10.2777 17.0455 10.4845 17.1683 10.4983L17.1478 10.519Z" fill="white"/>
<path d="M32.7148 4.26583C32.7148 4.34856 32.7831 4.43129 32.9195 4.51403C32.9877 4.55539 33.0696 4.59676 33.1651 4.63123C33.2606 4.67259 33.3629 4.71396 33.4857 4.75533C33.9564 4.92079 34.584 5.10004 35.2593 5.33445C35.5936 5.45165 36.1462 5.64469 36.7397 5.95493C37.34 6.25828 37.9812 6.70641 38.5406 7.18901C38.6838 7.30621 38.8134 7.4372 38.9499 7.55441C39.0113 7.61645 39.0659 7.67161 39.1272 7.73366C39.1818 7.79571 39.2364 7.85775 39.291 7.9198C39.5024 8.17489 39.6866 8.42309 39.8503 8.62991C40.0141 8.83674 40.171 9.00221 40.2801 9.10562C40.4029 9.20904 40.4711 9.2504 40.4848 9.24351C40.4984 9.22972 40.4575 9.15388 40.3893 9.02978C40.321 8.89879 40.2255 8.71265 40.1164 8.47824C40.0072 8.24384 39.8845 7.96117 39.7139 7.64403C39.6662 7.56819 39.6252 7.48546 39.5775 7.40963C39.5229 7.33379 39.4683 7.24416 39.4138 7.16833C39.2978 7.02355 39.1886 6.86498 39.059 6.7133C38.5542 6.10661 37.9334 5.5068 37.299 5.07936C36.6714 4.64502 36.0507 4.36235 35.6618 4.22447C34.8773 3.95559 34.1201 3.88665 33.588 3.93491C33.4516 3.94869 33.3356 3.96248 33.2265 3.98316C33.1173 4.01074 33.0286 4.03832 32.9536 4.0659C32.8035 4.12795 32.7217 4.20378 32.7217 4.28651L32.7148 4.26583Z" fill="white"/>
<path d="M8.00631 4.98287C8.16321 5.10697 8.49748 4.98287 8.975 4.69331C9.10461 4.61747 9.23422 4.53474 9.36383 4.4589C9.50027 4.36928 9.65034 4.27965 9.80724 4.17624C10.121 3.9763 10.4689 3.76258 10.8578 3.55575C11.2466 3.35582 11.6696 3.16278 12.113 3.03179C12.5564 2.90769 13.0203 2.82496 13.4978 2.84564C13.9753 2.85943 14.4733 2.96974 14.9986 3.16278C15.5238 3.36271 16.0696 3.65227 16.6153 4.01767C17.1679 4.37617 17.891 4.91393 18.7027 5.63093C19.5214 6.34104 20.4355 7.23041 21.4178 8.2094C22.4069 9.18838 23.4575 10.2639 24.6445 11.3049C24.9446 11.5669 25.2448 11.822 25.5654 12.0702C25.7291 12.1943 25.886 12.3184 26.0565 12.4356C26.1384 12.4976 26.2271 12.5528 26.3158 12.6148C26.4045 12.6769 26.4931 12.7389 26.5886 12.7941C27.3254 13.2422 28.1167 13.58 28.908 13.7869C29.6993 14.0075 30.5043 14.1178 31.2752 14.1316C32.046 14.1523 32.7964 14.0971 33.4922 13.9592C34.8907 13.6972 36.0913 13.1526 36.9713 12.5321C37.4147 12.2219 37.7831 11.8978 38.0696 11.5807C38.3629 11.2705 38.5812 10.974 38.7449 10.7258C38.9018 10.4707 39.011 10.2708 39.0724 10.1191C39.1338 9.97433 39.1542 9.8916 39.1338 9.88471C39.1133 9.87781 39.0519 9.93297 38.9496 10.0433C38.8472 10.1605 38.6903 10.3259 38.4993 10.5259C38.2947 10.7258 38.0423 10.9671 37.7217 11.2015C37.4079 11.4428 37.0259 11.691 36.5893 11.9047C35.7161 12.346 34.5905 12.6907 33.3353 12.7734C32.7077 12.8217 32.0528 12.7941 31.3911 12.7045C30.7294 12.6148 30.0677 12.4494 29.4333 12.2012C28.7989 11.9599 28.2054 11.6221 27.6733 11.2291C27.6051 11.1808 27.5437 11.1257 27.4823 11.0705C27.4209 11.0223 27.3527 10.9671 27.2913 10.9051C27.1617 10.7879 27.0252 10.6707 26.8956 10.5466C26.6364 10.2984 26.384 10.0433 26.1316 9.78129C25.1288 8.72647 24.1874 7.58891 23.2665 6.52719C22.3524 5.46547 21.4519 4.4658 20.5924 3.63159C19.7328 2.79048 18.9006 2.12174 18.1911 1.65982C17.4885 1.1979 16.7245 0.80493 15.9058 0.542947C15.0872 0.287859 14.2072 0.163762 13.3818 0.239599C12.5496 0.301647 11.7992 0.556736 11.1716 0.866979C10.5508 1.18412 10.046 1.5702 9.64352 1.94249C9.23422 2.31478 8.92042 2.69396 8.67484 3.03868C8.55205 3.21104 8.4429 3.36961 8.35422 3.52817C8.25872 3.67985 8.18368 3.82463 8.12228 3.96251C7.99949 4.23139 7.93127 4.45201 7.91081 4.62437C7.89034 4.79672 7.91763 4.91393 7.99949 4.97597L8.00631 4.98287Z" fill="white"/>
<path d="M17.1544 10.719C17.0316 10.7397 16.9498 10.9534 16.9293 11.3464C16.9225 11.7325 16.9702 12.2909 17.2227 12.9597C17.284 13.1251 17.3591 13.3044 17.4546 13.4767C17.5364 13.656 17.6592 13.8352 17.7752 14.0145C18.0276 14.373 18.3551 14.7315 18.7644 15.0417C19.1737 15.352 19.658 15.6071 20.1833 15.7794C20.7085 15.9518 21.2747 16.0414 21.8341 16.0552C22.4003 16.069 23.1302 16.0069 23.9284 15.807C24.7265 15.6071 25.5997 15.283 26.4661 14.8211C27.3461 14.3592 28.1578 13.7663 28.9628 13.1941C29.7678 12.6218 30.5659 12.0565 31.3982 11.636C32.2236 11.2085 33.0831 10.9327 33.9017 10.8362C34.7203 10.7328 35.5116 10.788 36.187 10.8018C36.5281 10.8155 36.8419 10.8086 37.1147 10.8018C37.3876 10.788 37.6264 10.7673 37.8242 10.7466C38.213 10.6777 38.4177 10.6225 38.4177 10.5949C38.4177 10.5673 38.1926 10.5536 37.8174 10.5467C37.6264 10.526 37.3944 10.5122 37.1352 10.4777C36.8692 10.4364 36.569 10.395 36.2416 10.3398C35.5799 10.2295 34.7817 10.071 33.854 10.0779C32.933 10.0779 31.9234 10.2916 30.9616 10.6708C29.9929 11.0431 29.0856 11.567 28.2261 12.0703C27.3665 12.5736 26.5411 13.07 25.7634 13.4078C24.9789 13.7594 24.2149 13.98 23.5464 14.111C22.8778 14.242 22.3116 14.2696 21.8887 14.2558C21.0428 14.2351 20.3061 14.0352 19.7262 13.6836C19.4329 13.5112 19.1805 13.2975 18.9554 13.0769C18.8462 12.9597 18.7371 12.8494 18.6484 12.7322C18.5461 12.615 18.4642 12.4977 18.3823 12.3805C17.7275 11.4291 17.4341 10.657 17.1681 10.7121L17.1544 10.719Z" fill="white"/>
<path d="M12.5833 8.96789C13.5997 8.93342 14.4524 9.71937 14.4934 10.719C14.5275 11.7187 13.7362 12.5598 12.7129 12.5943C11.6965 12.6288 10.8438 11.8428 10.8028 10.8431C10.7687 9.84346 11.56 9.00236 12.5833 8.96789Z" fill="white"/>
<path d="M42.5379 8.03027C43.452 7.9958 44.216 8.69901 44.2501 9.60217C44.2842 10.4984 43.568 11.2568 42.6538 11.2844C41.7397 11.3188 40.9757 10.6156 40.9416 9.71247C40.9075 8.80932 41.6238 8.05784 42.5379 8.03027Z" fill="white"/>
<path d="M33.124 15.7655C33.1308 15.8482 33.2195 15.9171 33.3764 15.9654C33.4515 15.993 33.547 16.0137 33.6561 16.0275C33.7653 16.0412 33.8881 16.0481 34.0177 16.055C34.5566 16.0619 35.3001 15.9447 36.0642 15.6207C36.4394 15.4552 37.0397 15.1381 37.64 14.6555C38.2403 14.1798 38.827 13.5455 39.284 12.9043C39.4 12.7458 39.5023 12.5803 39.6046 12.4217C39.6524 12.339 39.7001 12.2494 39.7479 12.1667C39.7957 12.0839 39.8298 12.0012 39.8707 11.9185C40.0139 11.5944 40.1163 11.3049 40.2118 11.0636C40.3005 10.8223 40.3823 10.6292 40.4437 10.4913C40.5051 10.3603 40.5392 10.2776 40.5256 10.2638C40.5119 10.2569 40.4437 10.3052 40.3346 10.4155C40.2254 10.5258 40.089 10.6982 39.9389 10.9188C39.7888 11.1394 39.6251 11.4014 39.4341 11.6703C39.3863 11.7323 39.3386 11.8013 39.284 11.8702C39.2295 11.9322 39.1749 11.9943 39.1203 12.0563C38.9975 12.1804 38.8747 12.3183 38.7383 12.4493C38.2062 12.9664 37.5991 13.4559 37.026 13.8006C36.453 14.1522 35.9141 14.3728 35.5867 14.5176C34.9318 14.7934 34.3178 15.0209 33.8608 15.2139C33.7448 15.2622 33.6425 15.3104 33.5538 15.3587C33.4651 15.4001 33.3832 15.4483 33.3219 15.4897C33.1922 15.5793 33.124 15.669 33.1377 15.7517L33.124 15.7655Z" fill="white"/>
</g>
<defs>
<linearGradient id="paint0_linear_36_453" x1="42.25" y1="9.22583" x2="264.25" y2="9.22583" gradientUnits="userSpaceOnUse">
<stop stop-color="white"/>
<stop offset="1" stop-color="white" stop-opacity="0"/>
</linearGradient>
<clipPath id="clip0_36_453">
<rect width="44" height="21" fill="white" transform="translate(0.25 0.22583)"/>
</clipPath>
</defs>
</svg>
