<svg width="248" height="21" viewBox="0 0 248 21" fill="none" xmlns="http://www.w3.org/2000/svg">
<line x1="247.101" y1="9.7988" x2="39.3114" y2="9.7988" stroke="url(#paint0_linear_70_1493)" stroke-width="0.935988"/>
<g clip-path="url(#clip0_70_1493)">
<path d="M4.85941 5.58532C4.80833 5.47562 4.71256 5.39818 4.55932 5.36592C4.41246 5.33365 4.20814 5.35301 3.98466 5.46271C3.76119 5.57241 3.51856 5.78536 3.35893 6.0951C3.19292 6.39839 3.1163 6.78557 3.16099 7.15339C3.17376 7.34053 3.23762 7.57283 3.35255 7.8245C3.46109 8.06971 3.6271 8.32138 3.84419 8.54723C4.0549 8.77309 4.3103 8.97313 4.58486 9.128C4.85941 9.28287 5.15312 9.39257 5.44045 9.47001C5.72778 9.54099 6.00233 9.57325 6.25773 9.57971C6.38544 9.57971 6.50037 9.57971 6.6153 9.5668C6.72384 9.55389 6.826 9.54744 6.92178 9.52808C7.01755 9.50872 7.10056 9.48936 7.17079 9.47646C7.24103 9.4571 7.30488 9.43774 7.35596 9.41838C7.45812 9.37966 7.5092 9.3474 7.5092 9.31513C7.5092 9.28932 7.45174 9.25706 7.35596 9.22479C7.24741 9.18608 7.11333 9.1409 6.96009 9.08928C6.87708 9.06347 6.79408 9.02475 6.70469 8.99249C6.6153 8.95377 6.51952 8.91505 6.42375 8.86988C6.23219 8.77954 6.04064 8.66338 5.86186 8.54078C5.68308 8.41172 5.52346 8.2633 5.38937 8.10843C5.25528 7.95356 5.15312 7.79223 5.08289 7.64382C5.01265 7.4954 4.96796 7.35989 4.9488 7.24373C4.94242 7.21792 4.94242 7.19211 4.93603 7.1663C4.93603 7.14048 4.92965 7.11467 4.92965 7.09531C4.92965 7.07595 4.92965 7.05014 4.92326 7.03724C4.92326 7.01788 4.92326 7.00497 4.92326 6.98561C4.91049 6.86301 4.89772 6.75976 4.89134 6.66296C4.88495 6.56617 4.87857 6.45002 4.89134 6.33386C4.91049 6.08865 4.9935 5.81763 4.89134 5.59823L4.85941 5.58532Z" fill="white"/>
<path d="M2.9626 9.39895C4.53332 10.0184 6.70423 10.1217 6.99156 10.1346C7.01071 10.1346 7.02348 10.1475 7.02348 10.1604L7.79607 10.7863C7.89823 10.8702 7.90462 11.0251 7.80884 11.1154L7.08095 11.793C7.08095 11.793 7.06818 11.8188 7.04902 11.8188C6.7617 11.8511 4.76957 12.0705 3.08392 12.8255C3.07115 12.8255 0.568218 11.5607 0.044646 11.2768C-0.00643427 11.2509 -0.0128193 11.1864 0.044646 11.1542C0.549063 10.8315 2.95622 9.39249 2.96899 9.39895H2.9626Z" fill="white"/>
<path d="M5.24899 16.5874C5.20429 16.6971 5.1149 16.781 4.96166 16.8262C4.81481 16.8713 4.61049 16.8649 4.38062 16.7681C4.15076 16.6778 3.89536 16.4777 3.7102 16.1809C3.52503 15.8905 3.42287 15.5098 3.43564 15.1355C3.43564 14.9484 3.48672 14.7096 3.57611 14.4579C3.67189 14.2063 3.81874 13.9417 4.01029 13.7029C4.20823 13.4642 4.44447 13.2448 4.71265 13.077C4.97443 12.9028 5.26176 12.7737 5.5427 12.6769C5.82364 12.5866 6.0982 12.535 6.34721 12.5156C6.47491 12.5091 6.58984 12.5027 6.69839 12.5027C6.80694 12.5027 6.9091 12.5091 7.00487 12.522C7.10065 12.535 7.18365 12.5479 7.25389 12.5608C7.33051 12.5737 7.38797 12.593 7.43905 12.6059C7.54121 12.6382 7.59868 12.6705 7.59868 12.6963C7.59868 12.7221 7.5476 12.7544 7.45182 12.7995C7.34328 12.8447 7.21558 12.9028 7.06872 12.9608C6.9921 12.9931 6.9091 13.0383 6.81971 13.077C6.73032 13.1222 6.64093 13.1673 6.55153 13.219C6.37275 13.3222 6.18759 13.4513 6.01519 13.5868C5.84918 13.7287 5.69594 13.8836 5.57463 14.0514C5.45331 14.2127 5.36392 14.3805 5.30007 14.5354C5.23622 14.6902 5.21068 14.8322 5.19791 14.9419C5.19152 14.9677 5.19791 15 5.19152 15.0193C5.19152 15.0452 5.19152 15.071 5.19152 15.0903C5.19152 15.1097 5.19152 15.1355 5.19152 15.1484C5.19152 15.1678 5.19152 15.1807 5.19152 15.2C5.19152 15.3226 5.18514 15.4259 5.18514 15.5291C5.18514 15.6324 5.18514 15.7421 5.20429 15.8582C5.23622 16.097 5.33838 16.368 5.24899 16.5939V16.5874Z" fill="white"/>
<path d="M7.65544 16.491C7.5852 16.5491 7.56605 16.6652 7.59797 16.8201C7.6299 16.9814 7.70652 17.1815 7.8406 17.4267C7.90445 17.5493 7.98746 17.6783 8.08324 17.8138C8.17901 17.9558 8.28756 18.0978 8.41526 18.2526C8.67066 18.5559 8.98352 18.885 9.39217 19.2141C9.79442 19.5368 10.2925 19.8594 10.8926 20.1176C11.4928 20.3692 12.2144 20.5564 12.9933 20.5628C13.7723 20.5822 14.5832 20.4144 15.3302 20.1176C16.0773 19.8207 16.7669 19.4077 17.3926 18.9302C18.0183 18.4591 18.7526 17.7751 19.5061 16.9362C20.2595 16.0974 21.0257 15.1101 21.8174 14.0582C22.6028 13.0064 23.4137 11.89 24.2757 10.8382C24.4928 10.5801 24.7162 10.3219 24.9397 10.0767C25.0546 9.95413 25.1696 9.83152 25.2845 9.71537C25.342 9.65084 25.3994 9.59922 25.4569 9.54759C25.5144 9.49597 25.5655 9.44434 25.6229 9.39272C26.089 8.99264 26.6254 8.63772 27.2 8.37315C27.7747 8.10213 28.3813 7.90209 28.9878 7.77948C29.5944 7.65042 30.2074 7.58589 30.7948 7.58589C31.9696 7.58589 33.0423 7.82465 33.8851 8.18602C34.3129 8.36025 34.6769 8.56674 34.9898 8.76678C35.3026 8.96683 35.5516 9.17332 35.7623 9.3411C35.9603 9.52178 36.1199 9.65729 36.2221 9.76054C36.3306 9.85733 36.3945 9.90896 36.4136 9.89605C36.4264 9.88315 36.4008 9.81216 36.3306 9.6831C36.2668 9.54759 36.1454 9.37336 35.9858 9.14106C35.8134 8.92165 35.5963 8.65708 35.2962 8.39251C35.0025 8.12149 34.645 7.83756 34.2108 7.57944C33.3488 7.05675 32.1931 6.63085 30.8714 6.46953C30.2138 6.38564 29.5114 6.37919 28.7899 6.45017C28.0684 6.5147 27.3341 6.66957 26.6062 6.92123C25.8783 7.16645 25.1632 7.52781 24.5055 7.99888C24.4225 8.05696 24.3459 8.12149 24.2629 8.17956C24.1799 8.24409 24.1033 8.30217 24.033 8.3667C23.8862 8.48931 23.7457 8.61191 23.5989 8.74097C23.3179 8.99264 23.0497 9.25076 22.788 9.51533C21.7472 10.5607 20.8341 11.6319 19.9785 12.6063C19.123 13.5871 18.3312 14.4712 17.6097 15.1875C16.8946 15.9102 16.2561 16.4523 15.7644 16.8265C15.2728 17.2008 14.7811 17.5041 14.3086 17.7235C13.8298 17.9364 13.3764 18.072 12.9295 18.1171C12.4825 18.1688 12.0483 18.1236 11.6205 18.0332C11.1991 17.9365 10.7905 17.788 10.4138 17.6267C10.0371 17.4654 9.69226 17.2847 9.39217 17.1169C9.23893 17.033 9.09207 16.9556 8.95798 16.8846C8.83028 16.8201 8.70258 16.7491 8.58127 16.6846C8.11516 16.4523 7.79591 16.3555 7.65544 16.4781V16.491Z" fill="white"/>
<path d="M15.8157 10.5412C16.0647 10.5735 16.2946 9.83785 16.8437 8.90217C16.9139 8.78602 16.9842 8.66986 17.0736 8.55371C17.1502 8.4311 17.246 8.32785 17.3417 8.2117C17.5397 7.9923 17.7632 7.77935 18.0249 7.59867C18.5421 7.23085 19.2189 6.99854 20.0043 6.92111C20.3938 6.88239 20.9301 6.87594 21.5622 6.95337C22.1944 7.03081 22.9223 7.19859 23.6821 7.46961C24.4291 7.73418 25.2336 8.14717 26.0701 8.56016C26.9065 8.97315 27.7877 9.41195 28.7135 9.69588C29.6393 9.98627 30.5907 10.1218 31.459 10.0637C32.3274 10.0121 33.0617 9.81204 33.6747 9.66362C33.9811 9.58618 34.2557 9.52811 34.5047 9.47648C34.7473 9.43131 34.9644 9.39905 35.1368 9.36678C35.488 9.33452 35.6923 9.30225 35.6923 9.27644C35.6923 9.25063 35.4944 9.21836 35.1304 9.17965C34.9517 9.17965 34.7218 9.16674 34.4664 9.17965C34.211 9.19255 33.9173 9.21191 33.6044 9.24418C32.9723 9.30225 32.2316 9.4055 31.4654 9.36033C30.6928 9.32161 29.8692 9.11512 29.071 8.76666C28.2729 8.4311 27.4876 7.94713 26.6958 7.46316C25.9041 6.97918 25.1123 6.48231 24.2567 6.10158C23.4203 5.72731 22.5839 5.47564 21.824 5.34013C21.0642 5.20462 20.3746 5.19171 19.8511 5.24334C19.3275 5.29496 18.8039 5.41111 18.325 5.6047C17.8462 5.79829 17.4056 6.06932 17.048 6.38551C16.6905 6.70171 16.4095 7.05662 16.1924 7.41153C16.0903 7.59222 15.9945 7.75999 15.9307 7.93422C15.854 8.102 15.7966 8.26978 15.7519 8.4311C15.5667 9.0764 15.5539 9.59909 15.5859 9.954C15.6306 10.3154 15.7199 10.509 15.8349 10.5219L15.8157 10.5412Z" fill="white"/>
<path d="M30.3867 4.68832C30.3867 4.76575 30.4506 4.84319 30.5783 4.92062C30.6421 4.95934 30.7187 4.99806 30.8081 5.03032C30.8975 5.06904 30.9933 5.10776 31.1082 5.14648C31.5488 5.30135 32.1362 5.46912 32.7683 5.68853C33.0812 5.79823 33.5984 5.97891 34.1539 6.26929C34.7158 6.55322 35.316 6.97267 35.8395 7.42437C35.9736 7.53407 36.0949 7.65668 36.2226 7.76638C36.2801 7.82446 36.3312 7.87608 36.3886 7.93416C36.4397 7.99223 36.4908 8.05031 36.5419 8.10839C36.7398 8.34715 36.9122 8.57945 37.0655 8.77304C37.2187 8.96663 37.3656 9.1215 37.4677 9.2183C37.5826 9.31509 37.6465 9.35381 37.6593 9.34736C37.672 9.33445 37.6337 9.26347 37.5699 9.14732C37.506 9.02471 37.4166 8.85048 37.3145 8.63108C37.2123 8.41168 37.0974 8.14711 36.9378 7.85027C36.8931 7.77929 36.8548 7.70185 36.8101 7.63087C36.759 7.55989 36.7079 7.476 36.6568 7.40501C36.5483 7.2695 36.4461 7.12108 36.3248 6.97912C35.8523 6.41126 35.2713 5.84985 34.6775 5.44977C34.09 5.04323 33.509 4.77866 33.1451 4.6496C32.4108 4.39793 31.702 4.3334 31.204 4.37857C31.0763 4.39148 30.9678 4.40438 30.8656 4.42374C30.7634 4.44956 30.6804 4.47537 30.6102 4.50118C30.4697 4.55926 30.3931 4.63024 30.3931 4.70767L30.3867 4.68832Z" fill="white"/>
<path d="M7.25955 5.35947C7.4064 5.47562 7.71927 5.35947 8.16622 5.08844C8.28754 5.01746 8.40885 4.94002 8.53017 4.86904C8.65787 4.78515 8.79834 4.70127 8.9452 4.60447C9.23891 4.41733 9.56455 4.21729 9.92849 4.0237C10.2924 3.83657 10.6883 3.65588 11.1033 3.53328C11.5184 3.41712 11.9525 3.33969 12.3995 3.35905C12.8465 3.37195 13.3126 3.4752 13.8042 3.65588C14.2959 3.84302 14.8067 4.11405 15.3175 4.45605C15.8346 4.79161 16.5115 5.29494 17.2713 5.96605C18.0375 6.6307 18.8931 7.46314 19.8125 8.37946C20.7383 9.29578 21.7216 10.3024 22.8326 11.2768C23.1136 11.5221 23.3945 11.7608 23.6946 11.9931C23.8479 12.1093 23.9947 12.2254 24.1543 12.3351C24.231 12.3932 24.314 12.4448 24.397 12.5029C24.48 12.561 24.563 12.6191 24.6524 12.6707C25.342 13.0901 26.0826 13.4063 26.8233 13.5999C27.5639 13.8064 28.3174 13.9096 29.0389 13.9226C29.7604 13.9419 30.4628 13.8903 31.114 13.7612C32.423 13.516 33.5467 13.0062 34.3704 12.4255C34.7854 12.1351 35.1302 11.8318 35.3984 11.535C35.6729 11.2446 35.8773 10.9671 36.0305 10.7348C36.1774 10.496 36.2795 10.3089 36.337 10.1669C36.3944 10.0314 36.4136 9.95398 36.3944 9.94753C36.3753 9.94107 36.3178 9.9927 36.2221 10.0959C36.1263 10.2056 35.9794 10.3605 35.8006 10.5477C35.6091 10.7348 35.3728 10.9606 35.0727 11.18C34.779 11.4059 34.4215 11.6382 34.0128 11.8382C33.1955 12.2512 32.142 12.5739 30.9672 12.6513C30.3797 12.6965 29.7668 12.6707 29.1474 12.5868C28.5281 12.5029 27.9087 12.348 27.3149 12.1157C26.7211 11.8899 26.1656 11.5737 25.6676 11.2059C25.6037 11.1607 25.5463 11.1091 25.4888 11.0574C25.4313 11.0123 25.3675 10.9606 25.31 10.9026C25.1887 10.7929 25.061 10.6832 24.9397 10.567C24.6971 10.3347 24.4608 10.0959 24.2246 9.85073C23.286 8.86343 22.4048 7.79869 21.5429 6.80493C20.6873 5.81118 19.8444 4.8755 19.0399 4.09469C18.2354 3.30742 17.4564 2.68149 16.7924 2.24914C16.1347 1.81679 15.4196 1.44897 14.6534 1.20376C13.8872 0.964997 13.0635 0.848844 12.291 0.919827C11.512 0.977903 10.8096 1.21666 10.2222 1.50705C9.64117 1.80388 9.16867 2.16525 8.79196 2.51371C8.40885 2.86217 8.11514 3.21708 7.88528 3.53973C7.77035 3.70106 7.66819 3.84947 7.58519 3.99789C7.4958 4.13986 7.42556 4.27537 7.36809 4.40443C7.25316 4.65609 7.18931 4.86259 7.17016 5.02391C7.151 5.18524 7.17654 5.29494 7.25316 5.35301L7.25955 5.35947Z" fill="white"/>
<path d="M15.8216 10.7285C15.7067 10.7479 15.6301 10.9479 15.6109 11.3157C15.6045 11.6771 15.6492 12.1998 15.8855 12.8257C15.9429 12.9806 16.0132 13.1484 16.1026 13.3097C16.1792 13.4775 16.2941 13.6452 16.4027 13.813C16.6389 14.1486 16.9454 14.4841 17.3285 14.7745C17.7116 15.0649 18.1649 15.3037 18.6566 15.465C19.1482 15.6263 19.6782 15.7102 20.2018 15.7231C20.7317 15.736 21.4149 15.6779 22.162 15.4908C22.909 15.3037 23.7263 15.0004 24.5372 14.568C25.3609 14.1357 26.1207 13.5807 26.8741 13.0451C27.6275 12.5095 28.3746 11.9804 29.1536 11.5867C29.9262 11.1867 30.7307 10.9285 31.4969 10.8382C32.2631 10.7414 33.0037 10.793 33.6359 10.8059C33.9551 10.8188 34.2488 10.8124 34.5042 10.8059C34.7596 10.793 34.9831 10.7737 35.1683 10.7543C35.5322 10.6898 35.7238 10.6382 35.7238 10.6123C35.7238 10.5865 35.5131 10.5736 35.1619 10.5672C34.9831 10.5478 34.766 10.5349 34.5234 10.5026C34.2744 10.4639 33.9934 10.4252 33.6869 10.3736C33.0676 10.2703 32.3205 10.1219 31.4522 10.1284C30.5902 10.1284 29.6452 10.3284 28.7449 10.6833C27.8383 11.0318 26.989 11.5222 26.1845 11.9933C25.38 12.4644 24.6074 12.929 23.8795 13.2452C23.1453 13.5743 22.4301 13.7808 21.8044 13.9034C21.1787 14.026 20.6487 14.0518 20.2528 14.0389C19.4611 14.0195 18.7715 13.8324 18.2288 13.5033C17.9542 13.342 17.718 13.1419 17.5073 12.9354C17.4051 12.8257 17.303 12.7225 17.2199 12.6128C17.1242 12.5031 17.0476 12.3934 16.9709 12.2837C16.358 11.3932 16.0834 10.6704 15.8344 10.7221L15.8216 10.7285Z" fill="white"/>
<path d="M11.5444 9.0894C12.4958 9.05714 13.2939 9.79277 13.3322 10.7285C13.3642 11.6641 12.6235 12.4514 11.6658 12.4837C10.7144 12.5159 9.91626 11.7803 9.87795 10.8446C9.84602 9.90893 10.5867 9.12167 11.5444 9.0894Z" fill="white"/>
<path d="M39.5811 8.21183C40.4367 8.17957 41.1518 8.83777 41.1838 9.68311C41.2157 10.522 40.5453 11.2318 39.6897 11.2576C38.8341 11.2899 38.119 10.6317 38.087 9.78636C38.0551 8.94102 38.7255 8.23764 39.5811 8.21183Z" fill="white"/>
<path d="M30.7695 15.4518C30.7759 15.5293 30.8589 15.5938 31.0058 15.639C31.076 15.6648 31.1654 15.6841 31.2676 15.697C31.3697 15.7099 31.4847 15.7164 31.606 15.7229C32.1104 15.7293 32.8064 15.6196 33.5215 15.3163C33.8727 15.1614 34.4345 14.8646 34.9964 14.4129C35.5583 13.9676 36.1074 13.374 36.5352 12.7738C36.6438 12.6254 36.7395 12.4706 36.8353 12.3221C36.88 12.2447 36.9247 12.1608 36.9694 12.0834C37.0141 12.0059 37.046 11.9285 37.0843 11.8511C37.2184 11.5478 37.3142 11.2768 37.4036 11.0509C37.4866 10.8251 37.5632 10.6444 37.6207 10.5153C37.6781 10.3927 37.7101 10.3153 37.6973 10.3024C37.6845 10.2959 37.6207 10.3411 37.5185 10.4443C37.4163 10.5476 37.2886 10.7089 37.1482 10.9154C37.0077 11.1219 36.8545 11.3671 36.6757 11.6188C36.631 11.6768 36.5863 11.7414 36.5352 11.8059C36.4841 11.864 36.4331 11.9221 36.382 11.9801C36.267 12.0963 36.1521 12.2253 36.0244 12.348C35.5264 12.8319 34.9581 13.2901 34.4218 13.6127C33.8854 13.9418 33.381 14.1483 33.0745 14.2838C32.4616 14.542 31.8869 14.7549 31.4591 14.9356C31.3506 14.9808 31.2548 15.0259 31.1718 15.0711C31.0888 15.1098 31.0122 15.155 30.9547 15.1937C30.8334 15.2776 30.7695 15.3615 30.7823 15.4389L30.7695 15.4518Z" fill="white"/>
</g>
<defs>
<linearGradient id="paint0_linear_70_1493" x1="39.3114" y1="9.33081" x2="247.101" y2="9.33081" gradientUnits="userSpaceOnUse">
<stop stop-color="white"/>
<stop offset="1" stop-color="white" stop-opacity="0"/>
</linearGradient>
<clipPath id="clip0_70_1493">
<rect width="41.1834" height="19.6557" fill="white" transform="translate(0 0.906982)"/>
</clipPath>
</defs>
</svg>
