<svg width="264" height="22" viewBox="0 0 264 22" fill="none" xmlns="http://www.w3.org/2000/svg">
<line y1="-0.5" x2="222" y2="-0.5" transform="matrix(1 0 0 -1 0 9.22583)" stroke="url(#paint0_linear_36_467)"/>
<g clip-path="url(#clip0_36_467)">
<path d="M258.809 5.22409C258.863 5.10689 258.966 5.02416 259.129 4.98969C259.286 4.95521 259.505 4.9759 259.743 5.0931C259.982 5.2103 260.241 5.43782 260.412 5.76874C260.589 6.09277 260.671 6.50643 260.623 6.8994C260.61 7.09934 260.541 7.34753 260.419 7.61641C260.303 7.87839 260.125 8.14727 259.893 8.38857C259.668 8.62987 259.395 8.84359 259.102 9.00906C258.809 9.17452 258.495 9.29172 258.188 9.37445C257.881 9.45029 257.588 9.48476 257.315 9.49166C257.178 9.49166 257.056 9.49166 256.933 9.47787C256.817 9.46408 256.708 9.45718 256.605 9.4365C256.503 9.41582 256.414 9.39514 256.339 9.38135C256.264 9.36066 256.196 9.33998 256.141 9.3193C256.032 9.27793 255.978 9.24346 255.978 9.20899C255.978 9.18141 256.039 9.14694 256.141 9.11247C256.257 9.07111 256.401 9.02284 256.564 8.96769C256.653 8.94011 256.742 8.89875 256.837 8.86428C256.933 8.82291 257.035 8.78154 257.137 8.73328C257.342 8.63676 257.547 8.51267 257.738 8.38168C257.929 8.24379 258.099 8.08522 258.243 7.91976C258.386 7.7543 258.495 7.58194 258.57 7.42337C258.645 7.2648 258.693 7.12002 258.713 6.99592C258.72 6.96835 258.72 6.94077 258.727 6.91319C258.727 6.88562 258.734 6.85804 258.734 6.83736C258.734 6.81667 258.734 6.7891 258.741 6.77531C258.741 6.75462 258.741 6.74084 258.741 6.72015C258.754 6.58916 258.768 6.47885 258.775 6.37544C258.781 6.27202 258.788 6.14793 258.775 6.02383C258.754 5.76185 258.665 5.47229 258.775 5.23788L258.809 5.22409Z" fill="white"/>
<path d="M260.835 9.29861C259.157 9.96046 256.838 10.0708 256.531 10.0846C256.51 10.0846 256.496 10.0983 256.496 10.1121L255.671 10.7809C255.562 10.8705 255.555 11.036 255.657 11.1325L256.435 11.8564C256.435 11.8564 256.449 11.884 256.469 11.884C256.776 11.9184 258.905 12.1528 260.705 12.9595C260.719 12.9595 263.393 11.6082 263.953 11.3048C264.007 11.2773 264.014 11.2083 263.953 11.1739C263.414 10.8291 260.842 9.29171 260.828 9.29861H260.835Z" fill="white"/>
<path d="M258.393 16.9788C258.44 17.096 258.536 17.1857 258.7 17.2339C258.856 17.2822 259.075 17.2753 259.32 17.1719C259.566 17.0754 259.839 16.8616 260.037 16.5445C260.234 16.2342 260.344 15.8275 260.33 15.4276C260.33 15.2277 260.275 14.9726 260.18 14.7037C260.078 14.4348 259.921 14.1522 259.716 13.8971C259.504 13.642 259.252 13.4076 258.966 13.2283C258.686 13.0422 258.379 12.9043 258.079 12.8009C257.779 12.7044 257.485 12.6492 257.219 12.6285C257.083 12.6216 256.96 12.6147 256.844 12.6147C256.728 12.6147 256.619 12.6216 256.517 12.6354C256.414 12.6492 256.326 12.663 256.251 12.6768C256.169 12.6906 256.107 12.7113 256.053 12.7251C255.944 12.7595 255.882 12.794 255.882 12.8216C255.882 12.8492 255.937 12.8836 256.039 12.9319C256.155 12.9801 256.291 13.0422 256.448 13.1042C256.53 13.1387 256.619 13.187 256.714 13.2283C256.81 13.2766 256.905 13.3249 257.001 13.38C257.192 13.4903 257.39 13.6282 257.574 13.773C257.751 13.9247 257.915 14.0901 258.045 14.2694C258.174 14.4417 258.27 14.621 258.338 14.7864C258.406 14.9519 258.433 15.1036 258.447 15.2208C258.454 15.2484 258.447 15.2828 258.454 15.3035C258.454 15.3311 258.454 15.3587 258.454 15.3794C258.454 15.4 258.454 15.4276 258.454 15.4414C258.454 15.4621 258.454 15.4759 258.454 15.4966C258.454 15.6276 258.461 15.7379 258.461 15.8482C258.461 15.9585 258.461 16.0757 258.44 16.1998C258.406 16.4549 258.297 16.7444 258.393 16.9857V16.9788Z" fill="white"/>
<path d="M255.821 16.8756C255.896 16.9376 255.917 17.0617 255.882 17.2272C255.848 17.3996 255.766 17.6133 255.623 17.8753C255.555 18.0063 255.466 18.1441 255.364 18.2889C255.262 18.4406 255.146 18.5923 255.009 18.7577C254.736 19.0818 254.402 19.4334 253.966 19.785C253.536 20.1297 253.004 20.4744 252.362 20.7502C251.721 21.0191 250.95 21.219 250.118 21.2259C249.286 21.2466 248.42 21.0673 247.621 20.7502C246.823 20.4331 246.086 19.9918 245.418 19.4816C244.749 18.9784 243.965 18.2476 243.16 17.3513C242.355 16.455 241.536 15.4002 240.691 14.2765C239.851 13.1527 238.985 11.96 238.064 10.8362C237.832 10.5604 237.593 10.2847 237.355 10.0227C237.232 9.89168 237.109 9.76069 236.986 9.63659C236.925 9.56765 236.864 9.5125 236.802 9.45734C236.741 9.40219 236.686 9.34703 236.625 9.29188C236.127 8.86443 235.554 8.48525 234.94 8.20258C234.326 7.91302 233.678 7.6993 233.03 7.56831C232.382 7.43042 231.727 7.36148 231.099 7.36148C229.844 7.36148 228.698 7.61657 227.797 8.00265C227.34 8.18879 226.952 8.40941 226.617 8.62313C226.283 8.83686 226.017 9.05747 225.792 9.23673C225.58 9.42977 225.41 9.57455 225.301 9.68486C225.185 9.78827 225.117 9.84342 225.096 9.82964C225.082 9.81585 225.11 9.74001 225.185 9.60212C225.253 9.45734 225.383 9.2712 225.553 9.023C225.737 8.7886 225.969 8.50593 226.29 8.22327C226.604 7.93371 226.986 7.63036 227.45 7.35459C228.371 6.79615 229.605 6.34113 231.017 6.16877C231.72 6.07914 232.47 6.07225 233.241 6.14809C234.012 6.21703 234.797 6.38249 235.574 6.65137C236.352 6.91335 237.116 7.29943 237.819 7.80271C237.907 7.86476 237.989 7.93371 238.078 7.99575C238.166 8.0647 238.248 8.12675 238.323 8.19569C238.48 8.32668 238.63 8.45767 238.787 8.59556C239.087 8.86443 239.374 9.14021 239.654 9.42287C240.766 10.5397 241.741 11.6842 242.655 12.7252C243.569 13.7732 244.415 14.7177 245.186 15.483C245.95 16.2551 246.632 16.8342 247.157 17.2341C247.683 17.634 248.208 17.958 248.713 18.1924C249.224 18.4199 249.709 18.5647 250.186 18.613C250.664 18.6681 251.128 18.6199 251.585 18.5233C252.035 18.4199 252.472 18.2613 252.874 18.089C253.277 17.9166 253.645 17.7236 253.966 17.5443C254.129 17.4547 254.286 17.372 254.429 17.2961C254.566 17.2272 254.702 17.1514 254.832 17.0824C255.33 16.8342 255.671 16.7308 255.821 16.8618V16.8756Z" fill="white"/>
<path d="M247.102 10.519C246.836 10.5535 246.591 9.76751 246.004 8.76784C245.929 8.64374 245.854 8.51964 245.758 8.39555C245.676 8.26456 245.574 8.15425 245.472 8.03015C245.26 7.79574 245.022 7.56823 244.742 7.37519C244.189 6.98222 243.466 6.73402 242.627 6.65129C242.211 6.60993 241.638 6.60303 240.963 6.68576C240.287 6.76849 239.51 6.94775 238.698 7.23731C237.9 7.51997 237.04 7.96121 236.147 8.40244C235.253 8.84368 234.312 9.31249 233.322 9.61584C232.333 9.92608 231.317 10.0709 230.389 10.0088C229.461 9.95366 228.677 9.73993 228.022 9.58136C227.694 9.49863 227.401 9.43658 227.135 9.38143C226.876 9.33317 226.644 9.2987 226.46 9.26423C226.085 9.22976 225.866 9.19528 225.866 9.16771C225.866 9.14013 226.078 9.10566 226.467 9.06429C226.658 9.06429 226.903 9.0505 227.176 9.06429C227.449 9.07808 227.763 9.09876 228.097 9.13324C228.772 9.19528 229.564 9.30559 230.382 9.25733C231.208 9.21597 232.088 8.99535 232.94 8.62306C233.793 8.26456 234.632 7.74748 235.478 7.23041C236.324 6.71334 237.17 6.18248 238.084 5.77572C238.978 5.37585 239.871 5.10697 240.683 4.96219C241.495 4.81741 242.232 4.80362 242.791 4.85878C243.35 4.91393 243.91 5.03803 244.421 5.24486C244.933 5.45169 245.404 5.74125 245.786 6.07907C246.168 6.41689 246.468 6.79607 246.7 7.17526C246.809 7.3683 246.911 7.54755 246.979 7.7337C247.061 7.91295 247.123 8.0922 247.17 8.26456C247.368 8.95398 247.382 9.51242 247.348 9.89161C247.3 10.2777 247.205 10.4845 247.082 10.4983L247.102 10.519Z" fill="white"/>
<path d="M231.535 4.26583C231.535 4.34856 231.467 4.43129 231.331 4.51403C231.262 4.55539 231.18 4.59676 231.085 4.63123C230.989 4.67259 230.887 4.71396 230.764 4.75533C230.294 4.92079 229.666 5.10004 228.991 5.33445C228.656 5.45165 228.104 5.64469 227.51 5.95493C226.91 6.25828 226.269 6.70641 225.709 7.18901C225.566 7.30621 225.437 7.4372 225.3 7.55441C225.239 7.61645 225.184 7.67161 225.123 7.73366C225.068 7.79571 225.014 7.85775 224.959 7.9198C224.748 8.17489 224.563 8.42309 224.4 8.62991C224.236 8.83674 224.079 9.00221 223.97 9.10562C223.847 9.20904 223.779 9.2504 223.765 9.24351C223.752 9.22972 223.793 9.15388 223.861 9.02978C223.929 8.89879 224.024 8.71265 224.134 8.47824C224.243 8.24384 224.366 7.96117 224.536 7.64403C224.584 7.56819 224.625 7.48546 224.673 7.40963C224.727 7.33379 224.782 7.24416 224.836 7.16833C224.952 7.02355 225.061 6.86498 225.191 6.7133C225.696 6.10661 226.317 5.5068 226.951 5.07936C227.579 4.64502 228.199 4.36235 228.588 4.22447C229.373 3.95559 230.13 3.88665 230.662 3.93491C230.798 3.94869 230.914 3.96248 231.024 3.98316C231.133 4.01074 231.221 4.03832 231.296 4.0659C231.446 4.12795 231.528 4.20378 231.528 4.28651L231.535 4.26583Z" fill="white"/>
<path d="M256.244 4.98287C256.087 5.10697 255.753 4.98287 255.275 4.69331C255.145 4.61747 255.016 4.53474 254.886 4.4589C254.75 4.36928 254.6 4.27965 254.443 4.17624C254.129 3.9763 253.781 3.76258 253.392 3.55575C253.003 3.35582 252.58 3.16278 252.137 3.03179C251.694 2.90769 251.23 2.82496 250.752 2.84564C250.275 2.85943 249.777 2.96974 249.251 3.16278C248.726 3.36271 248.18 3.65227 247.635 4.01767C247.082 4.37617 246.359 4.91393 245.547 5.63093C244.729 6.34104 243.815 7.23041 242.832 8.2094C241.843 9.18838 240.793 10.2639 239.606 11.3049C239.305 11.5669 239.005 11.822 238.685 12.0702C238.521 12.1943 238.364 12.3184 238.193 12.4356C238.112 12.4976 238.023 12.5528 237.934 12.6148C237.846 12.6769 237.757 12.7389 237.661 12.7941C236.925 13.2422 236.133 13.58 235.342 13.7869C234.551 14.0075 233.746 14.1178 232.975 14.1316C232.204 14.1523 231.454 14.0971 230.758 13.9592C229.359 13.6972 228.159 13.1526 227.279 12.5321C226.835 12.2219 226.467 11.8978 226.18 11.5807C225.887 11.2705 225.669 10.974 225.505 10.7258C225.348 10.4707 225.239 10.2708 225.178 10.1191C225.116 9.97433 225.096 9.8916 225.116 9.88471C225.137 9.87781 225.198 9.93297 225.3 10.0433C225.403 10.1605 225.56 10.3259 225.751 10.5259C225.955 10.7258 226.208 10.9671 226.528 11.2015C226.842 11.4428 227.224 11.691 227.661 11.9047C228.534 12.346 229.659 12.6907 230.915 12.7734C231.542 12.8217 232.197 12.7941 232.859 12.7045C233.521 12.6148 234.182 12.4494 234.817 12.2012C235.451 11.9599 236.045 11.6221 236.577 11.2291C236.645 11.1808 236.706 11.1257 236.768 11.0705C236.829 11.0223 236.897 10.9671 236.959 10.9051C237.088 10.7879 237.225 10.6707 237.354 10.5466C237.614 10.2984 237.866 10.0433 238.118 9.78129C239.121 8.72647 240.063 7.58891 240.984 6.52719C241.898 5.46547 242.798 4.4658 243.658 3.63159C244.517 2.79048 245.349 2.12174 246.059 1.65982C246.762 1.1979 247.526 0.80493 248.344 0.542947C249.163 0.287859 250.043 0.163762 250.868 0.239599C251.7 0.301647 252.451 0.556736 253.078 0.866979C253.699 1.18412 254.204 1.5702 254.606 1.94249C255.016 2.31478 255.33 2.69396 255.575 3.03868C255.698 3.21104 255.807 3.36961 255.896 3.52817C255.991 3.67985 256.066 3.82463 256.128 3.96251C256.251 4.23139 256.319 4.45201 256.339 4.62437C256.36 4.79672 256.332 4.91393 256.251 4.97597L256.244 4.98287Z" fill="white"/>
<path d="M247.096 10.719C247.218 10.7397 247.3 10.9534 247.321 11.3464C247.328 11.7325 247.28 12.2909 247.027 12.9597C246.966 13.1251 246.891 13.3044 246.795 13.4767C246.714 13.656 246.591 13.8352 246.475 14.0145C246.222 14.373 245.895 14.7315 245.486 15.0417C245.076 15.352 244.592 15.6071 244.067 15.7794C243.541 15.9518 242.975 16.0414 242.416 16.0552C241.85 16.069 241.12 16.0069 240.322 15.807C239.523 15.6071 238.65 15.283 237.784 14.8211C236.904 14.3592 236.092 13.7663 235.287 13.1941C234.482 12.6218 233.684 12.0565 232.852 11.636C232.026 11.2085 231.167 10.9327 230.348 10.8362C229.53 10.7328 228.738 10.788 228.063 10.8018C227.722 10.8155 227.408 10.8086 227.135 10.8018C226.862 10.788 226.624 10.7673 226.426 10.7466C226.037 10.6777 225.832 10.6225 225.832 10.5949C225.832 10.5673 226.057 10.5536 226.433 10.5467C226.624 10.526 226.856 10.5122 227.115 10.4777C227.381 10.4364 227.681 10.395 228.008 10.3398C228.67 10.2295 229.468 10.071 230.396 10.0779C231.317 10.0779 232.327 10.2916 233.288 10.6708C234.257 11.0431 235.164 11.567 236.024 12.0703C236.883 12.5736 237.709 13.07 238.487 13.4078C239.271 13.7594 240.035 13.98 240.704 14.111C241.372 14.242 241.938 14.2696 242.361 14.2558C243.207 14.2351 243.944 14.0352 244.524 13.6836C244.817 13.5112 245.07 13.2975 245.295 13.0769C245.404 12.9597 245.513 12.8494 245.602 12.7322C245.704 12.615 245.786 12.4977 245.868 12.3805C246.523 11.4291 246.816 10.657 247.082 10.7121L247.096 10.719Z" fill="white"/>
<path d="M251.667 8.96789C250.65 8.93342 249.798 9.71937 249.757 10.719C249.723 11.7187 250.514 12.5598 251.537 12.5943C252.554 12.6288 253.406 11.8428 253.447 10.8431C253.481 9.84346 252.69 9.00236 251.667 8.96789Z" fill="white"/>
<path d="M221.712 8.03027C220.798 7.9958 220.034 8.69901 220 9.60217C219.966 10.4984 220.682 11.2568 221.596 11.2844C222.51 11.3188 223.274 10.6156 223.308 9.71247C223.343 8.80932 222.626 8.05784 221.712 8.03027Z" fill="white"/>
<path d="M231.126 15.7655C231.119 15.8482 231.03 15.9171 230.874 15.9654C230.799 15.993 230.703 16.0137 230.594 16.0275C230.485 16.0412 230.362 16.0481 230.232 16.055C229.693 16.0619 228.95 15.9447 228.186 15.6207C227.811 15.4552 227.21 15.1381 226.61 14.6555C226.01 14.1798 225.423 13.5455 224.966 12.9043C224.85 12.7458 224.748 12.5803 224.645 12.4217C224.598 12.339 224.55 12.2494 224.502 12.1667C224.454 12.0839 224.42 12.0012 224.379 11.9185C224.236 11.5944 224.134 11.3049 224.038 11.0636C223.95 10.8223 223.868 10.6292 223.806 10.4913C223.745 10.3603 223.711 10.2776 223.724 10.2638C223.738 10.2569 223.806 10.3052 223.915 10.4155C224.025 10.5258 224.161 10.6982 224.311 10.9188C224.461 11.1394 224.625 11.4014 224.816 11.6703C224.864 11.7323 224.911 11.8013 224.966 11.8702C225.021 11.9322 225.075 11.9943 225.13 12.0563C225.252 12.1804 225.375 12.3183 225.512 12.4493C226.044 12.9664 226.651 13.4559 227.224 13.8006C227.797 14.1522 228.336 14.3728 228.663 14.5176C229.318 14.7934 229.932 15.0209 230.389 15.2139C230.505 15.2622 230.608 15.3104 230.696 15.3587C230.785 15.4001 230.867 15.4483 230.928 15.4897C231.058 15.5793 231.126 15.669 231.112 15.7517L231.126 15.7655Z" fill="white"/>
</g>
<defs>
<linearGradient id="paint0_linear_36_467" x1="222" y1="0" x2="0" y2="-1.60182e-08" gradientUnits="userSpaceOnUse">
<stop stop-color="white"/>
<stop offset="1" stop-color="white" stop-opacity="0"/>
</linearGradient>
<clipPath id="clip0_36_467">
<rect width="44" height="21" fill="white" transform="matrix(-1 0 0 1 264 0.22583)"/>
</clipPath>
</defs>
</svg>
