<svg width="87" height="71" viewBox="0 0 87 71" fill="none" xmlns="http://www.w3.org/2000/svg">
<g clip-path="url(#clip0_61_869)">
<path d="M79.5502 3.68994H6.4502V62.5899H79.5502V3.68994Z" fill="#EF9D18"/>
<path d="M0.730469 60.57L9.31047 56.46H76.9105L85.3005 60.57H0.730469Z" fill="#AB2740"/>
<path d="M85.3 60.5701H0.71C0.317878 60.5701 0 60.8879 0 61.2801V65.0001C0 65.3922 0.317878 65.7101 0.71 65.7101H85.3C85.6921 65.7101 86.01 65.3922 86.01 65.0001V61.2801C86.01 60.8879 85.6921 60.5701 85.3 60.5701Z" fill="#9A2133"/>
<path d="M8.65973 34.75C17.6697 44.09 19.9197 60.57 19.9197 60.57H4.46973V8.63C4.46973 3.88 8.34973 0 13.0897 0H31.1797C31.1797 5.56 30.0897 10.08 27.8197 14.32C24.3297 20.87 18.0397 26.74 8.65973 34.76V34.75Z" fill="#D12646"/>
<path d="M31.1797 0C31.1797 5.56 30.0897 10.08 27.8197 14.32C24.1397 12.55 23.1397 11.4 18.4697 7.84C14.2897 14.08 4.46973 14.96 4.46973 14.96V8.62C4.46973 3.88 8.34973 0 13.0897 0H31.1797Z" fill="#BC1B3D"/>
<path d="M20.7997 0C16.9397 12.55 4.46973 13.27 4.46973 13.27V8.62C4.46973 3.88 8.34973 0 13.0897 0H20.7997Z" fill="#EC3B54"/>
<path d="M14.5303 0C14.5303 0 22.9803 15.69 43.0103 15.69V0H14.5303Z" fill="#EC3B54"/>
<path d="M7.26961 34.9299C7.26961 34.9299 11.5496 40.8599 11.8796 45.0499C7.26961 37.1699 7.26961 36.3199 7.26961 36.3199V42.6399L5.59961 36.3199V34.9299H7.26961Z" fill="#BC1B3D"/>
<path d="M20.8796 11.8301C19.8296 15.7701 18.7096 21.7301 9.09961 30.2501C16.8596 19.4701 18.4696 15.6901 20.8796 11.8301Z" fill="#BC1B3D"/>
<path d="M77.3503 34.75C68.3403 44.09 66.0903 60.57 66.0903 60.57H81.5403V8.63C81.5403 3.89 77.6603 0 72.9103 0H54.8203C54.8203 5.56 55.9103 10.08 58.1803 14.32C61.6703 20.87 67.9603 26.74 77.3403 34.76L77.3503 34.75Z" fill="#D12646"/>
<path d="M54.8303 -9.76585e-06C54.8303 5.55999 55.9203 10.08 58.1903 14.32C61.8703 12.55 62.8703 11.4 67.5403 7.83999C71.7203 14.08 81.5403 14.96 81.5403 14.96V8.61999C81.5403 3.87999 77.6603 -0.0100098 72.9103 -0.0100098H54.8203L54.8303 -9.76585e-06Z" fill="#BC1B3D"/>
<path d="M65.2102 -9.76585e-06C69.0702 12.55 81.5402 13.27 81.5402 13.27V8.61999C81.5402 3.87999 77.6602 -0.0100098 72.9102 -0.0100098H65.2002L65.2102 -9.76585e-06Z" fill="#EC3B54"/>
<path d="M71.4898 0C71.4898 0 63.0398 15.69 43.0098 15.69V0H71.4898Z" fill="#EC3B54"/>
<path d="M78.7496 34.9299C78.7496 34.9299 74.4696 40.8599 74.1396 45.0499C78.7496 37.1699 78.7496 36.3199 78.7496 36.3199V42.6399L80.4196 36.3199V34.9299H78.7496Z" fill="#BC1B3D"/>
<path d="M65.1299 11.8301C66.1799 15.7701 67.2999 21.7301 76.9099 30.2501C69.1499 19.4701 67.5399 15.6901 65.1299 11.8301Z" fill="#BC1B3D"/>
<path d="M82.8104 65.71H3.19043V70.46H82.8104V65.71Z" fill="#A81F33"/>
<path d="M82.8104 65.71H3.19043V68.08H82.8104V65.71Z" fill="#540816"/>
<path d="M24.6602 3.5C24.6602 3.5 32.8702 11.83 43.0002 11.83C53.1302 11.83 61.5902 3.5 61.5902 3.5C61.5902 3.5 53.6302 8.93 43.1302 8.93C32.6302 8.93 24.6602 3.5 24.6602 3.5Z" fill="#D12646"/>
<g style="mix-blend-mode:multiply">
<path d="M85.3001 60.57H81.5401V8.63C81.5401 3.89 77.6601 0 72.9101 0H68.0801C72.8201 0 76.7101 3.88 76.7101 8.63V60.57H80.4701C80.8601 60.57 81.1801 60.89 81.1801 61.28V65C81.1801 65.39 80.8601 65.71 80.4701 65.71H77.9901V70.46H82.8201V65.71H85.3001C85.6901 65.71 86.0101 65.39 86.0101 65V61.28C86.0101 60.89 85.6901 60.57 85.3001 60.57Z" fill="#D1D3D4"/>
</g>
<g style="mix-blend-mode:multiply">
<path d="M0.729531 60.57H4.48953V8.63C4.48953 3.88 8.36953 0 13.1095 0H17.9395C13.1995 0 9.30953 3.88 9.30953 8.63V60.57H5.54953C5.15953 60.57 4.83953 60.89 4.83953 61.28V65C4.83953 65.39 5.15953 65.71 5.54953 65.71H8.02953V70.46H3.20953V65.71H0.729531C0.339531 65.71 0.0195312 65.39 0.0195312 65V61.28C0.0195312 60.89 0.339531 60.57 0.729531 60.57Z" fill="#D1D3D4"/>
</g>
<path d="M10.0697 34.85V35.01C10.0697 35.15 10.0497 35.2801 9.99973 35.4001C9.84973 35.9301 9.33973 36.32 8.75973 36.32H4.46973V33.55H8.76973C9.34973 33.55 9.84973 33.95 10.0097 34.48C10.0597 34.6 10.0797 34.7201 10.0797 34.8601L10.0697 34.85Z" fill="#EF9D18"/>
<path d="M10.0697 34.85V35.01C10.0697 35.15 10.0497 35.28 9.99973 35.4H4.46973V34.47H9.99973C10.0497 34.59 10.0697 34.71 10.0697 34.85Z" fill="#F4B84D"/>
<path d="M81.5397 33.55V36.32H77.2397C76.6597 36.32 76.1597 35.93 75.9997 35.4C75.9497 35.28 75.9297 35.15 75.9297 35.01V34.85C75.9297 34.71 75.9497 34.59 75.9997 34.47C76.1497 33.94 76.6597 33.54 77.2397 33.54H81.5397V33.55Z" fill="#EF9D18"/>
<path d="M81.5404 34.47V35.4H76.0104C75.9604 35.28 75.9404 35.15 75.9404 35.01V34.85C75.9404 34.71 75.9604 34.59 76.0104 34.47H81.5404Z" fill="#F4B84D"/>
</g>
<defs>
<clipPath id="clip0_61_869">
<rect width="86.01" height="70.45" fill="white"/>
</clipPath>
</defs>
</svg>
