<svg width="95" height="66" viewBox="0 0 95 66" fill="none" xmlns="http://www.w3.org/2000/svg">
<g clip-path="url(#clip0_61_829)">
<path d="M91.7003 26.2C83.7003 35.58 75.1103 32.05 71.2003 34.57C64.6903 38.75 64.9103 44.64 64.9103 44.64L63.0303 39.93C63.0303 39.93 64.2403 30.65 76.8403 29.32C89.4503 28 90.4503 16.01 77.4503 14.26C79.3403 11.87 80.8103 10.15 81.9103 8.90996C84.0303 6.54996 84.8403 5.95996 84.8403 5.95996C84.8403 5.95996 101.95 14.17 91.7003 26.2Z" fill="#EC3B54"/>
<path d="M91.7001 26.2C83.7001 35.58 75.1101 32.05 71.2001 34.57C64.6901 38.75 64.9101 44.64 64.9101 44.64C64.9101 44.64 61.8601 34.91 74.7001 32.45C87.5401 29.99 90.9501 26.51 90.9501 23.13C90.9501 19.75 90.5601 13.62 81.9101 8.90996C84.0301 6.54996 84.8401 5.95996 84.8401 5.95996C84.8401 5.95996 101.95 14.17 91.7001 26.2Z" fill="#D12646"/>
<path d="M77.9903 42.1599L76.0903 44.5099L74.2803 46.7399L50.2303 43.3199L37.8603 38.5599L35.3603 34.2199C35.3603 34.2199 34.6203 27.4399 44.0403 29.4599C53.4603 31.4799 73.7703 38.5599 73.7703 38.5599L77.9903 42.1599Z" fill="#912338"/>
<path d="M76.0903 44.5099L74.2803 46.7399L50.2304 43.3199L37.8604 38.5599L35.3604 34.2199C35.3604 34.2199 35.6304 30.7399 42.3204 32.9699C49.0104 35.1999 74.4004 41.5899 74.4004 41.5899L76.0903 44.4999V44.5099Z" fill="#540816"/>
<path d="M90.1897 54.6199C89.7397 55.7199 89.1197 56.7299 88.3797 57.2699C86.4097 58.7499 83.1697 59.2599 74.7597 59.2599C66.3497 59.2599 60.6397 51.5599 55.1997 49.3299C49.7297 47.0999 46.0097 47.5999 39.3197 46.1199C32.6297 44.6299 35.4997 32.6199 35.4997 32.6199C35.4397 34.4099 40.0697 36.5299 45.9897 38.4099C54.5797 41.1399 65.8897 43.3599 69.5597 43.3199C75.7397 43.2299 74.7597 40.6799 73.7797 38.5699C82.4297 41.9299 89.1197 48.5899 90.3697 49.8299C91.1397 50.6099 90.9597 52.7799 90.1897 54.6199Z" fill="#7094F9"/>
<path d="M90.19 54.62C89.74 55.72 89.12 56.73 88.38 57.27C86.42 58.76 83.18 59.26 74.76 59.26C66.34 59.26 60.64 51.56 55.2 49.33C49.73 47.1 46.01 47.61 39.32 46.12C32.63 44.63 35.37 34.23 35.37 34.23C35.37 34.23 35.61 42.49 41.08 43.33C46.52 44.13 53.45 45.62 57.16 46.75C60.88 47.85 69.05 56.03 73.51 56.53C77.49 56.98 82.04 58.79 90.19 54.63V54.62Z" fill="#6060F4"/>
<path d="M90.3703 49.8299C87.5403 53.9199 78.2003 54.0799 69.2703 48.7499C60.3303 43.4199 45.3203 38.5699 45.3203 38.5699L45.9903 38.4099C54.5803 41.1399 65.8903 43.3599 69.5603 43.3199C75.7403 43.2299 74.7603 40.6799 73.7803 38.5699C82.4303 41.9299 89.1203 48.5899 90.3703 49.8299Z" fill="#A2BEFC"/>
<path d="M27.4101 29.58L24.4101 32.03C24.4101 32.03 7.70011 34.5 1.33011 19.96C-5.02989 5.43 13.4501 0 13.4501 0L16.1101 3.82L19.2801 8.38C19.2801 8.38 5.45011 6.75 6.20011 18.82C6.95011 30.9 27.4101 29.58 27.4101 29.58Z" fill="#EC3B54"/>
<path d="M27.4105 29.5801L24.4105 32.0301C24.4105 32.0301 0.78053 29.6401 4.24053 15.0701C5.97053 7.78007 11.2605 4.88007 16.1105 3.82007L19.2805 8.38007C19.2805 8.38007 5.45053 6.75007 6.20053 18.8201C6.95053 30.9001 27.4105 29.5801 27.4105 29.5801Z" fill="#D12646"/>
<path d="M46.0299 21.0799C46.0299 26.9999 42.2599 30.3899 39.4299 35.0299C36.3999 39.9299 36.0999 46.2399 33.0699 51.2599C30.3299 55.6899 26.0199 59.4999 21.9799 62.7099C17.9299 65.9599 14.7099 66.2299 12.4299 65.1799C11.2299 64.6399 10.2899 63.7299 9.60994 62.7099C6.84994 58.5999 9.19994 50.3999 10.7399 46.1799C12.4399 41.4799 15.7099 34.3999 19.5699 31.2799L19.6299 31.2299L41.8099 13.4099L44.2799 11.4199C44.2799 11.4199 46.0299 16.3899 46.0299 21.0799Z" fill="#7094F9"/>
<path d="M46.0303 21.0799C46.0303 26.9999 42.2504 30.3899 39.4304 35.0199C36.4004 39.9299 36.1004 46.2299 33.0704 51.2499C30.3304 55.6799 26.0204 59.4899 21.9804 62.6999C15.8004 67.6699 11.5704 65.6699 9.61035 62.6999C19.5104 70.8799 29.4104 50.0599 30.2404 44.8599C31.0704 39.6599 39.0704 31.9899 41.5704 26.7799C44.0404 21.5799 41.5704 15.2999 41.5704 15.2999L41.8104 13.3999L44.2803 11.4099C44.2803 11.4099 46.0303 16.3799 46.0303 21.0699V21.0799Z" fill="#6060F4"/>
<path d="M15.56 56.5999C14.7 56.6899 13.9 56.3499 13.21 55.4499C10.91 52.4399 13.04 44.0199 14.22 40.7899C15.69 36.7399 18.51 30.6299 21.84 27.9399L21.89 27.8999L29.41 28.5899C31.21 28.7599 37.35 27.4899 36.89 28.8299C35.91 31.6899 19.95 56.1499 15.56 56.5999Z" fill="#A2BEFC"/>
<path d="M44.5502 12.4301C44.5502 14.2701 43.9902 16.3501 43.2102 18.3501C41.4002 23.0501 38.3302 27.3001 38.3302 27.3001C38.3302 27.3001 23.7302 47.8401 17.0402 42.4001C16.5602 42.0101 16.2702 41.5401 16.1202 40.9401C13.8902 33.5401 36.1002 12.1601 36.1002 12.1601C39.1902 9.07006 44.5402 10.2001 44.5402 12.4301H44.5502Z" fill="#912338"/>
<path d="M43.2101 18.3501C41.4001 23.0501 38.3301 27.3001 38.3301 27.3001C38.3301 27.3001 23.7301 47.8401 17.0401 42.4001C16.5601 42.0101 16.2701 41.5401 16.1201 40.9401C17.0101 39.8101 35.2101 17.1001 38.8301 15.6401C42.5501 14.1501 43.2001 18.3501 43.2001 18.3501H43.2101Z" fill="#540816"/>
</g>
<defs>
<clipPath id="clip0_61_829">
<rect width="94.97" height="65.73" fill="white"/>
</clipPath>
</defs>
</svg>
