<svg width="92" height="72" viewBox="0 0 92 72" fill="none" xmlns="http://www.w3.org/2000/svg">
<g clip-path="url(#clip0_61_780)">
<path d="M49.7499 19.3699V37.0099C49.7499 43.4799 46.7699 49.5899 41.6499 53.5599L34.3799 59.1999C32.7199 60.4799 30.6199 60.8999 28.6799 60.4499C27.7499 60.2299 26.8499 59.8199 26.0499 59.1999L18.7799 53.5599C13.6699 49.5899 10.6699 43.4799 10.6699 37.0099V19.3699C10.6699 14.7999 15.0999 11.5299 19.4599 12.8799L28.2099 15.5699C29.5099 15.9699 30.8999 15.9699 32.1999 15.5699L40.9599 12.8799C41.1099 12.8399 41.2699 12.7899 41.4299 12.7599C45.6399 11.7699 49.7399 14.9599 49.7399 19.3699H49.7499Z" fill="#912338"/>
<path d="M49.7497 19.37V37.01C49.7497 43.48 46.7697 49.59 41.6497 53.56L34.3797 59.2C32.7197 60.48 30.6197 60.9 28.6797 60.45C29.6097 60.23 30.5097 59.82 31.3097 59.2L38.5697 53.56C43.6797 49.59 46.6797 43.48 46.6797 37.01V19.37C46.6797 16.07 44.3697 13.44 41.4397 12.76C45.6497 11.77 49.7497 14.96 49.7497 19.37Z" fill="#540816"/>
<path d="M46.6798 28.0899C43.6698 26.2799 38.4898 23.2799 34.7298 24.8699C32.4198 25.8499 31.7998 29.1999 31.6298 31.2499C31.4098 33.8599 31.9498 36.4699 32.4398 39.0399C32.8898 41.4099 30.2198 41.9599 30.2198 41.9599C30.2198 41.9599 27.5398 41.4199 27.9998 39.0399C28.4898 36.4799 29.0298 33.8599 28.8098 31.2499C28.6398 29.1999 28.0198 25.8499 25.7098 24.8699C21.9598 23.2799 16.7698 26.2799 13.7598 28.0899C17.0098 26.1399 24.2398 24.4299 26.5898 28.2499C28.4298 31.2399 27.0198 35.6099 26.1898 38.8499C25.2798 42.3799 30.2298 42.0399 30.2298 42.0399C30.2298 42.0399 35.1798 42.3799 34.2698 38.8499C33.4398 35.6099 32.0298 31.2499 33.8698 28.2499C36.2198 24.4299 43.4498 26.1399 46.6998 28.0899H46.6798Z" fill="#540816"/>
<path d="M22.4297 50.4199C22.4297 50.4199 23.6097 47.4299 30.2097 47.4299C36.8097 47.4299 38.1697 50.4199 38.1697 50.4199V49.4699C38.1697 48.4199 37.6897 47.4399 36.8597 46.7999C35.6097 45.8199 33.4397 44.6299 30.2997 44.6299C27.1597 44.6299 24.9897 45.8199 23.7397 46.7999C22.9197 47.4399 22.4297 48.4299 22.4297 49.4699V50.4199Z" fill="#0D1320"/>
<path d="M24.6902 28.6101C24.6902 28.6101 24.6902 31.5001 22.2502 31.6001C19.8102 31.6901 14.7402 28.6101 14.7402 28.6101C14.7402 28.6101 23.1502 29.6001 24.6902 28.6101Z" fill="#0D1320"/>
<path d="M35.9102 28.6101C35.9102 28.6101 35.9102 31.5001 38.3502 31.6001C40.7902 31.6901 45.8602 28.6101 45.8602 28.6101C45.8602 28.6101 37.4502 29.6001 35.9102 28.6101Z" fill="#0D1320"/>
<path d="M79.9697 30.29V47.93C79.9697 54.4 76.9797 60.51 71.8697 64.48L64.5996 70.13C62.9496 71.4 60.8696 71.82 58.9396 71.38C58.9296 71.38 58.9097 71.37 58.8997 71.37C57.9597 71.16 57.0597 70.74 56.2696 70.13L48.9996 64.48C43.8896 60.51 40.8896 54.4 40.8896 47.93V30.29C40.8896 26.97 43.2296 24.34 46.1796 23.66C47.2896 23.41 48.4896 23.43 49.6796 23.8L58.4296 26.49C59.7296 26.89 61.1196 26.89 62.4296 26.49L71.1897 23.8C71.3397 23.75 71.4997 23.71 71.6497 23.68C75.8596 22.69 79.9697 25.88 79.9697 30.29Z" fill="#7094F9"/>
<path d="M79.9596 30.2899V47.9299C79.9596 54.3999 76.9796 60.5099 71.8596 64.4799L64.5896 70.1199C62.9296 71.3999 60.8296 71.8199 58.8896 71.3699C59.8196 71.1499 60.7196 70.7399 61.5196 70.1199L68.7796 64.4799C73.8896 60.5099 76.8896 54.3999 76.8896 47.9299V30.2899C76.8896 26.9899 74.5797 24.3599 71.6497 23.6799C75.8596 22.6899 79.9596 25.8799 79.9596 30.2899Z" fill="#6060F4"/>
<path d="M76.8897 39.0001C73.8797 37.1901 68.6997 34.1901 64.9397 35.7801C62.6297 36.7601 62.0097 40.1101 61.8397 42.1601C61.6197 44.7701 62.1597 47.3801 62.6497 49.9501C63.0997 52.3201 60.4297 52.8701 60.4297 52.8701C60.4297 52.8701 57.7497 52.3301 58.2097 49.9501C58.6997 47.3801 59.2397 44.7701 59.0197 42.1601C58.8497 40.1101 58.2297 36.7601 55.9197 35.7801C52.1697 34.1901 46.9797 37.1901 43.9697 39.0001C47.2197 37.0501 54.4497 35.3401 56.7997 39.1601C58.6397 42.1501 57.2297 46.5201 56.3997 49.7501C55.4897 53.2801 60.4397 52.9401 60.4397 52.9401C60.4397 52.9401 65.3897 53.2801 64.4797 49.7501C63.6497 46.5101 62.2397 42.1501 64.0797 39.1601C66.4297 35.3401 73.6597 37.0501 76.9097 39.0001H76.8897Z" fill="#A2BEFC"/>
<path d="M68.3904 55.54C68.3904 55.54 67.2104 58.52 60.6104 58.52C54.0104 58.52 52.6504 55.54 52.6504 55.54V56.49C52.6504 57.54 53.1304 58.52 53.9604 59.16C55.2104 60.14 57.3804 61.33 60.5204 61.33C63.6604 61.33 65.8304 60.14 67.0804 59.16C67.9004 58.52 68.3904 57.53 68.3904 56.49V55.54Z" fill="#0D1320"/>
<path d="M66.1299 42.51C66.1299 42.51 66.1299 39.62 68.5699 39.53C71.0099 39.44 76.0799 42.51 76.0799 42.51C76.0799 42.51 67.6699 41.52 66.1299 42.51Z" fill="#0D1320"/>
<path d="M54.91 42.51C54.91 42.51 54.91 39.62 52.47 39.53C50.03 39.44 44.96 42.51 44.96 42.51C44.96 42.51 53.37 41.52 54.91 42.51Z" fill="#0D1320"/>
<path d="M10.67 29.16H6.15C2.76 29.16 0 26.4 0 23.01C0 19.62 2.76 16.86 6.15 16.86H19.09C21.88 16.86 24.15 14.59 24.15 11.8V0H25.24V11.79C25.24 15.18 22.48 17.94 19.09 17.94H6.15C3.36 17.94 1.09 20.21 1.09 23C1.09 25.79 3.36 28.06 6.15 28.06H10.67V29.15V29.16Z" fill="#D8AB52"/>
<path d="M73.2697 68.4201H72.1797V61.1201C72.1797 56.3201 76.0897 52.4101 80.8897 52.4101H82.4597C86.6697 52.4101 90.0897 48.9901 90.0897 44.7801C90.0897 40.5701 86.6697 37.1501 82.4597 37.1501H79.9597V36.0601H82.4597C87.2597 36.0601 91.1697 39.9701 91.1697 44.7701C91.1697 49.5701 87.2597 53.4801 82.4597 53.4801H80.8897C76.6797 53.4801 73.2597 56.9001 73.2597 61.1101V68.4101L73.2697 68.4201Z" fill="#D8AB52"/>
<path d="M60.2896 70.9199C59.8496 71.1199 59.3996 71.2799 58.9396 71.3799C58.9296 71.3799 58.9097 71.3699 58.8997 71.3699C57.9597 71.1599 57.0597 70.7399 56.2696 70.1299L48.9996 64.4799C43.8896 60.5099 40.8896 54.3999 40.8896 47.9299V30.2899C40.8896 26.9699 43.2296 24.3399 46.1796 23.6599C46.3396 23.6999 46.5096 23.7499 46.6796 23.7999L47.6196 24.0899C45.2896 25.1299 43.5896 27.4599 43.5896 30.2899V47.9299C43.5896 54.3999 46.5896 60.5099 51.6996 64.4799L58.9697 70.1299C59.3797 70.4499 59.8297 70.7099 60.2896 70.9199Z" fill="#A2BEFC"/>
<path d="M75.9303 24.09L68.1303 26.49C66.8303 26.89 65.4403 26.89 64.1303 26.49L63.2803 26.23L71.1903 23.8C71.3403 23.75 71.5003 23.71 71.6503 23.68C73.1503 23.33 74.6403 23.5 75.9303 24.09Z" fill="#7094F9"/>
</g>
<defs>
<clipPath id="clip0_61_780">
<rect width="91.18" height="71.55" fill="white"/>
</clipPath>
</defs>
</svg>
