<svg width="568" height="80" viewBox="0 0 568 80" fill="none" xmlns="http://www.w3.org/2000/svg">
<g clip-path="url(#clip0_15_561)">
<path d="M0.853516 73.584C0.853516 73.584 3.46886 87.3955 21.3594 73.5084C21.3594 73.5084 4.5049 59.4827 0.853516 73.584ZM4.95974 73.5084C4.95974 73.143 5.26297 72.8405 5.642 72.8405C6.02104 72.8405 6.32427 73.1304 6.32427 73.4958C6.32427 73.8613 6.02104 74.1637 5.642 74.1637C5.26297 74.1637 4.95974 73.8739 4.95974 73.5084ZM16.912 73.4832C16.912 73.4832 15.7623 77.6418 7.54982 73.521C7.54982 73.521 15.1937 69.249 16.912 73.4832Z" fill="white"/>
<path d="M22.6736 71.6055C23.7096 71.6055 24.5561 72.412 24.5687 73.4327C24.5687 74.4409 23.7349 75.26 22.6862 75.2726C21.6502 75.2726 20.8037 74.4661 20.791 73.4453C20.791 72.4372 21.6249 71.6181 22.6736 71.6055Z" fill="white"/>
<path d="M37.1521 71.5552C38.1881 71.5552 39.0346 72.3617 39.0473 73.3824C39.0473 74.3906 38.2134 75.2097 37.1647 75.2223C36.1287 75.2223 35.2822 74.4158 35.2695 73.395C35.2695 72.3869 36.1034 71.5678 37.1521 71.5552Z" fill="white"/>
<path d="M29.9256 68.5686C29.9256 68.5686 23.482 73.4203 23.5325 73.4455C23.482 73.4707 29.9635 78.2719 29.9635 78.2719C30.7089 76.6841 36.3945 73.4077 36.3818 73.395C36.4703 73.3446 30.6837 70.1564 29.9256 68.5686Z" fill="white"/>
<path d="M198.041 73.458C209.69 82.506 211.396 73.5084 211.396 73.5084C209.02 64.3218 198.041 73.458 198.041 73.458ZM208.262 73.8865C208.022 73.8865 207.82 73.6974 207.82 73.458C207.82 73.2186 208.022 73.0295 208.262 73.0295C208.502 73.0295 208.705 73.2186 208.705 73.458C208.705 73.6974 208.502 73.8865 208.262 73.8865ZM207.012 73.458C201.667 76.1422 200.922 73.4328 200.922 73.4328C202.034 70.673 207.012 73.458 207.012 73.458Z" fill="white"/>
<path d="M197.182 72.2231C196.499 72.2231 195.956 72.7524 195.956 73.4077C195.956 74.063 196.499 74.6049 197.182 74.6049C197.864 74.6049 198.407 74.0756 198.42 73.4203C198.42 72.765 197.876 72.2231 197.194 72.2231H197.182Z" fill="white"/>
<path d="M195.956 72.7397H37.165V74.0377H195.956V72.7397Z" fill="white"/>
<path d="M283.943 11.0796C283.943 11.0796 284.069 11.1552 284.322 11.2938C284.448 11.3568 284.6 11.4576 284.764 11.5837C284.941 11.6971 285.118 11.8735 285.32 12.0499C285.711 12.4406 286.141 12.9824 286.469 13.7133C286.811 14.4316 287.051 15.3264 287.164 16.3471C287.392 18.4012 287.114 20.9593 286.305 23.7821C285.888 25.1935 285.358 26.6805 284.625 28.1675C284.258 28.911 283.854 29.6545 283.374 30.3854C282.881 31.1289 282.363 31.8976 281.845 32.6915C279.76 35.8293 277.436 39.2318 274.542 42.546C273.089 44.1968 271.497 45.8099 269.716 47.2843C268.819 48.0151 267.871 48.7208 266.886 49.3635C265.888 50.0062 264.839 50.5859 263.74 51.09C262.641 51.6066 261.491 52.0099 260.303 52.3249C259.709 52.5014 259.103 52.6022 258.497 52.7282C257.877 52.8164 257.271 52.9172 256.614 52.955C254.049 53.2071 251.396 53.207 248.831 52.7408C247.542 52.5266 246.292 52.1611 245.104 51.6696C243.904 51.1908 242.83 50.4977 241.92 49.6786C241.023 48.8469 240.341 47.8387 240.025 46.7424C239.696 45.646 239.81 44.4867 240.278 43.4407C240.353 43.2643 240.429 43.0753 240.543 42.9115C240.657 42.7476 240.745 42.5712 240.871 42.4074C241.137 42.105 241.377 41.7647 241.705 41.5001C242.299 40.9204 243.045 40.4793 243.803 40.0635C245.369 39.2948 247.151 38.8663 248.945 38.6521C250.752 38.4631 252.584 38.5009 254.39 38.6395C256.134 38.8033 257.865 39.2318 259.533 39.7736C262.893 40.8826 266.052 42.42 269.034 44.0204C272.015 45.6334 274.833 47.3347 277.512 49.0107C282.869 52.3627 287.67 55.6014 291.953 58.4241C296.223 61.2469 299.963 63.6538 303.046 65.5441C306.028 67.5982 309.704 70.0807 314.19 72.6389C316.426 73.9116 318.877 75.197 321.568 76.3689C324.259 77.5157 327.216 78.5995 330.488 79.1413C332.118 79.406 333.849 79.5446 335.618 79.406C337.387 79.2673 339.193 78.8515 340.886 78.0702C341.316 77.8938 341.708 77.6417 342.125 77.4275C342.529 77.1881 342.908 76.9234 343.3 76.6588C343.666 76.3564 344.032 76.0917 344.399 75.7641C344.765 75.4238 345.132 75.0458 345.435 74.6173C346.067 73.773 346.471 72.7145 346.559 71.6307C346.66 70.547 346.433 69.4884 346.079 68.5307C345.321 66.6152 344.032 65.04 342.567 63.6917C341.089 62.3559 339.395 61.1965 337.526 60.39C336.616 59.9237 335.643 59.6213 334.683 59.2685C334.203 59.1046 333.697 58.9912 333.205 58.8526L332.459 58.651C332.206 58.588 331.954 58.5502 331.714 58.4998C331.208 58.3989 330.703 58.2981 330.21 58.2099C329.705 58.1469 329.199 58.0713 328.681 58.0083L327.923 57.9075L327.153 57.8445C326.635 57.8067 326.129 57.7689 325.611 57.731C319.559 57.4538 313.747 58.1973 308.239 59.1424C306.862 59.3819 305.497 59.6339 304.158 59.8985C303.817 59.9615 303.475 60.0372 303.147 60.1002C302.793 60.1758 302.439 60.264 302.098 60.3522C301.416 60.5412 300.746 60.7429 300.102 60.9697C297.512 61.8644 295.111 62.923 292.787 63.9689C288.137 66.0734 283.816 68.1905 279.735 70.0807C275.654 71.9836 271.826 73.6848 268.276 75.0836C264.725 76.495 261.44 77.5787 258.497 78.3096C255.553 79.0279 252.937 79.343 250.802 79.2421C248.667 79.1539 247.062 78.6247 246.077 78.0828C245.824 77.9568 245.622 77.8307 245.445 77.7047C245.268 77.5913 245.117 77.4905 245.003 77.4023C244.775 77.2259 244.662 77.1377 244.662 77.1377C244.662 77.1377 244.775 77.2385 244.99 77.4275C245.091 77.5283 245.23 77.6417 245.407 77.7677C245.571 77.8938 245.774 78.045 246.026 78.1836C246.974 78.7885 248.591 79.4312 250.777 79.6454C252.95 79.8722 255.641 79.6832 258.673 79.1035C261.706 78.5238 265.092 77.5535 268.743 76.2933C272.395 75.0332 276.324 73.458 280.481 71.6811C284.65 69.9169 289.047 67.9132 293.696 65.9474C296.021 64.9644 298.409 63.9815 300.873 63.175C301.492 62.9734 302.098 62.7969 302.717 62.6331C303.021 62.5575 303.337 62.4819 303.64 62.4315L304.625 62.2551C305.964 62.0156 307.304 61.7762 308.656 61.562C314.076 60.705 319.736 60.0246 325.46 60.2892C325.94 60.327 326.42 60.3648 326.9 60.4026L327.62 60.453L328.328 60.5412C328.808 60.6042 329.275 60.6672 329.743 60.7303C330.21 60.8185 330.665 60.9067 331.132 60.9949C331.36 61.0453 331.6 61.0831 331.827 61.1335L332.497 61.3099C332.939 61.436 333.394 61.5368 333.836 61.6754C334.695 61.9904 335.58 62.2551 336.376 62.6583C338.044 63.3514 339.509 64.3469 340.811 65.4811C342.087 66.6278 343.173 67.951 343.754 69.3624C344.032 70.0681 344.184 70.7864 344.133 71.4543C344.083 72.1222 343.868 72.7649 343.464 73.3319C343.274 73.6218 343.022 73.8864 342.756 74.1385C342.478 74.3905 342.15 74.6551 341.847 74.9072C341.518 75.134 341.202 75.3734 340.874 75.5877C340.533 75.7767 340.204 76.0035 339.838 76.1547C337.008 77.5535 333.748 77.7173 330.716 77.3015C327.658 76.8856 324.79 75.9657 322.124 74.9324C319.471 73.8864 317.007 72.7271 314.746 71.5551C310.21 69.2112 306.419 66.9177 303.337 65.0274C300.367 62.986 296.767 60.4026 292.635 57.4034C288.491 54.4168 283.816 50.9891 278.522 47.4481C275.882 45.6838 273.077 43.8818 270.07 42.1554C267.063 40.4415 263.841 38.7781 260.265 37.5431C258.471 36.9257 256.589 36.4342 254.58 36.2074C252.634 36.0309 250.638 35.9679 248.604 36.1696C246.582 36.3838 244.51 36.8627 242.552 37.8078C241.592 38.3244 240.644 38.8789 239.823 39.6728C239.393 40.0383 239.039 40.4919 238.673 40.9204C238.509 41.1472 238.357 41.3993 238.205 41.6513C238.041 41.8907 237.928 42.1554 237.801 42.42C237.094 43.9826 236.929 45.8099 237.422 47.4355C237.89 49.0611 238.888 50.4599 240.063 51.531C241.25 52.6022 242.602 53.4213 244.017 53.9884C245.432 54.5554 246.873 54.9713 248.326 55.1855C251.219 55.6644 254.087 55.614 256.816 55.2989C257.498 55.2485 258.193 55.1225 258.876 55.0091C259.558 54.8579 260.227 54.7192 260.884 54.5176C262.198 54.127 263.475 53.6481 264.662 53.0558C265.85 52.4635 266.974 51.8083 268.036 51.09C269.084 50.3591 270.07 49.5904 270.992 48.7839C272.837 47.1582 274.441 45.4318 275.882 43.6802C278.75 40.1643 280.948 36.6232 282.906 33.3846C283.387 32.5781 283.867 31.7842 284.334 31.0155C284.814 30.2216 285.206 29.4151 285.547 28.6211C286.229 27.0333 286.697 25.4833 287.051 24.0089C287.733 21.0727 287.884 18.4264 287.518 16.3219C287.341 15.276 287.025 14.356 286.634 13.6377C286.242 12.9068 285.762 12.3776 285.345 11.9995C285.118 11.8231 284.928 11.6593 284.738 11.5585C284.562 11.445 284.41 11.3442 284.271 11.2938C284.006 11.1678 283.879 11.1048 283.879 11.1048L283.943 11.0796Z" fill="white"/>
<path d="M283.892 11.0796C283.892 11.0796 283.753 11.1427 283.501 11.2687C283.362 11.3191 283.21 11.4199 283.033 11.5333C282.844 11.6341 282.654 11.7979 282.427 11.9744C281.997 12.3524 281.53 12.8817 281.138 13.6126C280.746 14.3435 280.431 15.2508 280.254 16.2967C279.887 18.4012 280.039 21.0476 280.721 23.9838C281.075 25.4582 281.542 27.0082 282.225 28.596C282.566 29.3899 282.957 30.1964 283.438 30.9903C283.905 31.759 284.373 32.5529 284.865 33.3594C286.824 36.5981 289.035 40.1391 291.89 43.655C293.33 45.4067 294.935 47.1457 296.78 48.7587C297.702 49.5652 298.687 50.3339 299.736 51.0648C300.797 51.7831 301.922 52.4384 303.11 53.0307C304.297 53.623 305.573 54.1018 306.887 54.4925C307.544 54.6941 308.227 54.8327 308.896 54.9839C309.578 55.0974 310.273 55.2234 310.956 55.2738C313.685 55.5888 316.553 55.6392 319.446 55.1604C320.899 54.9461 322.339 54.5303 323.754 53.9632C325.169 53.4087 326.534 52.5896 327.709 51.5059C328.884 50.4347 329.869 49.0359 330.35 47.4103C330.855 45.7973 330.678 43.9575 329.971 42.3948C329.857 42.1302 329.731 41.8656 329.566 41.6261C329.415 41.3867 329.263 41.1347 329.099 40.8952C328.732 40.4542 328.379 40.0005 327.949 39.6477C327.14 38.8538 326.18 38.2993 325.22 37.7826C323.262 36.8375 321.202 36.3712 319.168 36.1444C317.134 35.9428 315.138 36.0184 313.192 36.1822C311.183 36.3964 309.288 36.9005 307.506 37.518C303.931 38.7656 300.709 40.429 297.702 42.1302C294.695 43.8566 291.89 45.6461 289.249 47.4229C283.968 50.964 279.293 54.3917 275.137 57.3783C270.993 60.3775 267.404 62.9482 264.435 65.0023C261.352 66.8925 257.562 69.186 253.026 71.53C250.752 72.6893 248.301 73.8613 245.648 74.9072C242.994 75.9279 240.114 76.8605 237.056 77.2763C234.024 77.6922 230.764 77.5284 227.934 76.1296C227.58 75.9658 227.252 75.7515 226.898 75.5625C226.57 75.3483 226.241 75.1088 225.925 74.882C225.622 74.63 225.293 74.3653 225.015 74.1133C224.75 73.8613 224.51 73.5966 224.308 73.3068C223.904 72.7397 223.689 72.097 223.638 71.4291C223.588 70.7613 223.739 70.043 224.017 69.3373C224.599 67.9259 225.685 66.5901 226.961 65.4559C228.263 64.3218 229.728 63.3263 231.396 62.6332C232.192 62.2299 233.076 61.9653 233.935 61.6502C234.378 61.5116 234.832 61.4108 235.275 61.2848L235.944 61.1084C236.172 61.0579 236.399 61.0201 236.639 60.9697C237.107 60.8815 237.562 60.7933 238.029 60.7051C238.497 60.6421 238.977 60.5791 239.444 60.5161L240.152 60.4279L240.872 60.3775C241.352 60.3397 241.832 60.3018 242.312 60.264C248.036 59.9994 253.696 60.6799 259.116 61.5368C260.468 61.751 261.82 61.9905 263.146 62.2299L264.132 62.4063C264.435 62.4693 264.738 62.5323 265.054 62.608C265.673 62.7718 266.292 62.9482 266.899 63.1498C269.363 63.9563 271.751 64.9393 274.075 65.9222C278.725 67.9007 283.122 69.8917 287.291 71.656C291.46 73.4328 295.377 74.9954 299.029 76.2682C302.68 77.541 306.066 78.4987 309.098 79.0784C312.131 79.658 314.822 79.8471 316.995 79.6202C319.168 79.406 320.785 78.7633 321.745 78.1584C321.986 78.0198 322.188 77.8686 322.365 77.7426C322.541 77.6166 322.68 77.5032 322.782 77.4023C322.996 77.2133 323.11 77.1125 323.11 77.1125C323.11 77.1125 322.996 77.2007 322.769 77.3771C322.655 77.4653 322.516 77.5788 322.327 77.6796C322.15 77.793 321.935 77.9316 321.695 78.0576C320.722 78.5995 319.105 79.1288 316.97 79.217C314.834 79.3178 312.232 79.0028 309.275 78.2845C306.331 77.5662 303.046 76.4698 299.496 75.0584C295.946 73.6596 292.117 71.9584 288.037 70.0556C283.956 68.1653 279.635 66.0482 274.985 63.9437C272.66 62.8978 270.26 61.8393 267.67 60.9445C267.025 60.7177 266.356 60.5161 265.673 60.327C265.332 60.2388 264.979 60.1506 264.625 60.075C264.284 60.012 263.955 59.9364 263.614 59.8734C262.275 59.6088 260.91 59.3567 259.533 59.1173C254.024 58.1722 248.212 57.4287 242.161 57.7059C241.643 57.7437 241.137 57.7815 240.619 57.8193L239.848 57.8823L239.09 57.9831C238.585 58.0461 238.08 58.1218 237.562 58.1848C237.056 58.2856 236.551 58.3864 236.058 58.4746C235.805 58.525 235.553 58.5628 235.313 58.6258L234.567 58.8274C234.074 58.9661 233.582 59.0795 233.089 59.2433C232.129 59.5962 231.156 59.8986 230.246 60.3649C228.376 61.1714 226.683 62.3307 225.205 63.6665C223.739 65.0149 222.451 66.5901 221.693 68.5056C221.326 69.4633 221.111 70.5218 221.212 71.6056C221.301 72.6893 221.705 73.7478 222.337 74.5922C222.64 75.0206 223.007 75.3987 223.373 75.7389C223.739 76.0666 224.106 76.3312 224.472 76.6336C224.864 76.8983 225.256 77.1629 225.647 77.4023C226.064 77.6166 226.456 77.8686 226.885 78.045C228.578 78.8263 230.385 79.2548 232.154 79.3808C233.923 79.5194 235.641 79.3808 237.284 79.1162C240.556 78.5743 243.512 77.4906 246.204 76.3438C248.895 75.1718 251.346 73.8865 253.582 72.6137C258.055 70.0556 261.744 67.5604 264.726 65.5189C267.809 63.6287 271.548 61.2092 275.819 58.399C280.102 55.5888 284.903 52.3502 290.26 48.9855C292.939 47.3095 295.756 45.6083 298.738 43.9953C301.72 42.3948 304.878 40.8574 308.239 39.7485C309.92 39.2066 311.65 38.7782 313.381 38.6143C315.188 38.4757 317.02 38.4379 318.827 38.6269C320.621 38.8286 322.402 39.2696 323.969 40.0383C324.727 40.4542 325.473 40.8952 326.066 41.4749C326.395 41.7396 326.622 42.0672 326.9 42.3822C327.014 42.5461 327.115 42.7225 327.229 42.8863C327.355 43.0501 327.418 43.2266 327.494 43.4156C327.962 44.4615 328.088 45.6335 327.747 46.7172C327.431 47.8136 326.749 48.8217 325.852 49.6534C324.955 50.4851 323.868 51.1656 322.668 51.6445C321.48 52.136 320.229 52.514 318.941 52.7156C316.363 53.1693 313.723 53.1819 311.158 52.9299C310.501 52.8921 309.894 52.7912 309.275 52.703C308.669 52.577 308.05 52.4636 307.468 52.2998C306.281 51.9721 305.118 51.5689 304.032 51.0648C302.933 50.5607 301.884 49.9685 300.886 49.3384C299.9 48.6831 298.953 47.99 298.056 47.2591C296.274 45.7847 294.67 44.1717 293.229 42.5209C290.336 39.2192 288.024 35.8042 285.927 32.6663C285.409 31.885 284.891 31.1163 284.398 30.3602C283.918 29.6419 283.513 28.8984 283.147 28.1423C282.414 26.6427 281.884 25.1683 281.467 23.7569C280.658 20.9342 280.367 18.376 280.607 16.3219C280.721 15.3012 280.974 14.4065 281.302 13.6882C281.631 12.9699 282.06 12.4154 282.452 12.0248C282.654 11.8357 282.831 11.6719 283.008 11.5585C283.185 11.4325 283.324 11.3317 283.45 11.2687C283.703 11.1301 283.829 11.0544 283.829 11.0544L283.892 11.0796Z" fill="white"/>
<path d="M283.564 11.7097C291.713 2.27101 283.867 0.695801 283.867 0.695801C275.769 2.48524 283.564 11.7097 283.564 11.7097ZM284.133 3.27915C284.133 3.48077 283.956 3.6446 283.741 3.63199C283.526 3.61939 283.362 3.45557 283.375 3.25394C283.375 3.05232 283.551 2.8885 283.766 2.9011C283.981 2.9011 284.145 3.07752 284.133 3.27915ZM283.741 4.29988C285.99 8.76088 283.602 9.32796 283.602 9.32796C281.214 8.35763 283.741 4.29988 283.741 4.29988Z" fill="white"/>
<path d="M282.465 12.4029C282.452 12.9573 282.907 13.4236 283.476 13.4362C284.057 13.4488 284.537 13.0078 284.55 12.4533C284.562 11.8988 284.108 11.4325 283.539 11.4199C282.958 11.4073 282.478 11.8484 282.465 12.4029Z" fill="white"/>
<path d="M547.348 73.5084C565.226 87.3955 567.853 73.584 567.853 73.584C564.215 59.4701 547.348 73.5084 547.348 73.5084ZM563.052 74.1763C562.673 74.1763 562.37 73.8738 562.37 73.5084C562.37 73.1429 562.673 72.8531 563.052 72.8531C563.431 72.8531 563.735 73.1556 563.735 73.521C563.735 73.8865 563.431 74.1763 563.052 74.1763ZM561.132 73.521C552.932 77.6418 551.77 73.4832 551.77 73.4832C553.475 69.249 561.132 73.521 561.132 73.521Z" fill="white"/>
<path d="M546.034 71.6055C544.998 71.6055 544.151 72.412 544.139 73.4327C544.139 74.4409 544.973 75.26 546.021 75.2726C547.057 75.2726 547.904 74.4661 547.916 73.4453C547.916 72.4372 547.083 71.6181 546.034 71.6055Z" fill="white"/>
<path d="M531.554 71.5552C530.518 71.5552 529.672 72.3617 529.659 73.3824C529.659 74.3906 530.493 75.2097 531.542 75.2223C532.578 75.2223 533.424 74.4158 533.437 73.395C533.437 72.3869 532.603 71.5678 531.554 71.5552Z" fill="white"/>
<path d="M538.781 68.5686C538.781 68.5686 545.225 73.4203 545.175 73.4455C545.225 73.4707 538.744 78.2719 538.744 78.2719C537.998 76.6841 532.313 73.4077 532.325 73.395C532.237 73.3446 538.023 70.1564 538.781 68.5686Z" fill="white"/>
<path d="M357.312 73.5084C357.312 73.5084 359.017 82.506 370.666 73.458C370.666 73.458 359.687 64.3218 357.312 73.5084ZM359.99 73.458C359.99 73.2186 360.192 73.0295 360.432 73.0295C360.672 73.0295 360.874 73.2186 360.874 73.458C360.874 73.6974 360.672 73.8865 360.432 73.8865C360.192 73.8865 359.99 73.6974 359.99 73.458ZM367.773 73.4454C367.773 73.4454 367.027 76.1548 361.683 73.4706C361.683 73.4706 366.661 70.6982 367.773 73.4454Z" fill="white"/>
<path d="M371.525 72.2229C372.208 72.2229 372.751 72.7522 372.751 73.4075C372.751 74.0628 372.208 74.6046 371.525 74.6046C370.843 74.6046 370.3 74.0753 370.287 73.4201C370.287 72.7648 370.83 72.2229 371.513 72.2229H371.525Z" fill="white"/>
<path d="M531.555 72.7397H372.764V74.0377H531.555V72.7397Z" fill="white"/>
</g>
<defs>
<clipPath id="clip0_15_561">
<rect width="567" height="79" fill="white" transform="translate(0.853516 0.695801)"/>
</clipPath>
</defs>
</svg>
