<svg width="116" height="74" viewBox="0 0 116 74" fill="none" xmlns="http://www.w3.org/2000/svg">
<g clip-path="url(#clip0_58_2605)">
<path d="M58.0829 9.72681C58.0829 9.72681 58.2001 9.79763 58.4346 9.92748C58.5519 9.9865 58.6926 10.0809 58.845 10.199C59.0092 10.3052 59.1733 10.4705 59.3609 10.6357C59.7244 11.0017 60.123 11.5092 60.4279 12.1939C60.7444 12.8667 60.9672 13.7048 61.0727 14.6609C61.2838 16.585 61.0258 18.9812 60.2754 21.6254C59.8885 22.9474 59.3961 24.3403 58.716 25.7332C58.376 26.4296 58.0008 27.1261 57.5553 27.8107C57.098 28.5072 56.6173 29.2272 56.1366 29.9709C54.202 32.9101 52.0446 36.0972 49.3596 39.2017C48.0112 40.748 46.5339 42.259 44.8807 43.64C44.0482 44.3247 43.1689 44.9857 42.2543 45.5877C41.3281 46.1897 40.3549 46.7327 39.3349 47.2049C38.3148 47.6888 37.2478 48.0666 36.1457 48.3617C35.5946 48.5269 35.0318 48.6214 34.469 48.7394C33.8945 48.822 33.3317 48.9165 32.722 48.9519C30.3419 49.188 27.8797 49.188 25.4995 48.7512C24.3036 48.5505 23.1428 48.2082 22.0407 47.7479C20.9268 47.2993 19.9302 46.6501 19.086 45.8828C18.2536 45.1037 17.6204 44.1594 17.3273 43.1325C17.0225 42.1055 17.128 41.0195 17.5618 40.0398C17.6322 39.8745 17.7025 39.6975 17.808 39.544C17.9136 39.3906 17.9956 39.2253 18.1129 39.0718C18.3591 38.7885 18.5819 38.4698 18.8867 38.2219C19.4378 37.679 20.1295 37.2658 20.833 36.8763C22.2869 36.1562 23.9401 35.7549 25.6051 35.5542C27.2817 35.3772 28.9818 35.4126 30.6585 35.5424C32.2765 35.6959 33.8828 36.0972 35.4305 36.6048C38.5493 37.6435 41.4805 39.0836 44.2476 40.5828C47.0146 42.0937 49.6293 43.6872 52.1149 45.2572C57.0863 48.3971 61.5417 51.4307 65.5164 54.0749C69.4794 56.719 72.95 58.9736 75.8108 60.7442C78.5779 62.6683 81.9899 64.9937 86.1522 67.3899C88.2275 68.5821 90.5021 69.7861 92.9995 70.8839C95.4969 71.9581 98.2405 72.9733 101.277 73.4808C102.79 73.7287 104.396 73.8586 106.038 73.7287C107.679 73.5989 109.356 73.2093 110.927 72.4775C111.325 72.3122 111.689 72.0761 112.076 71.8755C112.451 71.6512 112.803 71.4033 113.166 71.1554C113.506 70.8721 113.846 70.6242 114.186 70.3173C114.526 69.9986 114.866 69.6445 115.148 69.2432C115.734 68.4523 116.109 67.4607 116.191 66.4456C116.285 65.4304 116.074 64.4389 115.746 63.5418C115.042 61.7476 113.846 60.272 112.486 59.009C111.114 57.7578 109.543 56.6718 107.808 55.9163C106.964 55.4796 106.061 55.1963 105.17 54.8657C104.724 54.7123 104.255 54.6061 103.798 54.4762L103.106 54.2873C102.872 54.2283 102.637 54.1929 102.415 54.1457C101.946 54.0513 101.477 53.9568 101.019 53.8742C100.55 53.8152 100.081 53.7444 99.6006 53.6853L98.8971 53.5909L98.1819 53.5319C97.7012 53.4965 97.2322 53.4611 96.7514 53.4256C91.1352 53.1659 85.7418 53.8624 80.6298 54.7477C79.3518 54.972 78.0855 55.2081 76.8426 55.4559C76.5261 55.515 76.2095 55.5858 75.9047 55.6448C75.5764 55.7156 75.2481 55.7983 74.9315 55.8809C74.2983 56.058 73.6769 56.2468 73.079 56.4593C70.6754 57.2974 68.4477 58.2889 66.2903 59.2687C61.9755 61.24 57.9656 63.2231 54.1785 64.9937C50.3914 66.7761 46.8388 68.3697 43.5441 69.6799C40.2494 71.002 37.2009 72.0171 34.469 72.7018C31.7371 73.3746 29.3101 73.6697 27.3286 73.5753C25.3471 73.4926 23.858 72.9969 22.9435 72.4893C22.709 72.3712 22.5214 72.2532 22.3573 72.1352C22.1931 72.0289 22.0524 71.9345 21.9469 71.8519C21.7359 71.6866 21.6303 71.604 21.6303 71.604C21.6303 71.604 21.7358 71.6984 21.9352 71.8755C22.029 71.9699 22.1579 72.0761 22.3221 72.1942C22.4745 72.3122 22.6621 72.4539 22.8966 72.5837C23.776 73.1503 25.2768 73.7523 27.3052 73.953C29.3218 74.1655 31.8192 73.9884 34.6332 73.4454C37.4471 72.9024 40.5894 71.9935 43.9779 70.8131C47.3664 69.6327 51.0128 68.1572 54.8703 66.4928C58.7395 64.8402 62.8197 62.9634 67.1345 61.1219C69.2918 60.2012 71.5078 59.2805 73.7942 58.525C74.3687 58.3362 74.9315 58.1709 75.506 58.0174C75.7874 57.9466 76.0805 57.8758 76.3619 57.8286L77.2765 57.6633C78.5193 57.439 79.7621 57.2148 81.0167 57.0141C86.0466 56.2114 91.2994 55.574 96.6108 55.8219C97.0563 55.8573 97.5018 55.8927 97.9474 55.9281L98.6157 55.9753L99.2723 56.058C99.7178 56.117 100.152 56.176 100.585 56.235C101.019 56.3177 101.441 56.4003 101.875 56.4829C102.086 56.5301 102.309 56.5655 102.52 56.6128L103.141 56.778C103.552 56.8961 103.974 56.9905 104.384 57.1203C105.182 57.4154 106.002 57.6633 106.741 58.0411C108.289 58.6903 109.649 59.6228 110.856 60.6852C112.041 61.7593 113.049 62.9988 113.588 64.3208C113.846 64.9819 113.987 65.6547 113.94 66.2803C113.893 66.9059 113.694 67.508 113.319 68.0391C113.143 68.3106 112.908 68.5585 112.662 68.7946C112.404 69.0307 112.099 69.2786 111.818 69.5147C111.513 69.7271 111.22 69.9514 110.915 70.1521C110.598 70.3291 110.294 70.5416 109.954 70.6833C107.327 71.9935 104.302 72.147 101.488 71.7574C98.6508 71.3679 95.9893 70.5062 93.5154 69.5383C91.0532 68.5585 88.7668 67.4725 86.6681 66.3748C82.4588 64.1792 78.9414 62.0308 76.0805 60.2602C73.3252 58.348 69.9836 55.9281 66.1496 53.1187C62.3038 50.3212 57.9656 47.1104 53.0529 43.7935C50.6024 42.1409 47.9995 40.4529 45.209 38.8358C42.4185 37.2304 39.4287 35.6723 36.1105 34.5154C34.4456 33.937 32.6986 33.4767 30.8343 33.2642C29.0287 33.099 27.1762 33.0399 25.2885 33.2288C23.4125 33.4295 21.4896 33.878 19.6723 34.7633C18.7812 35.2473 17.9018 35.7667 17.1397 36.5103C16.7411 36.8527 16.4128 37.2776 16.0727 37.679C15.9203 37.8914 15.7796 38.1275 15.6389 38.3636C15.4865 38.5879 15.381 38.8358 15.2637 39.0836C14.6071 40.5474 14.4547 42.2589 14.912 43.7817C15.3458 45.3044 16.2721 46.6147 17.3625 47.618C18.4646 48.6214 19.7192 49.3886 21.0324 49.9198C22.3456 50.451 23.6822 50.8405 25.0305 51.0412C27.7155 51.4898 30.3771 51.4426 32.9096 51.1475C33.5428 51.1002 34.1876 50.9822 34.8208 50.876C35.4539 50.7343 36.0753 50.6045 36.685 50.4156C37.9044 50.0497 39.0886 49.6011 40.1908 49.0463C41.2929 48.4915 42.3364 47.8777 43.3213 47.2049C44.2945 46.5202 45.209 45.8002 46.0649 45.0447C47.7767 43.522 49.2658 41.9048 50.6024 40.2641C53.264 36.9707 55.3041 33.6537 57.1215 30.6201C57.567 29.8646 58.0125 29.121 58.4464 28.4009C58.8919 27.6573 59.2554 26.9018 59.5719 26.1581C60.2051 24.6708 60.6389 23.2189 60.9672 21.8378C61.6003 19.0875 61.741 16.6086 61.401 14.6373C61.2369 13.6576 60.9438 12.7959 60.5803 12.123C60.2168 11.4384 59.7713 10.9426 59.3843 10.5885C59.1733 10.4233 58.9974 10.2698 58.8216 10.1754C58.6574 10.0691 58.5167 9.97469 58.3877 9.92748C58.1415 9.80944 58.0243 9.75042 58.0243 9.75042L58.0829 9.72681Z" fill="white"/>
<path d="M58.0359 9.72673C58.0359 9.72673 57.9069 9.78575 57.6724 9.9038C57.5434 9.95101 57.4027 10.0454 57.2386 10.1517C57.0627 10.2461 56.8868 10.3996 56.6758 10.5648C56.2771 10.9189 55.8433 11.4147 55.4798 12.0994C55.1164 12.784 54.8232 13.6339 54.6591 14.6136C54.3191 16.5849 54.4598 19.0638 55.0929 21.8141C55.4212 23.1952 55.855 24.6471 56.4882 26.1345C56.8047 26.8781 57.1682 27.6336 57.6138 28.3772C58.0476 29.0973 58.4814 29.8409 58.9387 30.5964C60.756 33.6301 62.8079 36.947 65.4577 40.2404C66.7943 41.8811 68.2834 43.5101 69.9952 45.021C70.8511 45.7765 71.7656 46.4966 72.7388 47.1812C73.7237 47.854 74.7672 48.4678 75.8693 49.0226C76.9715 49.5774 78.1557 50.026 79.3751 50.3919C79.9848 50.5808 80.6179 50.7106 81.2393 50.8523C81.8725 50.9585 82.5173 51.0765 83.1505 51.1238C85.683 51.4189 88.3446 51.4661 91.0296 51.0175C92.3779 50.8169 93.7146 50.4273 95.0278 49.8961C96.3409 49.3768 97.6072 48.6095 98.6976 47.5943C99.788 46.591 100.703 45.2807 101.148 43.758C101.617 42.2471 101.453 40.5237 100.796 39.06C100.691 38.8121 100.574 38.5642 100.421 38.3399C100.28 38.1156 100.14 37.8795 99.9873 37.6553C99.6473 37.2421 99.3191 36.8172 98.9204 36.4867C98.17 35.743 97.2789 35.2236 96.3878 34.7397C94.5705 33.8543 92.6593 33.4176 90.7716 33.2051C88.8839 33.0163 87.0314 33.0871 85.2258 33.2405C83.3615 33.4412 81.6028 33.9134 79.9496 34.4918C76.6315 35.6604 73.6416 37.2185 70.8511 38.8121C68.0606 40.4292 65.4577 42.1054 63.0072 43.7698C58.1062 47.0868 53.768 50.2975 49.9105 53.0951C46.0648 55.9044 42.7349 58.3125 39.9796 60.2365C37.1187 62.0072 33.6013 64.1555 29.392 66.3511C27.2816 67.4371 25.007 68.5348 22.5447 69.5146C20.0825 70.4707 17.4092 71.3442 14.5718 71.7338C11.7579 72.1233 8.73286 71.9698 6.10649 70.6596C5.7782 70.5061 5.47336 70.3055 5.14506 70.1284C4.84022 69.9277 4.53537 69.7034 4.24225 69.491C3.96085 69.2549 3.656 69.007 3.39806 68.7709C3.15183 68.5348 2.92906 68.2869 2.74147 68.0155C2.36627 67.4843 2.16695 66.8823 2.12005 66.2566C2.07315 65.631 2.21385 64.9582 2.4718 64.2972C3.01114 62.9751 4.01948 61.7239 5.20369 60.6615C6.41135 59.5991 7.77143 58.6666 9.31911 58.0174C10.0578 57.6396 10.8785 57.3918 11.6758 57.0966C12.0862 56.9668 12.5083 56.8724 12.9186 56.7543L13.5401 56.5891C13.7511 56.5419 13.9621 56.5064 14.1849 56.4592C14.6187 56.3766 15.0408 56.294 15.4747 56.2113C15.9085 56.1523 16.354 56.0933 16.7878 56.0343L17.4444 55.9517L18.1127 55.9044C18.5583 55.869 19.0038 55.8336 19.4494 55.7982C24.7607 55.5503 30.0135 56.1877 35.0434 56.9904C36.298 57.1911 37.5525 57.4154 38.7837 57.6396L39.6982 57.8049C39.9796 57.8639 40.261 57.9229 40.5541 57.9938C41.1286 58.1472 41.7031 58.3125 42.2659 58.5013C44.5523 59.2568 46.7683 60.1775 48.9256 61.0982C53.2404 62.9515 57.3206 64.8165 61.1898 66.4691C65.059 68.1335 68.6937 69.5972 72.0822 70.7894C75.4707 71.9816 78.613 72.8788 81.4269 73.4217C84.2409 73.9647 86.7383 74.1418 88.755 73.9293C90.7716 73.7286 92.2724 73.1266 93.1635 72.56C93.3863 72.4302 93.5739 72.2885 93.738 72.1705C93.9022 72.0525 94.0311 71.9462 94.1249 71.8518C94.3243 71.6747 94.4298 71.5803 94.4298 71.5803C94.4298 71.5803 94.3242 71.6629 94.1132 71.8282C94.0077 71.9108 93.8787 72.0171 93.7028 72.1115C93.5387 72.2177 93.3394 72.3476 93.1166 72.4656C92.2138 72.9732 90.713 73.469 88.7315 73.5516C86.75 73.646 84.3347 73.3509 81.5911 72.6781C78.8592 72.0052 75.8107 70.9783 72.516 69.6562C69.2214 68.346 65.6687 66.7524 61.8816 64.97C58.0945 63.1994 54.0846 61.2163 49.7698 59.245C47.6125 58.2653 45.3847 57.2737 42.9811 56.4356C42.3832 56.2231 41.7618 56.0343 41.1286 55.8572C40.8121 55.7746 40.4838 55.692 40.1555 55.6211C39.8389 55.5621 39.534 55.4913 39.2175 55.4323C37.9746 55.1844 36.7084 54.9483 35.4304 54.724C30.3183 53.8387 24.9249 53.1423 19.3087 53.402C18.828 53.4374 18.359 53.4728 17.8783 53.5082L17.163 53.5672L16.4595 53.6616C15.9905 53.7207 15.5216 53.7915 15.0408 53.8505C14.5718 53.945 14.1028 54.0394 13.6456 54.122C13.4111 54.1692 13.1766 54.2046 12.9538 54.2637L12.262 54.4525C11.8048 54.5824 11.3475 54.6886 10.8902 54.8421C9.99914 55.1726 9.09633 55.4559 8.25214 55.8926C6.51686 56.6481 4.94575 57.7341 3.57394 58.9853C2.21386 60.2483 1.01791 61.7239 0.314415 63.5181C-0.0256059 64.4152 -0.224916 65.4067 -0.131117 66.4219C-0.0490434 67.4371 0.326151 68.4286 0.912393 69.2195C1.19379 69.6208 1.5338 69.9749 1.87382 70.2936C2.21384 70.6006 2.55387 70.8484 2.8939 71.1317C3.25737 71.3796 3.62083 71.6275 3.9843 71.8518C4.37122 72.0525 4.73468 72.2885 5.13333 72.4538C6.70446 73.1857 8.38113 73.587 10.0226 73.705C11.6641 73.8349 13.2587 73.705 14.7829 73.4572C17.8196 72.9496 20.5632 71.9344 23.0606 70.8602C25.558 69.7625 27.8326 68.5584 29.9079 67.3662C34.0585 64.97 37.4822 62.6328 40.2493 60.7205C43.1101 58.9499 46.5807 56.6835 50.5437 54.0512C54.5184 51.4189 58.9738 48.3852 63.9452 45.2335C66.4308 43.6636 69.0455 42.07 71.8126 40.5591C74.5796 39.06 77.5108 37.6199 80.6296 36.5811C82.189 36.0735 83.7953 35.6722 85.4016 35.5187C87.0783 35.3889 88.7784 35.3535 90.4551 35.5305C92.12 35.7194 93.7732 36.1325 95.2271 36.8526C95.9306 37.2421 96.6223 37.6553 97.1734 38.1983C97.4782 38.4461 97.6893 38.7531 97.9472 39.0482C98.0528 39.2016 98.1466 39.3669 98.2521 39.5203C98.3693 39.6738 98.428 39.839 98.4983 40.0161C98.9321 40.9958 99.0494 42.0936 98.7328 43.1088C98.4397 44.1357 97.8065 45.0801 96.9741 45.8591C96.1416 46.6382 95.1333 47.2756 94.0194 47.7242C92.9173 48.1845 91.7565 48.5387 90.5606 48.7275C88.1687 49.1525 85.7182 49.1643 83.3381 48.9282C82.7284 48.8928 82.1656 48.7984 81.5911 48.7157C81.0283 48.5977 80.4538 48.4914 79.9144 48.338C78.8123 48.0311 77.7336 47.6534 76.7253 47.1812C75.7052 46.709 74.732 46.1542 73.8058 45.564C72.8912 44.9502 72.0119 44.301 71.1794 43.6163C69.5262 42.2353 68.0371 40.7243 66.7005 39.178C64.0155 36.0853 61.8699 32.8864 59.9236 29.9472C59.4428 29.2153 58.9621 28.4953 58.5048 27.787C58.0593 27.1142 57.6841 26.4178 57.3441 25.7095C56.664 24.3048 56.1716 22.9237 55.7847 21.6017C55.0343 18.9576 54.7646 16.5613 54.9874 14.6372C55.0929 13.6811 55.3274 12.843 55.6323 12.1702C55.9371 11.4974 56.3358 10.978 56.6992 10.612C56.8868 10.435 57.051 10.2815 57.2151 10.1753C57.3793 10.0572 57.5082 9.96282 57.6255 9.9038C57.86 9.77395 57.9772 9.70312 57.9772 9.70312L58.0359 9.72673Z" fill="white"/>
<path d="M57.7316 10.3168C65.2941 1.47551 58.013 0 58.013 0C50.4973 1.67618 57.7316 10.3168 57.7316 10.3168ZM58.2592 2.41984C58.2592 2.60871 58.095 2.76216 57.8957 2.75036C57.6964 2.73855 57.544 2.5851 57.5557 2.39624C57.5557 2.20737 57.7199 2.05392 57.9192 2.06572C58.1185 2.06572 58.2709 2.23098 58.2592 2.41984ZM57.8957 3.37598C59.9827 7.55463 57.7667 8.08582 57.7667 8.08582C55.5507 7.1769 57.8957 3.37598 57.8957 3.37598Z" fill="white"/>
<path d="M56.7117 10.9661C56.6999 11.4855 57.122 11.9223 57.6497 11.9341C58.189 11.9459 58.6345 11.5327 58.6463 11.0133C58.658 10.494 58.2359 10.0572 57.7083 10.0454C57.1689 10.0336 56.7234 10.4468 56.7117 10.9661Z" fill="white"/>
</g>
<defs>
<clipPath id="clip0_58_2605">
<rect width="116" height="74" fill="white"/>
</clipPath>
</defs>
</svg>
