<svg width="130" height="145" viewBox="0 0 130 145" fill="none" xmlns="http://www.w3.org/2000/svg">
<g opacity="0.4">
<g clip-path="url(#clip0_58_2697)">
<path d="M64.9241 144.535C64.9241 144.535 64.7882 144.46 64.5305 144.315C64.3946 144.249 64.2447 144.141 64.0666 144.01C63.8792 143.893 63.6964 143.715 63.4855 143.523C63.0825 143.12 62.6421 142.562 62.2953 141.812C61.9485 141.067 61.6908 140.149 61.5737 139.095C61.33 136.981 61.6252 134.348 62.4687 131.438C62.8951 129.985 63.4527 128.453 64.2072 126.911C64.5867 126.143 65.0038 125.374 65.5099 124.629C66.0253 123.856 66.5548 123.064 67.0937 122.253C69.2587 119.02 71.6626 115.51 74.6616 112.103C75.4114 111.255 76.2033 110.416 77.0327 109.596C77.8715 108.781 78.7431 107.984 79.6662 107.221C80.5987 106.466 81.5734 105.744 82.5996 105.074C83.6352 104.418 84.7224 103.819 85.8564 103.294C86.9904 102.764 88.19 102.347 89.4224 102.014C90.0363 101.841 90.6689 101.724 91.3015 101.597C91.6201 101.551 91.9435 101.504 92.2621 101.462C92.4215 101.438 92.5855 101.419 92.7542 101.401L93.2556 101.349C95.9172 101.096 98.6632 101.096 101.334 101.565C102.66 101.808 103.977 102.155 105.2 102.68C106.428 103.191 107.567 103.879 108.499 104.737C109.432 105.595 110.144 106.64 110.462 107.769C110.795 108.898 110.697 110.098 110.209 111.18C110.041 111.55 109.825 111.897 109.582 112.235C109.333 112.567 109.043 112.881 108.733 113.172C108.096 113.753 107.351 114.245 106.55 114.648C104.924 115.444 103.082 115.89 101.222 116.101C100.289 116.204 99.3473 116.246 98.4054 116.25C97.4636 116.25 96.5217 116.199 95.5845 116.119C93.7804 115.946 91.9857 115.51 90.2472 114.952C88.5087 114.39 86.817 113.701 85.1769 112.956C83.5368 112.206 81.9436 111.41 80.3972 110.576C77.3045 108.912 74.3851 107.164 71.6063 105.44C68.8276 103.715 66.1987 102.01 63.7058 100.379C61.2128 98.7437 58.8558 97.1926 56.6393 95.7399C52.2111 92.8346 48.3405 90.3511 45.1399 88.397C42.0519 86.2836 38.2328 83.7204 33.5937 81.0775C31.2694 79.7608 28.7343 78.444 25.9462 77.2303C24.5451 76.6352 23.0877 76.0635 21.5507 75.5668C20.009 75.0795 18.3971 74.653 16.7007 74.3719C15.0044 74.0907 13.2237 73.9548 11.3915 74.1001C9.56399 74.2407 7.68491 74.6718 5.93235 75.4778C5.70743 75.5668 5.49656 75.684 5.28569 75.8011C5.07482 75.9183 4.85926 76.0307 4.64371 76.1479C4.42815 76.265 4.23603 76.4103 4.02985 76.5368C3.82835 76.6727 3.62217 76.8039 3.42067 76.9398C3.22854 77.0897 3.04111 77.2397 2.84898 77.3896L2.56314 77.6193C2.46942 77.6942 2.37101 77.7692 2.27729 77.8629C2.08517 78.041 1.88835 78.2144 1.71497 78.4206C1.62594 78.519 1.53691 78.6174 1.44787 78.7205L1.2042 79.0438L1.08237 79.2078L0.974589 79.3812L0.759034 79.7326L0.576281 80.1075C0.548165 80.1684 0.515363 80.234 0.487247 80.295L0.412271 80.4918C0.201402 81.0119 0.088939 81.5695 0.0373932 82.1225L0.00927734 82.5395L0.0186493 82.9519C0.0186493 83.0925 0.0373932 83.2284 0.0514512 83.3643C0.0701951 83.5002 0.074881 83.6407 0.107683 83.772C0.196716 84.3108 0.351354 84.8263 0.538793 85.323C0.927729 86.3071 1.46193 87.2161 2.08517 88.0362C2.7084 88.8609 3.4113 89.6154 4.17511 90.3089C4.93893 91.0024 5.75897 91.635 6.63056 92.2114C7.07105 92.4972 7.51621 92.769 7.98013 93.0221L8.32689 93.2142L8.67834 93.3876C8.91264 93.5047 9.14694 93.6219 9.38592 93.7343C10.3465 94.1654 11.3306 94.5544 12.3381 94.873C13.3456 95.187 14.3718 95.4682 15.4121 95.6743C17.488 96.1195 19.6107 96.3444 21.7382 96.4616C24.8731 96.6162 27.9518 96.485 30.9555 96.2085C33.9592 95.9321 36.8926 95.501 39.7464 95.0089C41.1756 94.7606 42.5814 94.4982 43.9731 94.2264C44.3246 94.1561 44.6573 94.0952 45.0228 94.0155L45.5757 93.8937L46.1146 93.7578C46.8222 93.5656 47.5157 93.3548 48.1858 93.1205C49.5307 92.6659 50.8147 92.1505 52.0752 91.6303C53.3357 91.1102 54.5634 90.5713 55.7677 90.0277C60.5802 87.8581 65.06 85.6791 69.2962 83.7204C73.5229 81.7617 77.4919 80.0044 81.1751 78.5611C84.8583 77.1132 88.2603 75.9839 91.3156 75.2388C94.3661 74.5031 97.0793 74.1751 99.2864 74.2828C101.494 74.3813 103.166 74.9201 104.179 75.4778C104.305 75.5481 104.432 75.609 104.539 75.6699C104.647 75.7402 104.746 75.8011 104.839 75.862C104.933 75.9229 105.017 75.9745 105.097 76.026C105.172 76.0823 105.238 76.1338 105.294 76.1807C105.528 76.3634 105.65 76.4571 105.65 76.4571C105.65 76.4571 105.538 76.354 105.313 76.1572C105.256 76.1057 105.195 76.0541 105.125 75.9932C105.05 75.937 104.971 75.8761 104.881 75.8105C104.792 75.7449 104.694 75.6746 104.591 75.5996C104.483 75.5293 104.366 75.459 104.239 75.3794C103.251 74.7514 101.578 74.0954 99.3192 73.8705C97.0653 73.6362 94.2724 73.8283 91.1281 74.4234C87.9838 75.0279 84.474 76.0167 80.6925 77.324C76.9062 78.6267 72.8341 80.2481 68.5183 82.0756C64.2025 83.8985 59.643 85.9556 54.8259 87.9893C53.6216 88.4954 52.3985 88.9968 51.1614 89.4842C49.9196 89.9668 48.6638 90.4354 47.3892 90.8431C46.7519 91.0493 46.1146 91.232 45.4726 91.396L44.9947 91.5085L44.5214 91.6069C44.1981 91.6725 43.8372 91.7334 43.4998 91.7943C42.1175 92.0427 40.7211 92.2817 39.3153 92.5066C36.499 92.9565 33.6359 93.3454 30.7212 93.5938C27.8112 93.8421 24.8543 93.9593 21.8928 93.8093C19.8825 93.6969 17.9003 93.4907 15.9931 93.0924C15.0372 92.9049 14.1047 92.6566 13.1909 92.3801C12.2772 92.0989 11.4009 91.7569 10.5434 91.382L9.91543 91.0821L9.60147 90.9321L9.29689 90.7728C8.89389 90.5572 8.50027 90.3229 8.11602 90.0793C7.3522 89.5872 6.62588 89.039 5.96047 88.4532C4.63434 87.2771 3.5097 85.9041 2.90521 84.4467C2.76463 84.0812 2.64748 83.7204 2.58188 83.3549C2.55845 83.2659 2.55845 83.1768 2.53971 83.0831C2.52565 82.9941 2.51159 82.905 2.51159 82.816L2.49753 82.5489L2.51159 82.2865C2.53971 81.9397 2.59594 81.6023 2.72246 81.279L2.76463 81.1572C2.77869 81.115 2.80212 81.0775 2.82086 81.04L2.92864 80.8057L3.06454 80.5761L3.13014 80.4637L3.2098 80.3559L3.36444 80.1356L3.54719 79.9248C3.65965 79.7795 3.80492 79.653 3.93613 79.5218C3.99704 79.4562 4.08139 79.3906 4.16105 79.325L4.40004 79.1281C4.55936 78.9969 4.71869 78.8657 4.87801 78.7298C5.0467 78.6127 5.2154 78.4955 5.38409 78.3784C5.55279 78.2659 5.7168 78.1347 5.89487 78.0363C6.07293 77.9332 6.251 77.8348 6.42438 77.7317C6.60245 77.6286 6.77583 77.5255 6.96327 77.4459C8.42529 76.7336 10.0092 76.3166 11.6118 76.1479C13.2191 75.9792 14.8404 76.0495 16.4149 76.2603C17.9941 76.4712 19.5311 76.8226 21.0165 77.2397C22.502 77.6708 23.9312 78.1722 25.3136 78.697C28.0689 79.7795 30.6181 80.9791 32.9658 82.1787C37.6658 84.5967 41.602 86.9631 44.7932 88.9078C47.8719 91.0165 51.5972 93.6781 55.8896 96.7662C58.0357 98.3079 60.3272 99.9573 62.7592 101.682C65.1959 103.402 67.7685 105.206 70.5145 107.028C73.2558 108.851 76.1611 110.702 79.2773 112.478C80.833 113.369 82.4544 114.226 84.1413 115.037C85.8283 115.843 87.5855 116.602 89.4412 117.239C91.2968 117.872 93.2602 118.387 95.3408 118.612C96.3483 118.706 97.3699 118.776 98.4008 118.79C99.4364 118.8 100.481 118.762 101.531 118.654C103.63 118.434 105.776 117.947 107.796 116.967C108.799 116.471 109.769 115.843 110.631 115.06C111.058 114.662 111.456 114.231 111.812 113.758C112.163 113.28 112.477 112.769 112.726 112.221C113.466 110.609 113.607 108.72 113.105 107.047C112.623 105.365 111.596 103.926 110.373 102.82C109.146 101.71 107.731 100.885 106.269 100.295C104.806 99.6855 103.298 99.3107 101.803 99.0529C98.7991 98.5656 95.8328 98.6265 93.0025 98.9451L92.473 99.0107C92.2949 99.0295 92.1216 99.0529 91.9388 99.0857C91.5827 99.142 91.2218 99.2029 90.8657 99.2591C90.1628 99.4137 89.4552 99.559 88.7758 99.7652C87.4121 100.163 86.0907 100.656 84.863 101.265C83.6306 101.869 82.4638 102.553 81.3672 103.289C80.2801 104.039 79.2585 104.835 78.2979 105.665C77.342 106.499 76.4516 107.366 75.6035 108.242C74.7647 109.128 73.9774 110.023 73.2324 110.927C70.2661 114.545 67.9747 118.2 65.9457 121.532C65.4396 122.366 64.9476 123.181 64.4696 123.973C63.9682 124.788 63.5605 125.627 63.2044 126.442C62.4968 128.083 62.0048 129.68 61.6439 131.199C60.9364 134.231 60.7864 136.953 61.166 139.118C61.3534 140.201 61.6768 141.138 62.0844 141.887C62.4921 142.637 62.9841 143.185 63.4199 143.57C63.6495 143.752 63.8464 143.916 64.0432 144.029C64.2306 144.146 64.3899 144.249 64.5305 144.305C64.8023 144.432 64.9429 144.498 64.9429 144.498L64.9241 144.535Z" fill="white"/>
<path d="M64.971 144.535C64.971 144.535 65.1115 144.469 65.3833 144.343C65.5239 144.287 65.6785 144.184 65.8707 144.066C66.0675 143.959 66.2643 143.79 66.4939 143.607C66.9344 143.223 67.4264 142.675 67.8294 141.925C68.2371 141.175 68.5604 140.238 68.7479 139.156C69.1274 136.986 68.9775 134.263 68.2699 131.236C67.9091 129.723 67.417 128.12 66.7095 126.48C66.3533 125.665 65.9456 124.826 65.4442 124.01C64.9663 123.219 64.4742 122.403 63.9682 121.569C61.9391 118.237 59.6477 114.582 56.6815 110.965C55.9364 110.065 55.1491 109.165 54.3104 108.28C53.4622 107.403 52.5719 106.536 51.6159 105.702C50.6553 104.873 49.6337 104.076 48.5466 103.327C47.4501 102.591 46.2833 101.907 45.0509 101.302C43.8184 100.693 42.5017 100.201 41.1381 99.8027C40.4586 99.5919 39.7557 99.4466 39.0481 99.2966C38.692 99.2404 38.3359 99.1795 37.975 99.1233C37.7923 99.0905 37.6189 99.067 37.4408 99.0483L36.9113 98.9827C34.081 98.664 31.1148 98.6078 28.1111 99.0905C26.6115 99.3482 25.1027 99.7231 23.6453 100.332C22.1833 100.927 20.7681 101.752 19.5404 102.858C18.3174 103.964 17.2958 105.402 16.8085 107.085C16.3071 108.753 16.4477 110.646 17.188 112.258C17.4364 112.806 17.7504 113.317 18.1018 113.795C18.4579 114.268 18.8609 114.699 19.2827 115.098C20.1449 115.88 21.1102 116.508 22.1177 117.005C24.1373 117.984 26.2835 118.467 28.3828 118.692C29.4372 118.8 30.4822 118.837 31.5131 118.828C32.5487 118.818 33.5655 118.748 34.573 118.65C36.6536 118.425 38.617 117.909 40.4727 117.277C42.3283 116.639 44.0856 115.885 45.7725 115.074C47.4595 114.264 49.0761 113.406 50.6365 112.516C53.7527 110.74 56.658 108.889 59.3993 107.066C62.1406 105.243 64.7179 103.439 67.1546 101.719C69.5866 99.9949 71.8781 98.3501 74.0243 96.8037C78.3166 93.7156 82.042 91.0587 85.1207 88.9453C88.3118 87.0006 92.248 84.6342 96.9481 82.2163C99.3004 81.0166 101.85 79.817 104.6 78.7346C105.983 78.2097 107.412 77.7037 108.897 77.2772C110.383 76.8602 111.92 76.5087 113.499 76.2979C115.078 76.087 116.699 76.0167 118.302 76.1854C119.905 76.3541 121.493 76.7665 122.951 77.4834C123.138 77.5631 123.311 77.6662 123.489 77.7693C123.668 77.8677 123.846 77.9708 124.019 78.0739C124.197 78.1769 124.356 78.3035 124.53 78.4159C124.698 78.5331 124.867 78.6502 125.036 78.7674C125.195 78.8986 125.354 79.0298 125.514 79.1657L125.753 79.3625C125.832 79.4281 125.917 79.4937 125.978 79.5593C126.109 79.6905 126.254 79.8217 126.367 79.9623L126.549 80.1732L126.704 80.3934L126.784 80.5012L126.849 80.6137L126.985 80.8433L127.093 81.0776C127.112 81.1151 127.13 81.1572 127.149 81.1947L127.191 81.3166C127.318 81.6352 127.374 81.9773 127.402 82.324L127.416 82.5865L127.402 82.8536C127.402 82.9426 127.388 83.0316 127.374 83.1207C127.36 83.2097 127.36 83.2987 127.332 83.3924C127.266 83.7533 127.145 84.1188 127.009 84.4843C126.404 85.9416 125.279 87.3146 123.953 88.4908C123.283 89.0812 122.562 89.6248 121.798 90.1168C121.414 90.3605 121.02 90.5948 120.617 90.8103L120.312 90.9697L119.998 91.1196L119.37 91.4195C118.518 91.7944 117.637 92.1365 116.723 92.4176C115.809 92.6941 114.877 92.9471 113.921 93.1299C112.013 93.5282 110.031 93.7344 108.021 93.8469C105.059 93.9921 102.103 93.8797 99.1926 93.6313C96.2827 93.3829 93.4148 92.994 90.5986 92.5442C89.1928 92.3192 87.7964 92.0802 86.414 91.8319C86.0719 91.771 85.7111 91.7101 85.3924 91.6444L84.9192 91.546L84.4412 91.4336C83.8039 91.2696 83.1619 91.0868 82.5246 90.8806C81.25 90.473 79.9942 90.0044 78.7524 89.5217C77.5106 89.039 76.2923 88.533 75.088 88.0269C70.2708 85.9885 65.7113 83.936 61.3956 82.1132C57.0798 80.2856 53.0123 78.6643 49.2214 77.3616C45.4351 76.0495 41.93 75.0608 38.7857 74.461C35.6461 73.8518 32.8579 73.6644 30.5993 73.8986C28.3407 74.1236 26.6678 74.7796 25.679 75.4075C25.5525 75.4872 25.4354 75.5528 25.3276 75.6278C25.2245 75.7028 25.1261 75.773 25.037 75.8386C24.948 75.9042 24.8637 75.9652 24.7934 76.0214C24.7231 76.0823 24.6622 76.1385 24.6059 76.1854C24.381 76.3822 24.2685 76.4853 24.2685 76.4853C24.2685 76.4853 24.3904 76.3916 24.6247 76.2088C24.6856 76.162 24.7512 76.1104 24.8215 76.0542C24.9012 76.0027 24.9855 75.9511 25.0792 75.8902C25.1729 75.8293 25.2713 75.7684 25.3791 75.6981C25.4869 75.6325 25.6134 75.5715 25.7399 75.5059C26.7521 74.9483 28.425 74.4047 30.6321 74.311C32.8392 74.2032 35.5477 74.5313 38.603 75.267C41.6582 76.0073 45.0602 77.1367 48.7434 78.5893C52.4266 80.0326 56.3956 81.7898 60.6224 83.7486C64.8538 85.7026 69.3336 87.8816 74.1508 90.0559C75.3551 90.5948 76.5828 91.1337 77.8433 91.6585C79.1039 92.1786 80.3878 92.6894 81.7327 93.1486C82.4028 93.3783 83.0916 93.5891 83.8039 93.7859L84.3428 93.9218L84.8957 94.0437C85.2612 94.1233 85.5939 94.1842 85.9454 94.2545C87.3371 94.5263 88.7429 94.7887 90.1721 95.0371C93.0259 95.5291 95.9593 95.9555 98.963 96.2367C101.967 96.5132 105.05 96.6444 108.18 96.4897C110.308 96.3726 112.431 96.1477 114.506 95.7025C115.547 95.4963 116.568 95.2152 117.58 94.9012C118.588 94.5826 119.572 94.1936 120.533 93.7625C120.772 93.65 121.006 93.5329 121.24 93.4157L121.592 93.2424L121.938 93.0502C122.402 92.7972 122.847 92.5207 123.288 92.2396C124.16 91.6632 124.98 91.0306 125.743 90.3371C126.507 89.6435 127.21 88.8891 127.833 88.0644C128.457 87.2443 128.986 86.3352 129.38 85.3512C129.562 84.8498 129.722 84.339 129.811 83.8001C129.839 83.6689 129.848 83.5283 129.867 83.3924C129.881 83.2565 129.9 83.1207 129.9 82.9801L129.909 82.5677L129.881 82.1507C129.83 81.5977 129.717 81.0401 129.506 80.5199L129.431 80.3231C129.403 80.2575 129.37 80.1966 129.342 80.1357L129.159 79.7608L128.944 79.4094L128.836 79.236L128.714 79.072L128.471 78.7486C128.382 78.6455 128.293 78.5471 128.204 78.4487C128.03 78.2426 127.833 78.0739 127.641 77.8911C127.548 77.7974 127.449 77.7224 127.355 77.6474L127.07 77.4178C126.877 77.2679 126.69 77.1179 126.498 76.968C126.296 76.8274 126.09 76.6962 125.889 76.565C125.682 76.4338 125.49 76.2885 125.275 76.176C125.059 76.0589 124.848 75.9464 124.633 75.8293C124.422 75.7121 124.211 75.595 123.986 75.5059C122.229 74.7 120.355 74.2642 118.522 74.1283C116.69 73.9877 114.905 74.1236 113.213 74.4C111.517 74.6812 109.9 75.1076 108.363 75.595C106.826 76.0964 105.369 76.6681 103.968 77.2585C101.18 78.4722 98.6444 79.7936 96.3201 81.1057C91.681 83.7486 87.8573 86.3118 84.7739 88.4252C81.5781 90.3792 77.7074 92.8628 73.2745 95.7681C71.0627 97.2208 68.701 98.7718 66.208 100.407C63.7151 102.033 61.0863 103.744 58.3075 105.468C55.5334 107.193 52.6093 108.94 49.5166 110.604C47.9702 111.438 46.377 112.235 44.7369 112.984C43.0968 113.729 41.4052 114.418 39.6667 114.981C37.9282 115.543 36.1334 115.974 34.3293 116.147C33.3921 116.222 32.4503 116.279 31.5084 116.279C30.5665 116.279 29.6246 116.232 28.6921 116.129C26.8318 115.918 24.9902 115.473 23.3642 114.676C22.5582 114.273 21.8131 113.781 21.1805 113.2C20.8712 112.905 20.5807 112.595 20.3323 112.263C20.0887 111.925 19.8731 111.574 19.7044 111.208C19.2171 110.126 19.1187 108.926 19.4514 107.797C19.77 106.668 20.4823 105.623 21.4148 104.765C22.352 103.908 23.486 103.219 24.7137 102.708C25.9368 102.183 27.2535 101.836 28.5796 101.593C31.2507 101.124 33.992 101.129 36.6583 101.377L37.1597 101.429C37.3284 101.443 37.4924 101.462 37.6517 101.49C37.975 101.537 38.2937 101.583 38.6123 101.626C39.2449 101.752 39.8775 101.869 40.4914 102.043C41.7238 102.375 42.9234 102.792 44.0574 103.322C45.1961 103.847 46.2833 104.447 47.3142 105.103C48.3404 105.773 49.3198 106.494 50.2476 107.249C51.1754 108.008 52.047 108.809 52.8811 109.625C53.7105 110.445 54.4978 111.283 55.2522 112.132C58.2466 115.538 60.6552 119.053 62.8201 122.281C63.359 123.092 63.8885 123.884 64.404 124.657C64.9053 125.398 65.3271 126.166 65.7067 126.939C66.4611 128.481 67.0187 130.009 67.4451 131.466C68.2886 134.376 68.5838 137.014 68.3402 139.123C68.2183 140.177 67.9653 141.096 67.6185 141.841C67.2718 142.586 66.8313 143.148 66.4283 143.551C66.2174 143.743 66.0347 143.921 65.8472 144.038C65.6692 144.165 65.5192 144.277 65.3833 144.343C65.1209 144.488 64.9897 144.563 64.9897 144.563L64.971 144.535Z" fill="white"/>
</g>
<g clip-path="url(#clip1_58_2697)">
<path d="M64.9241 0.230843C64.9241 0.230843 64.7882 0.305817 64.5305 0.451088C64.3946 0.516685 64.2447 0.624466 64.0666 0.755669C63.8792 0.872818 63.6964 1.05089 63.4855 1.24302C63.0825 1.64601 62.6421 2.20364 62.2953 2.95339C61.9485 3.69846 61.6908 4.61692 61.5737 5.67126C61.33 7.78464 61.6252 10.4182 62.4687 13.3282C62.8951 14.7808 63.4527 16.3131 64.2072 17.8548C64.5867 18.6233 65.0038 19.3918 65.5099 20.1369C66.0253 20.9101 66.5548 21.702 67.0937 22.5127C69.2587 25.746 71.6626 29.2558 74.6616 32.6625C75.4114 33.5107 76.2033 34.3494 77.0327 35.1695C77.8715 35.9849 78.7431 36.7815 79.6662 37.5453C80.5987 38.2997 81.5734 39.0214 82.5996 39.6915C83.6352 40.3475 84.7224 40.9473 85.8564 41.4721C86.9904 42.0017 88.19 42.4187 89.4224 42.7514C90.0363 42.9248 90.6689 43.0419 91.3015 43.1685C91.6201 43.2153 91.9435 43.2622 92.2621 43.3044C92.4215 43.3278 92.5855 43.3465 92.7542 43.3653L93.2556 43.4168C95.9172 43.6699 98.6632 43.6699 101.334 43.2013C102.66 42.9576 103.977 42.6108 105.2 42.086C106.428 41.5752 107.567 40.8864 108.499 40.0289C109.432 39.1713 110.144 38.1263 110.462 36.997C110.795 35.8677 110.697 34.6681 110.209 33.5856C110.041 33.2154 109.825 32.8687 109.582 32.5313C109.333 32.1986 109.043 31.8846 108.733 31.5941C108.096 31.013 107.351 30.521 106.55 30.118C104.924 29.3214 103.082 28.8762 101.222 28.6654C100.289 28.5623 99.3473 28.5201 98.4054 28.5154C97.4636 28.5154 96.5217 28.567 95.5845 28.6466C93.7804 28.82 91.9857 29.2558 90.2472 29.8134C88.5087 30.3757 86.817 31.0646 85.1769 31.8097C83.5368 32.5594 81.9436 33.356 80.3972 34.1901C77.3045 35.8536 74.3851 37.6015 71.6063 39.326C68.8276 41.0504 66.1987 42.7561 63.7058 44.3868C61.2128 46.0222 58.8558 47.5733 56.6393 49.0259C52.2111 51.9312 48.3405 54.4148 45.1399 56.3689C42.0519 58.4822 38.2328 61.0455 33.5937 63.6884C31.2694 65.0051 28.7343 66.3219 25.9462 67.5355C24.5451 68.1307 23.0877 68.7024 21.5507 69.1991C20.009 69.6864 18.3971 70.1128 16.7007 70.394C15.0044 70.6751 13.2237 70.811 11.3915 70.6658C9.56399 70.5252 7.68491 70.0941 5.93235 69.2881C5.70743 69.1991 5.49656 69.0819 5.28569 68.9648C5.07482 68.8476 4.85926 68.7352 4.64371 68.618C4.42815 68.5009 4.23603 68.3556 4.02985 68.2291C3.82835 68.0932 3.62217 67.962 3.42067 67.8261C3.22854 67.6761 3.04111 67.5262 2.84898 67.3762L2.56314 67.1466C2.46942 67.0716 2.37101 66.9967 2.27729 66.9029C2.08517 66.7249 1.88835 66.5515 1.71497 66.3453C1.62594 66.2469 1.53691 66.1485 1.44787 66.0454L1.2042 65.7221L1.08237 65.5581L0.974589 65.3847L0.759034 65.0332L0.576281 64.6584C0.548165 64.5974 0.515363 64.5318 0.487247 64.4709L0.412271 64.2741C0.201402 63.754 0.088939 63.1963 0.0373932 62.6434L0.00927734 62.2263L0.0186493 61.814C0.0186493 61.6734 0.0373932 61.5375 0.0514512 61.4016C0.0701951 61.2657 0.074881 61.1251 0.107683 60.9939C0.196716 60.455 0.351354 59.9396 0.538793 59.4429C0.927729 58.4588 1.46193 57.5497 2.08517 56.7297C2.7084 55.9049 3.4113 55.1505 4.17511 54.457C4.93893 53.7635 5.75897 53.1308 6.63056 52.5545C7.07105 52.2686 7.51621 51.9968 7.98013 51.7438L8.32689 51.5517L8.67834 51.3783C8.91264 51.2611 9.14694 51.144 9.38592 51.0315C10.3465 50.6004 11.3306 50.2115 12.3381 49.8928C13.3456 49.5789 14.3718 49.2977 15.4121 49.0915C17.488 48.6464 19.6107 48.4214 21.7382 48.3043C24.8731 48.1497 27.9518 48.2809 30.9555 48.5573C33.9592 48.8338 36.8926 49.2649 39.7464 49.7569C41.1756 50.0053 42.5814 50.2677 43.9731 50.5395C44.3246 50.6098 44.6573 50.6707 45.0228 50.7504L45.5757 50.8722L46.1146 51.0081C46.8222 51.2002 47.5157 51.4111 48.1858 51.6454C49.5307 52.0999 50.8147 52.6154 52.0752 53.1355C53.3357 53.6557 54.5634 54.1946 55.7677 54.7381C60.5802 56.9077 65.06 59.0867 69.2962 61.0455C73.5229 63.0042 77.4919 64.7614 81.1751 66.2047C84.8583 67.6527 88.2603 68.782 91.3156 69.5271C94.3661 70.2628 97.0793 70.5908 99.2864 70.483C101.494 70.3846 103.166 69.8457 104.179 69.2881C104.305 69.2178 104.432 69.1569 104.539 69.096C104.647 69.0257 104.746 68.9648 104.839 68.9038C104.933 68.8429 105.017 68.7914 105.097 68.7398C105.172 68.6836 105.238 68.6321 105.294 68.5852C105.528 68.4024 105.65 68.3087 105.65 68.3087C105.65 68.3087 105.538 68.4118 105.313 68.6086C105.256 68.6602 105.195 68.7117 105.125 68.7726C105.05 68.8289 104.971 68.8898 104.881 68.9554C104.792 69.021 104.694 69.0913 104.591 69.1663C104.483 69.2366 104.366 69.3068 104.239 69.3865C103.251 70.0144 101.578 70.6705 99.3192 70.8954C97.0653 71.1297 94.2724 70.9376 91.1281 70.3424C87.9838 69.738 84.474 68.7492 80.6925 67.4418C76.9062 66.1391 72.8341 64.5178 68.5183 62.6902C64.2025 60.8674 59.643 58.8103 54.8259 56.7765C53.6216 56.2705 52.3985 55.7691 51.1614 55.2817C49.9196 54.7991 48.6638 54.3305 47.3892 53.9228C46.7519 53.7166 46.1146 53.5338 45.4726 53.3698L44.9947 53.2574L44.5214 53.159C44.1981 53.0934 43.8372 53.0324 43.4998 52.9715C42.1175 52.7232 40.7211 52.4842 39.3153 52.2593C36.499 51.8094 33.6359 51.4205 30.7212 51.1721C27.8112 50.9238 24.8543 50.8066 21.8928 50.9566C19.8825 51.069 17.9003 51.2752 15.9931 51.6735C15.0372 51.8609 14.1047 52.1093 13.1909 52.3858C12.2772 52.6669 11.4009 53.009 10.5434 53.3839L9.91543 53.6838L9.60147 53.8337L9.29689 53.9931C8.89389 54.2086 8.50027 54.4429 8.11602 54.6866C7.3522 55.1786 6.62588 55.7269 5.96047 56.3126C4.63434 57.4888 3.5097 58.8618 2.90521 60.3191C2.76463 60.6846 2.64748 61.0455 2.58188 61.411C2.55845 61.5 2.55845 61.589 2.53971 61.6828C2.52565 61.7718 2.51159 61.8608 2.51159 61.9499L2.49753 62.217L2.51159 62.4794C2.53971 62.8261 2.59594 63.1635 2.72246 63.4869L2.76463 63.6087C2.77869 63.6509 2.80212 63.6884 2.82086 63.7258L2.92864 63.9601L3.06454 64.1898L3.13014 64.3022L3.2098 64.41L3.36444 64.6302L3.54719 64.8411C3.65965 64.9864 3.80492 65.1129 3.93613 65.2441C3.99704 65.3097 4.08139 65.3753 4.16105 65.4409L4.40004 65.6377C4.55936 65.7689 4.71869 65.9001 4.87801 66.036C5.0467 66.1532 5.2154 66.2703 5.38409 66.3875C5.55279 66.4999 5.7168 66.6311 5.89487 66.7296C6.07293 66.8326 6.251 66.9311 6.42438 67.0341C6.60245 67.1372 6.77583 67.2403 6.96327 67.32C8.42529 68.0323 10.0092 68.4493 11.6118 68.618C13.2191 68.7867 14.8404 68.7164 16.4149 68.5055C17.9941 68.2947 19.5311 67.9432 21.0165 67.5262C22.502 67.0951 23.9312 66.5937 25.3136 66.0688C28.0689 64.9864 30.6181 63.7868 32.9658 62.5872C37.6658 60.1692 41.602 57.8028 44.7932 55.8581C47.8719 53.7494 51.5972 51.0878 55.8896 47.9997C58.0357 46.458 60.3272 44.8086 62.7592 43.0841C65.1959 41.3644 67.7685 39.5603 70.5145 37.7374C73.2558 35.9146 76.1611 34.0636 79.2773 32.2876C80.833 31.3973 82.4544 30.5397 84.1413 29.7291C85.8283 28.9231 87.5855 28.164 89.4412 27.5267C91.2968 26.8941 93.2602 26.3786 95.3408 26.1537C96.3483 26.06 97.3699 25.9897 98.4008 25.9756C99.4364 25.9662 100.481 26.0037 101.531 26.1115C103.63 26.3317 105.776 26.8191 107.796 27.7985C108.799 28.2952 109.769 28.9231 110.631 29.7056C111.058 30.104 111.456 30.5351 111.812 31.0084C112.163 31.4863 112.477 31.9971 112.726 32.5453C113.466 34.1573 113.607 36.0458 113.105 37.7187C112.623 39.4009 111.596 40.8395 110.373 41.9454C109.146 43.056 107.731 43.8807 106.269 44.4712C104.806 45.0803 103.298 45.4552 101.803 45.7129C98.7991 46.2003 95.8328 46.1394 93.0025 45.8207L92.473 45.7551C92.2949 45.7364 92.1216 45.7129 91.9388 45.6801C91.5827 45.6239 91.2218 45.563 90.8657 45.5068C90.1628 45.3521 89.4552 45.2069 88.7758 45.0007C87.4121 44.6024 86.0907 44.1103 84.863 43.5012C83.6306 42.8967 82.4638 42.2125 81.3672 41.4768C80.2801 40.7271 79.2585 39.9304 78.2979 39.101C77.342 38.2669 76.4516 37.4 75.6035 36.5237C74.7647 35.6381 73.9774 34.7431 73.2324 33.8387C70.2661 30.2211 67.9747 26.566 65.9457 23.2343C65.4396 22.4002 64.9476 21.5848 64.4696 20.7929C63.9682 19.9776 63.5605 19.1388 63.2044 18.3234C62.4968 16.6833 62.0048 15.0854 61.6439 13.5671C60.9364 10.5353 60.7864 7.81276 61.166 5.64783C61.3534 4.56537 61.6768 3.62817 62.0844 2.87842C62.4921 2.12866 62.9841 1.58041 63.4199 1.19615C63.6495 1.0134 63.8464 0.849396 64.0432 0.736931C64.2306 0.619781 64.3899 0.516685 64.5305 0.460449C64.8023 0.333931 64.9429 0.268333 64.9429 0.268333L64.9241 0.230843Z" fill="white"/>
<path d="M64.971 0.230789C64.971 0.230789 65.1115 0.296394 65.3833 0.42292C65.5239 0.479149 65.6785 0.582237 65.8707 0.699387C66.0675 0.807167 66.2643 0.975861 66.4939 1.15862C66.9344 1.54286 67.4264 2.09112 67.8294 2.84087C68.2371 3.59064 68.5604 4.52783 68.7479 5.61029C69.1274 7.7799 68.9775 10.5025 68.2699 13.5296C67.9091 15.0432 67.417 16.6458 66.7095 18.2859C66.3533 19.1012 65.9456 19.94 65.4442 20.7554C64.9663 21.5473 64.4742 22.3627 63.9682 23.1968C61.9391 26.5285 59.6477 30.1836 56.6815 33.8011C55.9364 34.7008 55.1491 35.6005 54.3104 36.4862C53.4622 37.3625 52.5719 38.2294 51.6159 39.0635C50.6553 39.8929 49.6337 40.6895 48.5466 41.4393C47.4501 42.175 46.2833 42.8591 45.0509 43.4636C43.8184 44.0728 42.5017 44.5648 41.1381 44.9631C40.4586 45.174 39.7557 45.3193 39.0481 45.4692C38.692 45.5255 38.3359 45.5864 37.975 45.6426C37.7923 45.6754 37.6189 45.6988 37.4408 45.7176L36.9113 45.7832C34.081 46.1018 31.1148 46.1581 28.1111 45.6754C26.6115 45.4177 25.1027 45.0428 23.6453 44.4336C22.1833 43.8385 20.7681 43.0138 19.5404 41.9079C18.3174 40.802 17.2958 39.3634 16.8085 37.6811C16.3071 36.0129 16.4477 34.1198 17.188 32.5078C17.4364 31.9595 17.7504 31.4488 18.1018 30.9708C18.4579 30.4975 18.8609 30.0664 19.2827 29.6681C20.1449 28.8855 21.1102 28.2576 22.1177 27.7609C24.1373 26.7815 26.2835 26.2989 28.3828 26.074C29.4372 25.9662 30.4822 25.9287 31.5131 25.9381C32.5487 25.9474 33.5655 26.0177 34.573 26.1161C36.6536 26.3411 38.617 26.8565 40.4727 27.4891C42.3283 28.1264 44.0856 28.8809 45.7725 29.6915C47.4595 30.5022 49.0761 31.3597 50.6365 32.2501C53.7527 34.0261 56.658 35.877 59.3993 37.6999C62.1406 39.5227 64.7179 41.3268 67.1546 43.0466C69.5866 44.771 71.8781 46.4158 74.0243 47.9622C78.3166 51.0502 82.042 53.7072 85.1207 55.8205C88.3118 57.7652 92.248 60.1316 96.9481 62.5496C99.3004 63.7492 101.85 64.9488 104.6 66.0313C105.983 66.5561 107.412 67.0622 108.897 67.4886C110.383 67.9057 111.92 68.2571 113.499 68.468C115.078 68.6789 116.699 68.7492 118.302 68.5805C119.905 68.4118 121.493 67.9994 122.951 67.2824C123.138 67.2028 123.311 67.0997 123.489 66.9966C123.668 66.8982 123.846 66.7951 124.019 66.692C124.197 66.5889 124.356 66.4624 124.53 66.3499C124.698 66.2328 124.867 66.1156 125.036 65.9985C125.195 65.8673 125.354 65.7361 125.514 65.6002L125.753 65.4034C125.832 65.3378 125.917 65.2722 125.978 65.2066C126.109 65.0754 126.254 64.9441 126.367 64.8036L126.549 64.5927L126.704 64.3725L126.784 64.2647L126.849 64.1522L126.985 63.9226L127.093 63.6883C127.112 63.6508 127.13 63.6086 127.149 63.5712L127.191 63.4493C127.318 63.1307 127.374 62.7886 127.402 62.4418L127.416 62.1794L127.402 61.9123C127.402 61.8233 127.388 61.7342 127.374 61.6452C127.36 61.5562 127.36 61.4671 127.332 61.3734C127.266 61.0126 127.145 60.6471 127.009 60.2816C126.404 58.8243 125.279 57.4513 123.953 56.2751C123.283 55.6847 122.562 55.1411 121.798 54.6491C121.414 54.4054 121.02 54.1711 120.617 53.9555L120.312 53.7962L119.998 53.6463L119.37 53.3463C118.518 52.9715 117.637 52.6294 116.723 52.3482C115.809 52.0718 114.877 51.8187 113.921 51.636C112.013 51.2377 110.031 51.0315 108.021 50.919C105.059 50.7737 102.103 50.8862 99.1926 51.1346C96.2827 51.3829 93.4148 51.7719 90.5986 52.2217C89.1928 52.4466 87.7964 52.6856 86.414 52.934C86.0719 52.9949 85.7111 53.0558 85.3924 53.1214L84.9192 53.2198L84.4412 53.3323C83.8039 53.4963 83.1619 53.6791 82.5246 53.8852C81.25 54.2929 79.9942 54.7615 78.7524 55.2442C77.5106 55.7268 76.2923 56.2329 75.088 56.739C70.2708 58.7774 65.7113 60.8299 61.3956 62.6527C57.0798 64.4802 53.0123 66.1016 49.2214 67.4043C45.4351 68.7164 41.93 69.7051 38.7857 70.3049C35.6461 70.9141 32.8579 71.1015 30.5993 70.8672C28.3407 70.6423 26.6678 69.9863 25.679 69.3583C25.5525 69.2787 25.4354 69.2131 25.3276 69.1381C25.2245 69.0631 25.1261 68.9928 25.037 68.9272C24.948 68.8616 24.8637 68.8007 24.7934 68.7445C24.7231 68.6836 24.6622 68.6273 24.6059 68.5805C24.381 68.3837 24.2685 68.2806 24.2685 68.2806C24.2685 68.2806 24.3904 68.3743 24.6247 68.557C24.6856 68.6039 24.7512 68.6554 24.8215 68.7117C24.9012 68.7632 24.9855 68.8148 25.0792 68.8757C25.1729 68.9366 25.2713 68.9975 25.3791 69.0678C25.4869 69.1334 25.6134 69.1943 25.7399 69.2599C26.7521 69.8176 28.425 70.3611 30.6321 70.4549C32.8392 70.5626 35.5477 70.2346 38.603 69.4989C41.6582 68.7585 45.0602 67.6292 48.7434 66.1766C52.4266 64.7333 56.3956 62.976 60.6224 61.0173C64.8538 59.0632 69.3336 56.8843 74.1508 54.71C75.3551 54.1711 76.5828 53.6322 77.8433 53.1074C79.1039 52.5872 80.3878 52.0764 81.7327 51.6172C82.4028 51.3876 83.0916 51.1767 83.8039 50.9799L84.3428 50.844L84.8957 50.7222C85.2612 50.6425 85.5939 50.5816 85.9454 50.5113C87.3371 50.2395 88.7429 49.9771 90.1721 49.7288C93.0259 49.2367 95.9593 48.8103 98.963 48.5292C101.967 48.2527 105.05 48.1215 108.18 48.2761C110.308 48.3933 112.431 48.6182 114.506 49.0634C115.547 49.2695 116.568 49.5507 117.58 49.8647C118.588 50.1833 119.572 50.5723 120.533 51.0034C120.772 51.1158 121.006 51.233 121.24 51.3501L121.592 51.5235L121.938 51.7156C122.402 51.9687 122.847 52.2451 123.288 52.5263C124.16 53.1027 124.98 53.7353 125.743 54.4288C126.507 55.1223 127.21 55.8768 127.833 56.7015C128.457 57.5216 128.986 58.4306 129.38 59.4147C129.562 59.9161 129.722 60.4269 129.811 60.9657C129.839 61.097 129.848 61.2375 129.867 61.3734C129.881 61.5093 129.9 61.6452 129.9 61.7858L129.909 62.1982L129.881 62.6152C129.83 63.1682 129.717 63.7258 129.506 64.2459L129.431 64.4427C129.403 64.5083 129.37 64.5693 129.342 64.6302L129.159 65.0051L128.944 65.3565L128.836 65.5299L128.714 65.6939L128.471 66.0172C128.382 66.1203 128.293 66.2187 128.204 66.3171C128.03 66.5233 127.833 66.692 127.641 66.8748C127.548 66.9685 127.449 67.0435 127.355 67.1184L127.07 67.3481C126.877 67.498 126.69 67.648 126.498 67.7979C126.296 67.9385 126.09 68.0697 125.889 68.2009C125.682 68.3321 125.49 68.4774 125.275 68.5898C125.059 68.707 124.848 68.8194 124.633 68.9366C124.422 69.0537 124.211 69.1709 123.986 69.2599C122.229 70.0659 120.355 70.5017 118.522 70.6376C116.69 70.7782 114.905 70.6423 113.213 70.3658C111.517 70.0847 109.9 69.6582 108.363 69.1709C106.826 68.6695 105.369 68.0978 103.968 67.5074C101.18 66.2937 98.6444 64.9723 96.3201 63.6602C91.681 61.0173 87.8573 58.4541 84.7739 56.3407C81.5781 54.3866 77.7074 51.9031 73.2745 48.9978C71.0627 47.5451 68.701 45.9941 66.208 44.3586C63.7151 42.7326 61.0863 41.0222 58.3075 39.2978C55.5334 37.5733 52.6093 35.8255 49.5166 34.162C47.9702 33.3279 46.377 32.5312 44.7369 31.7815C43.0968 31.0364 41.4052 30.3476 39.6667 29.7853C37.9282 29.2229 36.1334 28.7918 34.3293 28.6184C33.3921 28.5435 32.4503 28.4872 31.5084 28.4872C30.5665 28.4872 29.6246 28.5341 28.6921 28.6372C26.8318 28.8481 24.9902 29.2932 23.3642 30.0898C22.5582 30.4928 21.8131 30.9849 21.1805 31.5659C20.8712 31.8611 20.5807 32.1704 20.3323 32.5031C20.0887 32.8405 19.8731 33.192 19.7044 33.5575C19.2171 34.6399 19.1187 35.8395 19.4514 36.9689C19.77 38.0982 20.4823 39.1431 21.4148 40.0007C22.352 40.8582 23.486 41.5471 24.7137 42.0578C25.9368 42.5827 27.2535 42.9294 28.5796 43.1731C31.2507 43.6417 33.992 43.637 36.6583 43.3886L37.1597 43.3371C37.3284 43.323 37.4924 43.3043 37.6517 43.2762C37.975 43.2293 38.2937 43.1825 38.6123 43.1403C39.2449 43.0138 39.8775 42.8966 40.4914 42.7232C41.7238 42.3905 42.9234 41.9735 44.0574 41.444C45.1961 40.9191 46.2833 40.3193 47.3142 39.6633C48.3404 38.9932 49.3198 38.2716 50.2476 37.5171C51.1754 36.758 52.047 35.9567 52.8811 35.1413C53.7105 34.3213 54.4978 33.4825 55.2522 32.6343C58.2466 29.2276 60.6552 25.7131 62.8201 22.4845C63.359 21.6738 63.8885 20.8819 64.404 20.1087C64.9053 19.3683 65.3271 18.5998 65.7067 17.8266C66.4611 16.285 67.0187 14.7573 67.4451 13.3C68.2886 10.39 68.5838 7.75179 68.3402 5.6431C68.2183 4.58875 67.9653 3.6703 67.6185 2.92523C67.2718 2.18016 66.8313 1.61784 66.4283 1.21484C66.2174 1.02272 66.0347 0.84465 65.8472 0.727501C65.6692 0.600983 65.5192 0.488525 65.3833 0.42292C65.1209 0.277649 64.9897 0.202675 64.9897 0.202675L64.971 0.230789Z" fill="white"/>
</g>
</g>
<defs>
<clipPath id="clip0_58_2697">
<rect width="129.9" height="70.7348" fill="white" transform="translate(0 73.8003)"/>
</clipPath>
<clipPath id="clip1_58_2697">
<rect width="129.9" height="70.7348" fill="white" transform="matrix(1 0 0 -1 0 70.9656)"/>
</clipPath>
</defs>
</svg>
