<svg width="356" height="22" viewBox="0 0 356 22" fill="none" xmlns="http://www.w3.org/2000/svg">
<g opacity="0.3">
<line x1="44.9971" y1="9.5" x2="313.367" y2="9.5" stroke="url(#paint0_linear_57_1649)"/>
<g clip-path="url(#clip0_57_1649)">
<path d="M6.18834 4.99826C6.13377 4.88106 6.03144 4.79833 5.86772 4.76386C5.71082 4.72938 5.49253 4.75007 5.25377 4.86727C5.01501 4.98447 4.75578 5.21199 4.58524 5.54291C4.40788 5.86694 4.32602 6.2806 4.37377 6.67357C4.38741 6.87351 4.45563 7.1217 4.57842 7.39058C4.69439 7.65256 4.87175 7.92144 5.10369 8.16274C5.32881 8.40404 5.60167 8.61776 5.89501 8.78323C6.18834 8.94869 6.50214 9.06589 6.80912 9.14862C7.11609 9.22446 7.40943 9.25893 7.68229 9.26583C7.81873 9.26583 7.94152 9.26583 8.06431 9.25204C8.18028 9.23825 8.28943 9.23135 8.39175 9.21067C8.49408 9.18999 8.58276 9.16931 8.6578 9.15552C8.73284 9.13483 8.80105 9.11415 8.85563 9.09347C8.96478 9.0521 9.01935 9.01763 9.01935 8.98316C9.01935 8.95558 8.95795 8.92111 8.85563 8.88664C8.73966 8.84527 8.5964 8.79701 8.43268 8.74186C8.344 8.71428 8.25532 8.67292 8.15981 8.63845C8.06431 8.59708 7.96198 8.55571 7.85966 8.50745C7.65501 8.41093 7.45036 8.28684 7.25935 8.15585C7.06834 8.01796 6.8978 7.85939 6.75454 7.69393C6.61129 7.52847 6.50214 7.35611 6.4271 7.19754C6.35206 7.03897 6.30431 6.89419 6.28385 6.77009C6.27702 6.74252 6.27702 6.71494 6.2702 6.68736C6.2702 6.65979 6.26338 6.63221 6.26338 6.61153C6.26338 6.59084 6.26338 6.56327 6.25656 6.54948C6.25656 6.52879 6.25656 6.51501 6.25656 6.49432C6.24291 6.36333 6.22927 6.25302 6.22245 6.14961C6.21563 6.04619 6.20881 5.9221 6.22245 5.798C6.24291 5.53602 6.3316 5.24646 6.22245 5.01205L6.18834 4.99826Z" fill="white"/>
<path d="M4.16202 9.07278C5.84016 9.73463 8.15954 9.84494 8.46652 9.85873C8.48698 9.85873 8.50063 9.87251 8.50063 9.8863L9.32605 10.555C9.4352 10.6447 9.44202 10.8101 9.3397 10.9067L8.56202 11.6306C8.56202 11.6306 8.54838 11.6581 8.52791 11.6581C8.22094 11.6926 6.09256 11.927 4.29163 12.7336C4.27799 12.7336 1.60388 11.3824 1.0445 11.079C0.989929 11.0514 0.983107 10.9825 1.0445 10.948C1.58342 10.6033 4.1552 9.06588 4.16884 9.07278H4.16202Z" fill="white"/>
<path d="M6.60452 16.753C6.55677 16.8702 6.46127 16.9598 6.29755 17.0081C6.14065 17.0563 5.92235 17.0495 5.67677 16.946C5.43119 16.8495 5.15832 16.6358 4.96049 16.3187C4.76266 16.0084 4.65352 15.6017 4.66716 15.2018C4.66716 15.0019 4.72173 14.7468 4.81724 14.4779C4.91956 14.209 5.07646 13.9263 5.28111 13.6713C5.49258 13.4162 5.74499 13.1818 6.0315 13.0025C6.31119 12.8164 6.61817 12.6785 6.91832 12.5751C7.21848 12.4785 7.51181 12.4234 7.77786 12.4027C7.91429 12.3958 8.03708 12.3889 8.15305 12.3889C8.26902 12.3889 8.37817 12.3958 8.48049 12.4096C8.58282 12.4234 8.6715 12.4372 8.74654 12.451C8.8284 12.4648 8.88979 12.4854 8.94437 12.4992C9.05351 12.5337 9.11491 12.5682 9.11491 12.5957C9.11491 12.6233 9.06034 12.6578 8.95801 12.7061C8.84204 12.7543 8.70561 12.8164 8.54871 12.8784C8.46685 12.9129 8.37817 12.9611 8.28266 13.0025C8.18716 13.0508 8.09165 13.099 7.99615 13.1542C7.80514 13.2645 7.60731 13.4024 7.42313 13.5472C7.24576 13.6988 7.08204 13.8643 6.95243 14.0435C6.82282 14.2159 6.72731 14.3952 6.6591 14.5606C6.59088 14.7261 6.56359 14.8778 6.54995 14.995C6.54313 15.0225 6.54995 15.057 6.54313 15.0777C6.54313 15.1053 6.54313 15.1328 6.54313 15.1535C6.54313 15.1742 6.54313 15.2018 6.54313 15.2156C6.54313 15.2363 6.54313 15.25 6.54313 15.2707C6.54313 15.4017 6.53631 15.512 6.53631 15.6223C6.53631 15.7326 6.53631 15.8498 6.55677 15.9739C6.59088 16.229 6.70003 16.5186 6.60452 16.7599V16.753Z" fill="white"/>
<path d="M9.17602 16.6498C9.10098 16.7118 9.08051 16.8359 9.11462 17.0014C9.14873 17.1737 9.23059 17.3875 9.37385 17.6494C9.44206 17.7804 9.53075 17.9183 9.63307 18.0631C9.7354 18.2148 9.85137 18.3664 9.9878 18.5319C10.2607 18.8559 10.5949 19.2075 11.0315 19.5592C11.4613 19.9039 11.9934 20.2486 12.6346 20.5244C13.2759 20.7932 14.0467 20.9932 14.879 21.0001C15.7112 21.0207 16.5776 20.8415 17.3757 20.5244C18.1738 20.2072 18.9106 19.766 19.5791 19.2558C20.2476 18.7525 21.0321 18.0217 21.8371 17.1255C22.6421 16.2292 23.4607 15.1744 24.3066 14.0506C25.1456 12.9269 26.012 11.7341 26.9329 10.6104C27.1649 10.3346 27.4036 10.0588 27.6424 9.79684C27.7652 9.66585 27.888 9.53486 28.0107 9.41076C28.0721 9.34182 28.1335 9.28667 28.1949 9.23151C28.2563 9.17636 28.3109 9.1212 28.3723 9.06605C28.8703 8.6386 29.4433 8.25942 30.0573 7.97675C30.6712 7.68719 31.3193 7.47347 31.9673 7.34248C32.6154 7.20459 33.2703 7.13565 33.8979 7.13565C35.1531 7.13565 36.2991 7.39074 37.1996 7.77682C37.6566 7.96296 38.0455 8.18358 38.3797 8.3973C38.714 8.61103 38.98 8.83164 39.2052 9.0109C39.4166 9.20394 39.5872 9.34872 39.6963 9.45903C39.8123 9.56244 39.8805 9.61759 39.901 9.60381C39.9146 9.59002 39.8873 9.51418 39.8123 9.37629C39.7441 9.23151 39.6145 9.04537 39.4439 8.79717C39.2597 8.56277 39.0278 8.2801 38.7072 7.99744C38.3934 7.70788 38.0114 7.40453 37.5475 7.12876C36.6266 6.57032 35.3918 6.1153 33.9797 5.94294C33.2771 5.85331 32.5267 5.84642 31.7559 5.92226C30.985 5.9912 30.2005 6.15666 29.4228 6.42554C28.6452 6.68752 27.8811 7.0736 27.1785 7.57688C27.0898 7.63893 27.008 7.70788 26.9193 7.76992C26.8306 7.83887 26.7487 7.90092 26.6737 7.96986C26.5168 8.10085 26.3667 8.23184 26.2098 8.36973C25.9097 8.6386 25.6231 8.91438 25.3435 9.19704C24.2315 10.3139 23.256 11.4584 22.3419 12.4994C21.4278 13.5473 20.5819 14.4919 19.8111 15.2571C19.047 16.0293 18.3649 16.6084 17.8396 17.0083C17.3143 17.4081 16.789 17.7322 16.2842 17.9666C15.7726 18.1941 15.2883 18.3389 14.8107 18.3871C14.3332 18.4423 13.8694 18.394 13.4123 18.2975C12.9621 18.1941 12.5255 18.0355 12.123 17.8632C11.7205 17.6908 11.3521 17.4978 11.0315 17.3185C10.8678 17.2289 10.7109 17.1462 10.5676 17.0703C10.4312 17.0014 10.2948 16.9255 10.1652 16.8566C9.66718 16.6084 9.32609 16.505 9.17602 16.636V16.6498Z" fill="white"/>
<path d="M17.8949 10.2932C18.1609 10.3276 18.4065 9.54168 18.9932 8.54201C19.0682 8.41791 19.1432 8.29381 19.2387 8.16972C19.3206 8.03873 19.4229 7.92842 19.5253 7.80432C19.7367 7.56991 19.9755 7.3424 20.2552 7.14936C20.8077 6.75639 21.5308 6.50819 22.3699 6.42546C22.786 6.3841 23.3591 6.3772 24.0344 6.45993C24.7098 6.54266 25.4874 6.72192 26.2992 7.01148C27.0974 7.29414 27.9569 7.73538 28.8505 8.17661C29.7442 8.61785 30.6856 9.08666 31.6747 9.39001C32.6639 9.70025 33.6803 9.84503 34.608 9.78298C35.5358 9.72783 36.3203 9.5141 36.9752 9.35553C37.3026 9.2728 37.596 9.21075 37.862 9.1556C38.1212 9.10734 38.3532 9.07287 38.5373 9.0384C38.9125 9.00393 39.1308 8.96945 39.1308 8.94188C39.1308 8.9143 38.9194 8.87983 38.5305 8.83846C38.3395 8.83846 38.0939 8.82467 37.8211 8.83846C37.5482 8.85225 37.2344 8.87293 36.9001 8.90741C36.2248 8.96945 35.4335 9.07976 34.6149 9.0315C33.7894 8.99014 32.9094 8.76952 32.0567 8.39723C31.204 8.03873 30.3649 7.52165 29.5191 7.00458C28.6732 6.48751 27.8273 5.95665 26.9132 5.54989C26.0195 5.15002 25.1259 4.88114 24.3141 4.73636C23.5023 4.59158 22.7656 4.57779 22.2062 4.63295C21.6468 4.6881 21.0874 4.8122 20.5758 5.01903C20.0642 5.22586 19.5935 5.51542 19.2115 5.85324C18.8294 6.19106 18.5293 6.57024 18.2974 6.94943C18.1882 7.14247 18.0859 7.32172 18.0177 7.50787C17.9358 7.68712 17.8744 7.86637 17.8267 8.03873C17.6288 8.72815 17.6152 9.28659 17.6493 9.66578C17.697 10.0519 17.7925 10.2587 17.9153 10.2725L17.8949 10.2932Z" fill="white"/>
<path d="M33.4619 4.04C33.4619 4.12273 33.5301 4.20546 33.6666 4.28819C33.7348 4.32956 33.8166 4.37093 33.9121 4.4054C34.0077 4.44676 34.11 4.48813 34.2328 4.5295C34.7035 4.69496 35.3311 4.87421 36.0064 5.10862C36.3407 5.22582 36.8932 5.41886 37.4867 5.7291C38.087 6.03245 38.7283 6.48058 39.2877 6.96318C39.4309 7.08038 39.5605 7.21137 39.697 7.32858C39.7583 7.39062 39.8129 7.44578 39.8743 7.50783C39.9289 7.56988 39.9835 7.63192 40.038 7.69397C40.2495 7.94906 40.4337 8.19726 40.5974 8.40408C40.7611 8.61091 40.918 8.77638 41.0272 8.87979C41.15 8.98321 41.2182 9.02457 41.2318 9.01768C41.2455 9.00389 41.2046 8.92805 41.1363 8.80395C41.0681 8.67296 40.9726 8.48682 40.8635 8.25241C40.7543 8.01801 40.6315 7.73534 40.461 7.4182C40.4132 7.34236 40.3723 7.25963 40.3246 7.1838C40.27 7.10796 40.2154 7.01833 40.1608 6.9425C40.0449 6.79772 39.9357 6.63915 39.8061 6.48747C39.3013 5.88078 38.6805 5.28097 38.0461 4.85353C37.4185 4.41919 36.7977 4.13652 36.4089 3.99864C35.6244 3.72976 34.8672 3.66081 34.3351 3.70907C34.1987 3.72286 34.0827 3.73665 33.9735 3.75733C33.8644 3.78491 33.7757 3.81249 33.7007 3.84007C33.5506 3.90212 33.4687 3.97795 33.4687 4.06068L33.4619 4.04Z" fill="white"/>
<path d="M8.75338 4.75704C8.91028 4.88114 9.24455 4.75704 9.72207 4.46748C9.85168 4.39164 9.98129 4.30891 10.1109 4.23307C10.2473 4.14345 10.3974 4.05382 10.5543 3.95041C10.8681 3.75047 11.216 3.53675 11.6049 3.32992C11.9937 3.12999 12.4166 2.93695 12.8601 2.80596C13.3035 2.68186 13.7673 2.59913 14.2449 2.61981C14.7224 2.6336 15.2204 2.74391 15.7456 2.93695C16.2709 3.13688 16.8166 3.42644 17.3624 3.79184C17.9149 4.15034 18.638 4.6881 19.4498 5.4051C20.2684 6.11521 21.1825 7.00458 22.1649 7.98357C23.154 8.96255 24.2045 10.0381 25.3915 11.0791C25.6917 11.3411 25.9918 11.5962 26.3125 11.8444C26.4762 11.9685 26.6331 12.0926 26.8036 12.2098C26.8855 12.2718 26.9742 12.327 27.0628 12.389C27.1515 12.4511 27.2402 12.5131 27.3357 12.5683C28.0725 13.0164 28.8638 13.3542 29.6551 13.561C30.4464 13.7817 31.2514 13.892 32.0222 13.9058C32.7931 13.9264 33.5435 13.8713 34.2393 13.7334C35.6377 13.4714 36.8383 12.9268 37.7183 12.3063C38.1618 11.996 38.5301 11.672 38.8166 11.3549C39.11 11.0446 39.3283 10.7482 39.492 10.5C39.6489 10.2449 39.758 10.045 39.8194 9.89328C39.8808 9.7485 39.9013 9.66577 39.8808 9.65888C39.8604 9.65198 39.799 9.70714 39.6966 9.81745C39.5943 9.93465 39.4374 10.1001 39.2464 10.3C39.0418 10.5 38.7894 10.7413 38.4687 10.9757C38.1549 11.217 37.7729 11.4652 37.3363 11.6789C36.4632 12.1201 35.3376 12.4649 34.0824 12.5476C33.4548 12.5958 32.7999 12.5683 32.1382 12.4786C31.4765 12.389 30.8148 12.2236 30.1804 11.9754C29.5459 11.7341 28.9525 11.3962 28.4204 11.0033C28.3521 10.955 28.2907 10.8998 28.2294 10.8447C28.168 10.7964 28.0997 10.7413 28.0383 10.6792C27.9087 10.562 27.7723 10.4448 27.6427 10.3207C27.3835 10.0725 27.1311 9.81745 26.8787 9.55546C25.8759 8.50064 24.9345 7.36308 24.0135 6.30136C23.0994 5.23964 22.199 4.23997 21.3394 3.40576C20.4799 2.56465 19.6476 1.89591 18.9382 1.43399C18.2356 0.972074 17.4715 0.5791 16.6529 0.317117C15.8343 0.0620286 14.9543 -0.0620686 14.1289 0.0137686C13.2966 0.0758172 12.5463 0.330906 11.9187 0.641149C11.2979 0.958286 10.7931 1.34437 10.3906 1.71666C9.98129 2.08895 9.66749 2.46813 9.42191 2.81285C9.29912 2.98521 9.18997 3.14377 9.10129 3.30234C9.00579 3.45402 8.93075 3.5988 8.86935 3.73668C8.74656 4.00556 8.67834 4.22618 8.65788 4.39854C8.63741 4.57089 8.6647 4.6881 8.74656 4.75014L8.75338 4.75704Z" fill="white"/>
<path d="M17.9015 10.4932C17.7787 10.5139 17.6969 10.7276 17.6764 11.1206C17.6696 11.5067 17.7173 12.0651 17.9697 12.7338C18.0311 12.8993 18.1062 13.0786 18.2017 13.2509C18.2835 13.4302 18.4063 13.6094 18.5223 13.7887C18.7747 14.1472 19.1021 14.5057 19.5114 14.8159C19.9207 15.1262 20.4051 15.3812 20.9303 15.5536C21.4556 15.726 22.0218 15.8156 22.5812 15.8294C23.1474 15.8432 23.8773 15.7811 24.6755 15.5812C25.4736 15.3812 26.3468 15.0572 27.2131 14.5953C28.0931 14.1334 28.9049 13.5405 29.7099 12.9682C30.5148 12.396 31.313 11.8307 32.1452 11.4101C32.9707 10.9827 33.8302 10.7069 34.6488 10.6104C35.4674 10.507 36.2587 10.5621 36.9341 10.5759C37.2751 10.5897 37.5889 10.5828 37.8618 10.5759C38.1347 10.5621 38.3734 10.5415 38.5713 10.5208C38.9601 10.4518 39.1648 10.3967 39.1648 10.3691C39.1648 10.3415 38.9396 10.3277 38.5644 10.3208C38.3734 10.3002 38.1415 10.2864 37.8823 10.2519C37.6162 10.2105 37.3161 10.1692 36.9886 10.114C36.3269 10.0037 35.5288 9.84513 34.601 9.85202C33.6801 9.85202 32.6705 10.0657 31.7086 10.4449C30.74 10.8172 29.8327 11.3412 28.9731 11.8445C28.1136 12.3478 27.2882 12.8441 26.5105 13.182C25.726 13.5336 24.962 13.7542 24.2934 13.8852C23.6249 14.0162 23.0587 14.0438 22.6358 14.03C21.7899 14.0093 21.0531 13.8093 20.4733 13.4577C20.18 13.2854 19.9276 13.0717 19.7024 12.851C19.5933 12.7338 19.4841 12.6235 19.3955 12.5063C19.2931 12.3891 19.2113 12.2719 19.1294 12.1547C18.4745 11.2033 18.1812 10.4311 17.9151 10.4863L17.9015 10.4932Z" fill="white"/>
<path d="M13.3304 8.74206C14.3468 8.70759 15.1995 9.49354 15.2404 10.4932C15.2745 11.4929 14.4832 12.334 13.46 12.3685C12.4435 12.4029 11.5908 11.617 11.5499 10.6173C11.5158 9.61763 12.3071 8.77653 13.3304 8.74206Z" fill="white"/>
<path d="M43.2849 7.80444C44.1991 7.76997 44.9631 8.47318 44.9972 9.37634C45.0313 10.2726 44.315 11.031 43.4009 11.0585C42.4868 11.093 41.7228 10.3898 41.6887 9.48664C41.6546 8.58349 42.3708 7.83201 43.2849 7.80444Z" fill="white"/>
<path d="M33.8711 15.5396C33.8779 15.6224 33.9666 15.6913 34.1235 15.7396C34.1985 15.7672 34.294 15.7878 34.4032 15.8016C34.5123 15.8154 34.6351 15.8223 34.7647 15.8292C35.3037 15.8361 36.0472 15.7189 36.8112 15.3949C37.1864 15.2294 37.7868 14.9123 38.3871 14.4297C38.9874 13.954 39.574 13.3197 40.0311 12.6785C40.1471 12.5199 40.2494 12.3545 40.3517 12.1959C40.3995 12.1132 40.4472 12.0236 40.495 11.9408C40.5427 11.8581 40.5768 11.7754 40.6178 11.6926C40.761 11.3686 40.8633 11.079 40.9588 10.8377C41.0475 10.5964 41.1294 10.4034 41.1908 10.2655C41.2522 10.1345 41.2863 10.0518 41.2726 10.038C41.259 10.0311 41.1908 10.0794 41.0816 10.1897C40.9725 10.3 40.8361 10.4723 40.686 10.693C40.5359 10.9136 40.3722 11.1756 40.1812 11.4444C40.1334 11.5065 40.0857 11.5754 40.0311 11.6444C39.9765 11.7064 39.9219 11.7685 39.8674 11.8305C39.7446 11.9546 39.6218 12.0925 39.4854 12.2235C38.9533 12.7406 38.3461 13.2301 37.7731 13.5748C37.2001 13.9264 36.6612 14.147 36.3337 14.2918C35.6788 14.5675 35.0649 14.7951 34.6078 14.9881C34.4919 15.0364 34.3895 15.0846 34.3009 15.1329C34.2122 15.1742 34.1303 15.2225 34.0689 15.2639C33.9393 15.3535 33.8711 15.4431 33.8847 15.5259L33.8711 15.5396Z" fill="white"/>
</g>
<g clip-path="url(#clip1_57_1649)">
<path d="M349.834 5.18454C349.888 5.06734 349.991 4.98461 350.154 4.95014C350.311 4.91566 350.529 4.93635 350.768 5.05355C351.007 5.17075 351.266 5.39826 351.437 5.72919C351.614 6.05322 351.696 6.46688 351.648 6.85985C351.635 7.05979 351.566 7.30798 351.444 7.57686C351.328 7.83884 351.15 8.10772 350.918 8.34902C350.693 8.59032 350.42 8.80404 350.127 8.9695C349.834 9.13497 349.52 9.25217 349.213 9.3349C348.906 9.41074 348.613 9.44521 348.34 9.45211C348.203 9.45211 348.08 9.45211 347.958 9.43832C347.842 9.42453 347.733 9.41763 347.63 9.39695C347.528 9.37627 347.439 9.35559 347.364 9.3418C347.289 9.32111 347.221 9.30043 347.166 9.27975C347.057 9.23838 347.003 9.20391 347.003 9.16944C347.003 9.14186 347.064 9.10739 347.166 9.07292C347.282 9.03155 347.426 8.98329 347.589 8.92814C347.678 8.90056 347.767 8.8592 347.862 8.82472C347.958 8.78336 348.06 8.74199 348.162 8.69373C348.367 8.59721 348.572 8.47312 348.763 8.34212C348.954 8.20424 349.124 8.04567 349.267 7.88021C349.411 7.71474 349.52 7.54239 349.595 7.38382C349.67 7.22525 349.718 7.08047 349.738 6.95637C349.745 6.9288 349.745 6.90122 349.752 6.87364C349.752 6.84606 349.759 6.81849 349.759 6.7978C349.759 6.77712 349.759 6.74954 349.765 6.73576C349.765 6.71507 349.765 6.70128 349.765 6.6806C349.779 6.54961 349.793 6.4393 349.8 6.33589C349.806 6.23247 349.813 6.10838 349.8 5.98428C349.779 5.7223 349.69 5.43274 349.8 5.19833L349.834 5.18454Z" fill="white"/>
<path d="M351.859 9.25906C350.181 9.92091 347.862 10.0312 347.555 10.045C347.535 10.045 347.521 10.0588 347.521 10.0726L346.695 10.7413C346.586 10.831 346.579 10.9964 346.682 11.0929L347.459 11.8168C347.459 11.8168 347.473 11.8444 347.494 11.8444C347.801 11.8789 349.929 12.1133 351.73 12.9199C351.743 12.9199 354.418 11.5686 354.977 11.2653C355.032 11.2377 355.038 11.1688 354.977 11.1343C354.438 10.7896 351.866 9.25216 351.853 9.25906H351.859Z" fill="white"/>
<path d="M349.417 16.9393C349.465 17.0565 349.561 17.1461 349.724 17.1944C349.881 17.2426 350.1 17.2357 350.345 17.1323C350.591 17.0358 350.864 16.8221 351.061 16.5049C351.259 16.1947 351.368 15.7879 351.355 15.3881C351.355 15.1881 351.3 14.933 351.205 14.6642C351.102 14.3953 350.946 14.1126 350.741 13.8575C350.529 13.6024 350.277 13.368 349.99 13.1888C349.711 13.0026 349.404 12.8648 349.104 12.7613C348.803 12.6648 348.51 12.6097 348.244 12.589C348.108 12.5821 347.985 12.5752 347.869 12.5752C347.753 12.5752 347.644 12.5821 347.541 12.5959C347.439 12.6097 347.35 12.6235 347.275 12.6372C347.194 12.651 347.132 12.6717 347.078 12.6855C346.968 12.72 346.907 12.7544 346.907 12.782C346.907 12.8096 346.962 12.8441 347.064 12.8923C347.18 12.9406 347.316 13.0026 347.473 13.0647C347.555 13.0992 347.644 13.1474 347.739 13.1888C347.835 13.237 347.93 13.2853 348.026 13.3405C348.217 13.4508 348.415 13.5887 348.599 13.7334C348.776 13.8851 348.94 14.0506 349.07 14.2298C349.199 14.4022 349.295 14.5814 349.363 14.7469C349.431 14.9124 349.458 15.064 349.472 15.1812C349.479 15.2088 349.472 15.2433 349.479 15.264C349.479 15.2915 349.479 15.3191 349.479 15.3398C349.479 15.3605 349.479 15.3881 349.479 15.4019C349.479 15.4225 349.479 15.4363 349.479 15.457C349.479 15.588 349.486 15.6983 349.486 15.8086C349.486 15.9189 349.486 16.0361 349.465 16.1602C349.431 16.4153 349.322 16.7049 349.417 16.9462V16.9393Z" fill="white"/>
<path d="M346.845 16.836C346.921 16.8981 346.941 17.0222 346.907 17.1877C346.873 17.36 346.791 17.5737 346.648 17.8357C346.579 17.9667 346.491 18.1046 346.388 18.2494C346.286 18.4011 346.17 18.5527 346.034 18.7182C345.761 19.0422 345.427 19.3938 344.99 19.7454C344.56 20.0902 344.028 20.4349 343.387 20.7106C342.746 20.9795 341.975 21.1794 341.143 21.1863C340.31 21.207 339.444 21.0278 338.646 20.7106C337.848 20.3935 337.111 19.9523 336.442 19.4421C335.774 18.9388 334.989 18.208 334.184 17.3118C333.379 16.4155 332.561 15.3607 331.715 14.2369C330.876 13.1131 330.009 11.9204 329.089 10.7967C328.857 10.5209 328.618 10.2451 328.379 9.98312C328.256 9.85213 328.134 9.72114 328.011 9.59704C327.949 9.5281 327.888 9.47295 327.827 9.41779C327.765 9.36264 327.711 9.30748 327.649 9.25233C327.151 8.82488 326.578 8.4457 325.964 8.16303C325.35 7.87347 324.702 7.65975 324.054 7.52876C323.406 7.39087 322.751 7.32193 322.124 7.32193C320.868 7.32193 319.722 7.57702 318.822 7.9631C318.365 8.14924 317.976 8.36986 317.642 8.58358C317.307 8.79731 317.041 9.01792 316.816 9.19718C316.605 9.39022 316.434 9.535 316.325 9.6453C316.209 9.74872 316.141 9.80387 316.121 9.79008C316.107 9.7763 316.134 9.70046 316.209 9.56257C316.277 9.41779 316.407 9.23165 316.578 8.98345C316.762 8.74905 316.994 8.46638 317.314 8.18372C317.628 7.89416 318.01 7.59081 318.474 7.31503C319.395 6.7566 320.63 6.30157 322.042 6.12922C322.744 6.03959 323.495 6.0327 324.266 6.10853C325.036 6.17748 325.821 6.34294 326.599 6.61182C327.376 6.8738 328.14 7.25988 328.843 7.76316C328.932 7.82521 329.014 7.89416 329.102 7.9562C329.191 8.02515 329.273 8.0872 329.348 8.15614C329.505 8.28713 329.655 8.41812 329.812 8.55601C330.112 8.82488 330.398 9.10066 330.678 9.38332C331.79 10.5002 332.765 11.6446 333.68 12.6857C334.594 13.7336 335.44 14.6781 336.21 15.4434C336.974 16.2156 337.657 16.7947 338.182 17.1945C338.707 17.5944 339.232 17.9184 339.737 18.1529C340.249 18.3804 340.733 18.5251 341.211 18.5734C341.688 18.6286 342.152 18.5803 342.609 18.4838C343.059 18.3804 343.496 18.2218 343.898 18.0494C344.301 17.8771 344.669 17.684 344.99 17.5048C345.154 17.4152 345.311 17.3324 345.454 17.2566C345.59 17.1877 345.727 17.1118 345.856 17.0429C346.354 16.7947 346.695 16.6913 346.845 16.8223V16.836Z" fill="white"/>
<path d="M338.128 10.4794C337.862 10.5139 337.616 9.72796 337.029 8.72829C336.954 8.60419 336.879 8.48009 336.784 8.356C336.702 8.225 336.6 8.1147 336.497 7.9906C336.286 7.75619 336.047 7.52868 335.767 7.33564C335.215 6.94267 334.492 6.69447 333.653 6.61174C333.236 6.57037 332.663 6.56348 331.988 6.64621C331.313 6.72894 330.535 6.9082 329.723 7.19776C328.925 7.48042 328.066 7.92166 327.172 8.36289C326.278 8.80412 325.337 9.27294 324.348 9.57628C323.359 9.88653 322.342 10.0313 321.414 9.96926C320.487 9.9141 319.702 9.70038 319.047 9.54181C318.72 9.45908 318.427 9.39703 318.16 9.34188C317.901 9.29362 317.669 9.25915 317.485 9.22468C317.11 9.1902 316.892 9.15573 316.892 9.12816C316.892 9.10058 317.103 9.06611 317.492 9.02474C317.683 9.02474 317.929 9.01095 318.201 9.02474C318.474 9.03853 318.788 9.05921 319.122 9.09368C319.798 9.15573 320.589 9.26604 321.408 9.21778C322.233 9.17642 323.113 8.9558 323.966 8.58351C324.818 8.225 325.658 7.70793 326.503 7.19086C327.349 6.67379 328.195 6.14293 329.109 5.73617C330.003 5.3363 330.897 5.06742 331.708 4.92264C332.52 4.77786 333.257 4.76407 333.816 4.81923C334.376 4.87438 334.935 4.99848 335.447 5.20531C335.958 5.41214 336.429 5.70169 336.811 6.03951C337.193 6.37733 337.493 6.75652 337.725 7.13571C337.834 7.32875 337.937 7.508 338.005 7.69414C338.087 7.8734 338.148 8.05265 338.196 8.225C338.394 8.91443 338.407 9.47287 338.373 9.85206C338.325 10.2381 338.23 10.445 338.107 10.4588L338.128 10.4794Z" fill="white"/>
<path d="M322.561 4.22628C322.561 4.30901 322.492 4.39174 322.356 4.47447C322.288 4.51584 322.206 4.55721 322.11 4.59168C322.015 4.63304 321.912 4.67441 321.79 4.71577C321.319 4.88124 320.691 5.06049 320.016 5.29489C319.682 5.4121 319.129 5.60514 318.536 5.91538C317.935 6.21873 317.294 6.66686 316.735 7.14946C316.592 7.26666 316.462 7.39765 316.326 7.51486C316.264 7.5769 316.21 7.63206 316.148 7.69411C316.094 7.75616 316.039 7.8182 315.984 7.88025C315.773 8.13534 315.589 8.38354 315.425 8.59036C315.261 8.79719 315.104 8.96266 314.995 9.06607C314.872 9.16948 314.804 9.21085 314.791 9.20396C314.777 9.19017 314.818 9.11433 314.886 8.99023C314.954 8.85924 315.05 8.6731 315.159 8.43869C315.268 8.20428 315.391 7.92162 315.561 7.60448C315.609 7.52864 315.65 7.44591 315.698 7.37008C315.752 7.29424 315.807 7.20461 315.862 7.12878C315.978 6.98399 316.087 6.82543 316.216 6.67375C316.721 6.06705 317.342 5.46725 317.976 5.03981C318.604 4.60547 319.225 4.3228 319.614 4.18491C320.398 3.91604 321.155 3.84709 321.687 3.89535C321.824 3.90914 321.94 3.92293 322.049 3.94361C322.158 3.97119 322.247 3.99877 322.322 4.02635C322.472 4.08839 322.554 4.16423 322.554 4.24696L322.561 4.22628Z" fill="white"/>
<path d="M347.269 4.94332C347.112 5.06741 346.777 4.94332 346.3 4.65376C346.17 4.57792 346.041 4.49519 345.911 4.41935C345.775 4.32973 345.625 4.2401 345.468 4.13669C345.154 3.93675 344.806 3.72303 344.417 3.5162C344.028 3.31627 343.605 3.12323 343.162 2.99223C342.719 2.86814 342.255 2.78541 341.777 2.80609C341.3 2.81988 340.802 2.93019 340.276 3.12323C339.751 3.32316 339.205 3.61272 338.66 3.97812C338.107 4.33662 337.384 4.87437 336.572 5.59138C335.754 6.30149 334.839 7.19086 333.857 8.16984C332.868 9.14883 331.817 10.2243 330.63 11.2654C330.33 11.5274 330.03 11.7825 329.71 12.0306C329.546 12.1547 329.389 12.2788 329.218 12.396C329.136 12.4581 329.048 12.5132 328.959 12.5753C328.87 12.6373 328.782 12.6994 328.686 12.7545C327.95 13.2027 327.158 13.5405 326.367 13.7473C325.576 13.9679 324.771 14.0782 324 14.092C323.229 14.1127 322.479 14.0576 321.783 13.9197C320.384 13.6577 319.184 13.113 318.304 12.4926C317.86 12.1823 317.492 11.8583 317.205 11.5412C316.912 11.2309 316.694 10.9345 316.53 10.6863C316.373 10.4312 316.264 10.2312 316.203 10.0796C316.141 9.93478 316.121 9.85205 316.141 9.84516C316.162 9.83826 316.223 9.89342 316.325 10.0037C316.428 10.1209 316.585 10.2864 316.776 10.4863C316.98 10.6863 317.233 10.9276 317.553 11.162C317.867 11.4033 318.249 11.6515 318.686 11.8652C319.559 12.3064 320.684 12.6511 321.94 12.7339C322.567 12.7821 323.222 12.7545 323.884 12.6649C324.545 12.5753 325.207 12.4098 325.842 12.1616C326.476 11.9203 327.07 11.5825 327.602 11.1895C327.67 11.1413 327.731 11.0861 327.793 11.031C327.854 10.9827 327.922 10.9276 327.984 10.8655C328.113 10.7483 328.25 10.6311 328.379 10.507C328.639 10.2588 328.891 10.0037 329.143 9.74174C330.146 8.68692 331.088 7.54936 332.008 6.48764C332.923 5.42592 333.823 4.42625 334.683 3.59204C335.542 2.75093 336.374 2.08219 337.084 1.62027C337.786 1.15835 338.55 0.765379 339.369 0.503397C340.188 0.248308 341.068 0.124211 341.893 0.200048C342.725 0.262096 343.476 0.517185 344.103 0.827428C344.724 1.14457 345.229 1.53065 345.631 1.90294C346.041 2.27523 346.354 2.65441 346.6 2.99913C346.723 3.17149 346.832 3.33005 346.921 3.48862C347.016 3.6403 347.091 3.78508 347.153 3.92296C347.275 4.19184 347.344 4.41246 347.364 4.58481C347.385 4.75717 347.357 4.87437 347.275 4.93642L347.269 4.94332Z" fill="white"/>
<path d="M338.121 10.6795C338.244 10.7002 338.326 10.9139 338.346 11.3069C338.353 11.6929 338.305 12.2514 338.053 12.9201C337.991 13.0856 337.916 13.2648 337.821 13.4372C337.739 13.6164 337.616 13.7957 337.5 13.9749C337.248 14.3334 336.92 14.6919 336.511 15.0022C336.102 15.3124 335.617 15.5675 335.092 15.7399C334.567 15.9122 334.001 16.0019 333.441 16.0157C332.875 16.0294 332.145 15.9674 331.347 15.7675C330.549 15.5675 329.676 15.2435 328.809 14.7816C327.929 14.3197 327.118 13.7267 326.313 13.1545C325.508 12.5823 324.709 12.017 323.877 11.5964C323.052 11.169 322.192 10.8932 321.374 10.7967C320.555 10.6933 319.764 10.7484 319.088 10.7622C318.747 10.776 318.434 10.7691 318.161 10.7622C317.888 10.7484 317.649 10.7277 317.451 10.707C317.062 10.6381 316.858 10.583 316.858 10.5554C316.858 10.5278 317.083 10.514 317.458 10.5071C317.649 10.4864 317.881 10.4726 318.14 10.4382C318.406 10.3968 318.706 10.3554 319.034 10.3003C319.696 10.19 320.494 10.0314 321.421 10.0383C322.342 10.0383 323.352 10.252 324.314 10.6312C325.283 11.0035 326.19 11.5275 327.049 12.0308C327.909 12.534 328.734 13.0304 329.512 13.3682C330.296 13.7199 331.06 13.9405 331.729 14.0715C332.398 14.2025 332.964 14.23 333.387 14.2162C334.233 14.1956 334.969 13.9956 335.549 13.644C335.843 13.4717 336.095 13.2579 336.32 13.0373C336.429 12.9201 336.538 12.8098 336.627 12.6926C336.729 12.5754 336.811 12.4582 336.893 12.341C337.548 11.3896 337.841 10.6174 338.107 10.6726L338.121 10.6795Z" fill="white"/>
<path d="M342.691 8.92834C341.675 8.89387 340.822 9.67982 340.781 10.6795C340.747 11.6792 341.538 12.5203 342.562 12.5547C343.578 12.5892 344.431 11.8033 344.472 10.8036C344.506 9.80391 343.714 8.96281 342.691 8.92834Z" fill="white"/>
<path d="M312.737 7.99072C311.823 7.95625 311.059 8.65946 311.025 9.56262C310.991 10.4589 311.707 11.2172 312.621 11.2448C313.535 11.2793 314.299 10.5761 314.333 9.67292C314.367 8.76977 313.651 8.01829 312.737 7.99072Z" fill="white"/>
<path d="M322.151 15.7259C322.144 15.8087 322.055 15.8776 321.898 15.9259C321.823 15.9534 321.728 15.9741 321.619 15.9879C321.51 16.0017 321.387 16.0086 321.257 16.0155C320.718 16.0224 319.975 15.9052 319.211 15.5811C318.836 15.4157 318.235 15.0985 317.635 14.6159C317.035 14.1402 316.448 13.506 315.991 12.8648C315.875 12.7062 315.773 12.5408 315.67 12.3822C315.623 12.2995 315.575 12.2098 315.527 12.1271C315.479 12.0444 315.445 11.9616 315.404 11.8789C315.261 11.5549 315.159 11.2653 315.063 11.024C314.974 10.7827 314.893 10.5897 314.831 10.4518C314.77 10.3208 314.736 10.2381 314.749 10.2243C314.763 10.2174 314.831 10.2656 314.94 10.376C315.049 10.4863 315.186 10.6586 315.336 10.8792C315.486 11.0999 315.65 11.3618 315.841 11.6307C315.889 11.6928 315.936 11.7617 315.991 11.8306C316.045 11.8927 316.1 11.9547 316.155 12.0168C316.277 12.1409 316.4 12.2788 316.537 12.4098C317.069 12.9268 317.676 13.4163 318.249 13.761C318.822 14.1127 319.361 14.3333 319.688 14.4781C320.343 14.7538 320.957 14.9813 321.414 15.1744C321.53 15.2226 321.632 15.2709 321.721 15.3192C321.81 15.3605 321.892 15.4088 321.953 15.4501C322.083 15.5398 322.151 15.6294 322.137 15.7121L322.151 15.7259Z" fill="white"/>
</g>
</g>
<defs>
<linearGradient id="paint0_linear_57_1649" x1="44.9971" y1="10" x2="313.367" y2="10" gradientUnits="userSpaceOnUse">
<stop stop-color="white"/>
<stop offset="1" stop-color="white"/>
</linearGradient>
<clipPath id="clip0_57_1649">
<rect width="44" height="21" fill="white" transform="translate(0.99707)"/>
</clipPath>
<clipPath id="clip1_57_1649">
<rect width="44" height="21" fill="white" transform="matrix(-1 0 0 1 355.025 0.186279)"/>
</clipPath>
</defs>
</svg>
